<svg width="1920" height="300" viewBox="0 0 1920 300" fill="none" xmlns="http://www.w3.org/2000/svg">
    <g clip-path="url(#clip0_42_12)">
    <mask id="mask0_42_12" style="mask-type:alpha" maskUnits="userSpaceOnUse" x="0" y="0" width="1920" height="301">
    <path d="M1920 0.000732422H0V300.001H1920V0.000732422Z" fill="white"/>
    </mask>
    <g mask="url(#mask0_42_12)">
    <path d="M1920 0.000732422H0V300.001H1920V0.000732422Z" fill="url(#paint0_linear_42_12)"/>
    <path d="M1920 0.000732422H0V300.001H1920V0.000732422Z" fill="url(#paint1_linear_42_12)"/>
    <path style="mix-blend-mode:overlay" opacity="0.529738" d="M767.451 300.505L515.721 48.7753L263.991 300.505L515.721 552.235L767.451 300.505Z" fill="url(#paint2_linear_42_12)"/>
    <path style="mix-blend-mode:overlay" opacity="0.529738" d="M925.843 300.505L515.721 -109.617L105.599 300.505L515.721 710.627L925.843 300.505Z" fill="url(#paint3_linear_42_12)"/>
    </g>
    </g>
    <defs>
    <linearGradient id="paint0_linear_42_12" x1="960" y1="300.001" x2="960" y2="0.000732422" gradientUnits="userSpaceOnUse">
    <stop stop-color="#2C3948" stop-opacity="0.994471"/>
    <stop offset="1" stop-color="#3C475E"/>
    </linearGradient>
    <linearGradient id="paint1_linear_42_12" x1="960" y1="300.001" x2="960" y2="0.000732422" gradientUnits="userSpaceOnUse">
    <stop stop-color="#2C3948" stop-opacity="0.994471"/>
    <stop offset="1" stop-color="#3C475E"/>
    </linearGradient>
    <linearGradient id="paint2_linear_42_12" x1="515.721" y1="552.235" x2="515.721" y2="48.7753" gradientUnits="userSpaceOnUse">
    <stop stop-color="white" stop-opacity="0.184505"/>
    <stop offset="1" stop-color="white" stop-opacity="0.258037"/>
    </linearGradient>
    <linearGradient id="paint3_linear_42_12" x1="515.721" y1="710.627" x2="515.721" y2="-109.617" gradientUnits="userSpaceOnUse">
    <stop stop-color="white" stop-opacity="0.184505"/>
    <stop offset="1" stop-color="white" stop-opacity="0.258037"/>
    </linearGradient>
    <clipPath id="clip0_42_12">
    <rect width="1920" height="300" fill="white"/>
    </clipPath>
    </defs>
    </svg>
