<svg width="383" height="332" viewBox="0 0 383 332" fill="none" xmlns="http://www.w3.org/2000/svg">
<g clip-path="url(#clip0_38_2)">
<g opacity="0.169363">
<g opacity="0.169363">
<g opacity="0.169363">
<g opacity="0.169363">
<path opacity="0.285384" d="M373.502 331.169C378.748 331.169 383.001 326.916 383.001 321.67C383.001 316.425 378.748 312.172 373.502 312.172C368.257 312.172 364.004 316.425 364.004 321.67C364.004 326.916 368.257 331.169 373.502 331.169Z" fill="white"/>
<path opacity="0.285384" d="M321.502 331.169C326.747 331.169 331 326.916 331 321.67C331 316.425 326.747 312.172 321.502 312.172C316.256 312.172 312.003 316.425 312.003 321.67C312.003 326.916 316.256 331.169 321.502 331.169Z" fill="white"/>
<path opacity="0.285384" d="M269.501 331.169C274.747 331.169 278.999 326.916 278.999 321.67C278.999 316.425 274.747 312.172 269.501 312.172C264.255 312.172 260.003 316.425 260.003 321.67C260.003 326.916 264.255 331.169 269.501 331.169Z" fill="white"/>
<path opacity="0.285384" d="M217.501 331.169C222.746 331.169 226.999 326.916 226.999 321.67C226.999 316.425 222.746 312.172 217.501 312.172C212.255 312.172 208.002 316.425 208.002 321.67C208.002 326.916 212.255 331.169 217.501 331.169Z" fill="white"/>
<path opacity="0.285384" d="M165.5 331.169C170.746 331.169 174.998 326.916 174.998 321.67C174.998 316.425 170.746 312.172 165.5 312.172C160.254 312.172 156.002 316.425 156.002 321.67C156.002 326.916 160.254 331.169 165.5 331.169Z" fill="white"/>
<path opacity="0.285384" d="M113.499 331.169C118.745 331.169 122.998 326.916 122.998 321.67C122.998 316.425 118.745 312.172 113.499 312.172C108.254 312.172 104.001 316.425 104.001 321.67C104.001 326.916 108.254 331.169 113.499 331.169Z" fill="white"/>
<path opacity="0.285384" d="M61.4988 331.169C66.7446 331.169 70.9971 326.916 70.9971 321.67C70.9971 316.425 66.7446 312.172 61.4988 312.172C56.2531 312.172 52.0006 316.425 52.0006 321.67C52.0006 326.916 56.2531 331.169 61.4988 331.169Z" fill="white"/>
<path opacity="0.285384" d="M9.49826 331.169C14.744 331.169 18.9965 326.916 18.9965 321.67C18.9965 316.425 14.744 312.172 9.49826 312.172C4.25252 312.172 0 316.425 0 321.67C0 326.916 4.25252 331.169 9.49826 331.169Z" fill="white"/>
<path opacity="0.285384" d="M373.502 279.168C378.748 279.168 383.001 274.915 383.001 269.67C383.001 264.424 378.748 260.171 373.502 260.171C368.257 260.171 364.004 264.424 364.004 269.67C364.004 274.915 368.257 279.168 373.502 279.168Z" fill="white"/>
<path opacity="0.285384" d="M321.502 279.168C326.747 279.168 331 274.915 331 269.67C331 264.424 326.747 260.171 321.502 260.171C316.256 260.171 312.003 264.424 312.003 269.67C312.003 274.915 316.256 279.168 321.502 279.168Z" fill="white"/>
<path opacity="0.285384" d="M269.501 279.168C274.747 279.168 278.999 274.915 278.999 269.67C278.999 264.424 274.747 260.171 269.501 260.171C264.255 260.171 260.003 264.424 260.003 269.67C260.003 274.915 264.255 279.168 269.501 279.168Z" fill="white"/>
<path opacity="0.285384" d="M217.501 279.168C222.746 279.168 226.999 274.915 226.999 269.67C226.999 264.424 222.746 260.171 217.501 260.171C212.255 260.171 208.002 264.424 208.002 269.67C208.002 274.915 212.255 279.168 217.501 279.168Z" fill="white"/>
<path opacity="0.285384" d="M165.5 279.168C170.746 279.168 174.998 274.915 174.998 269.67C174.998 264.424 170.746 260.171 165.5 260.171C160.254 260.171 156.002 264.424 156.002 269.67C156.002 274.915 160.254 279.168 165.5 279.168Z" fill="white"/>
<path opacity="0.285384" d="M113.499 279.168C118.745 279.168 122.998 274.915 122.998 269.67C122.998 264.424 118.745 260.171 113.499 260.171C108.254 260.171 104.001 264.424 104.001 269.67C104.001 274.915 108.254 279.168 113.499 279.168Z" fill="white"/>
<path opacity="0.285384" d="M61.4988 279.168C66.7446 279.168 70.9971 274.915 70.9971 269.67C70.9971 264.424 66.7446 260.171 61.4988 260.171C56.2531 260.171 52.0006 264.424 52.0006 269.67C52.0006 274.915 56.2531 279.168 61.4988 279.168Z" fill="white"/>
<path opacity="0.285384" d="M9.49826 279.168C14.744 279.168 18.9965 274.915 18.9965 269.67C18.9965 264.424 14.744 260.171 9.49826 260.171C4.25252 260.171 0 264.424 0 269.67C0 274.915 4.25252 279.168 9.49826 279.168Z" fill="white"/>
<path opacity="0.285384" d="M373.502 227.167C378.748 227.167 383.001 222.915 383.001 217.669C383.001 212.423 378.748 208.171 373.502 208.171C368.257 208.171 364.004 212.423 364.004 217.669C364.004 222.915 368.257 227.167 373.502 227.167Z" fill="white"/>
<path opacity="0.285384" d="M321.502 227.167C326.747 227.167 331 222.915 331 217.669C331 212.423 326.747 208.171 321.502 208.171C316.256 208.171 312.003 212.423 312.003 217.669C312.003 222.915 316.256 227.167 321.502 227.167Z" fill="white"/>
<path opacity="0.285384" d="M269.501 227.167C274.747 227.167 278.999 222.915 278.999 217.669C278.999 212.423 274.747 208.171 269.501 208.171C264.255 208.171 260.003 212.423 260.003 217.669C260.003 222.915 264.255 227.167 269.501 227.167Z" fill="white"/>
<path opacity="0.285384" d="M217.501 227.167C222.746 227.167 226.999 222.915 226.999 217.669C226.999 212.423 222.746 208.171 217.501 208.171C212.255 208.171 208.002 212.423 208.002 217.669C208.002 222.915 212.255 227.167 217.501 227.167Z" fill="white"/>
<path opacity="0.285384" d="M165.5 227.167C170.746 227.167 174.998 222.915 174.998 217.669C174.998 212.423 170.746 208.171 165.5 208.171C160.254 208.171 156.002 212.423 156.002 217.669C156.002 222.915 160.254 227.167 165.5 227.167Z" fill="white"/>
<path opacity="0.285384" d="M113.499 227.167C118.745 227.167 122.998 222.915 122.998 217.669C122.998 212.423 118.745 208.171 113.499 208.171C108.254 208.171 104.001 212.423 104.001 217.669C104.001 222.915 108.254 227.167 113.499 227.167Z" fill="white"/>
<path opacity="0.285384" d="M61.4988 227.167C66.7446 227.167 70.9971 222.915 70.9971 217.669C70.9971 212.423 66.7446 208.171 61.4988 208.171C56.2531 208.171 52.0006 212.423 52.0006 217.669C52.0006 222.915 56.2531 227.167 61.4988 227.167Z" fill="white"/>
<path opacity="0.285384" d="M9.49826 227.167C14.744 227.167 18.9965 222.915 18.9965 217.669C18.9965 212.423 14.744 208.171 9.49826 208.171C4.25252 208.171 0 212.423 0 217.669C0 222.915 4.25252 227.167 9.49826 227.167Z" fill="white"/>
<path opacity="0.285384" d="M373.502 175.167C378.748 175.167 383.001 170.914 383.001 165.669C383.001 160.423 378.748 156.17 373.502 156.17C368.257 156.17 364.004 160.423 364.004 165.669C364.004 170.914 368.257 175.167 373.502 175.167Z" fill="white"/>
<path opacity="0.285384" d="M321.502 175.167C326.747 175.167 331 170.914 331 165.669C331 160.423 326.747 156.17 321.502 156.17C316.256 156.17 312.003 160.423 312.003 165.669C312.003 170.914 316.256 175.167 321.502 175.167Z" fill="white"/>
<path opacity="0.285384" d="M269.501 175.167C274.747 175.167 278.999 170.914 278.999 165.669C278.999 160.423 274.747 156.17 269.501 156.17C264.255 156.17 260.003 160.423 260.003 165.669C260.003 170.914 264.255 175.167 269.501 175.167Z" fill="white"/>
<path opacity="0.285384" d="M217.501 175.167C222.746 175.167 226.999 170.914 226.999 165.669C226.999 160.423 222.746 156.17 217.501 156.17C212.255 156.17 208.002 160.423 208.002 165.669C208.002 170.914 212.255 175.167 217.501 175.167Z" fill="white"/>
<path opacity="0.285384" d="M165.5 175.167C170.746 175.167 174.998 170.914 174.998 165.669C174.998 160.423 170.746 156.17 165.5 156.17C160.254 156.17 156.002 160.423 156.002 165.669C156.002 170.914 160.254 175.167 165.5 175.167Z" fill="white"/>
<path opacity="0.285384" d="M113.499 175.167C118.745 175.167 122.998 170.914 122.998 165.669C122.998 160.423 118.745 156.17 113.499 156.17C108.254 156.17 104.001 160.423 104.001 165.669C104.001 170.914 108.254 175.167 113.499 175.167Z" fill="white"/>
<path opacity="0.285384" d="M61.4988 175.167C66.7446 175.167 70.9971 170.914 70.9971 165.669C70.9971 160.423 66.7446 156.17 61.4988 156.17C56.2531 156.17 52.0006 160.423 52.0006 165.669C52.0006 170.914 56.2531 175.167 61.4988 175.167Z" fill="white"/>
<path opacity="0.285384" d="M9.49826 175.167C14.744 175.167 18.9965 170.914 18.9965 165.669C18.9965 160.423 14.744 156.17 9.49826 156.17C4.25252 156.17 0 160.423 0 165.669C0 170.914 4.25252 175.167 9.49826 175.167Z" fill="white"/>
<path opacity="0.285384" d="M373.502 123.166C378.748 123.166 383.001 118.914 383.001 113.668C383.001 108.422 378.748 104.17 373.502 104.17C368.257 104.17 364.004 108.422 364.004 113.668C364.004 118.914 368.257 123.166 373.502 123.166Z" fill="white"/>
<path opacity="0.285384" d="M321.502 123.166C326.747 123.166 331 118.914 331 113.668C331 108.422 326.747 104.17 321.502 104.17C316.256 104.17 312.003 108.422 312.003 113.668C312.003 118.914 316.256 123.166 321.502 123.166Z" fill="white"/>
<path opacity="0.285384" d="M269.501 123.166C274.747 123.166 278.999 118.914 278.999 113.668C278.999 108.422 274.747 104.17 269.501 104.17C264.255 104.17 260.003 108.422 260.003 113.668C260.003 118.914 264.255 123.166 269.501 123.166Z" fill="white"/>
<path opacity="0.285384" d="M217.501 123.166C222.746 123.166 226.999 118.914 226.999 113.668C226.999 108.422 222.746 104.17 217.501 104.17C212.255 104.17 208.002 108.422 208.002 113.668C208.002 118.914 212.255 123.166 217.501 123.166Z" fill="white"/>
<path opacity="0.285384" d="M165.5 123.166C170.746 123.166 174.998 118.914 174.998 113.668C174.998 108.422 170.746 104.17 165.5 104.17C160.254 104.17 156.002 108.422 156.002 113.668C156.002 118.914 160.254 123.166 165.5 123.166Z" fill="white"/>
<path opacity="0.285384" d="M113.499 123.166C118.745 123.166 122.998 118.914 122.998 113.668C122.998 108.422 118.745 104.17 113.499 104.17C108.254 104.17 104.001 108.422 104.001 113.668C104.001 118.914 108.254 123.166 113.499 123.166Z" fill="white"/>
<path opacity="0.285384" d="M61.4988 123.166C66.7446 123.166 70.9971 118.914 70.9971 113.668C70.9971 108.422 66.7446 104.17 61.4988 104.17C56.2531 104.17 52.0006 108.422 52.0006 113.668C52.0006 118.914 56.2531 123.166 61.4988 123.166Z" fill="white"/>
<path opacity="0.285384" d="M9.49826 123.166C14.744 123.166 18.9965 118.914 18.9965 113.668C18.9965 108.422 14.744 104.17 9.49826 104.17C4.25252 104.17 0 108.422 0 113.668C0 118.914 4.25252 123.166 9.49826 123.166Z" fill="white"/>
<path opacity="0.285384" d="M373.502 71.1657C378.748 71.1657 383.001 66.9132 383.001 61.6674C383.001 56.4217 378.748 52.1692 373.502 52.1692C368.257 52.1692 364.004 56.4217 364.004 61.6674C364.004 66.9132 368.257 71.1657 373.502 71.1657Z" fill="white"/>
<path opacity="0.285384" d="M321.502 71.1657C326.747 71.1657 331 66.9132 331 61.6674C331 56.4217 326.747 52.1692 321.502 52.1692C316.256 52.1692 312.003 56.4217 312.003 61.6674C312.003 66.9132 316.256 71.1657 321.502 71.1657Z" fill="white"/>
<path opacity="0.285384" d="M269.501 71.1657C274.747 71.1657 278.999 66.9132 278.999 61.6674C278.999 56.4217 274.747 52.1692 269.501 52.1692C264.255 52.1692 260.003 56.4217 260.003 61.6674C260.003 66.9132 264.255 71.1657 269.501 71.1657Z" fill="white"/>
<path opacity="0.285384" d="M217.501 71.1657C222.746 71.1657 226.999 66.9132 226.999 61.6674C226.999 56.4217 222.746 52.1692 217.501 52.1692C212.255 52.1692 208.002 56.4217 208.002 61.6674C208.002 66.9132 212.255 71.1657 217.501 71.1657Z" fill="white"/>
<path opacity="0.285384" d="M165.5 71.1657C170.746 71.1657 174.998 66.9132 174.998 61.6674C174.998 56.4217 170.746 52.1692 165.5 52.1692C160.254 52.1692 156.002 56.4217 156.002 61.6674C156.002 66.9132 160.254 71.1657 165.5 71.1657Z" fill="white"/>
<path opacity="0.285384" d="M113.499 71.1657C118.745 71.1657 122.998 66.9132 122.998 61.6674C122.998 56.4217 118.745 52.1692 113.499 52.1692C108.254 52.1692 104.001 56.4217 104.001 61.6674C104.001 66.9132 108.254 71.1657 113.499 71.1657Z" fill="white"/>
<path opacity="0.285384" d="M61.4988 71.1657C66.7446 71.1657 70.9971 66.9132 70.9971 61.6674C70.9971 56.4217 66.7446 52.1692 61.4988 52.1692C56.2531 52.1692 52.0006 56.4217 52.0006 61.6674C52.0006 66.9132 56.2531 71.1657 61.4988 71.1657Z" fill="white"/>
<path opacity="0.285384" d="M9.49826 71.1657C14.744 71.1657 18.9965 66.9132 18.9965 61.6674C18.9965 56.4217 14.744 52.1692 9.49826 52.1692C4.25252 52.1692 0 56.4217 0 61.6674C0 66.9132 4.25252 71.1657 9.49826 71.1657Z" fill="white"/>
<path opacity="0.285384" d="M373.502 19.1651C378.748 19.1651 383.001 14.9126 383.001 9.66684C383.001 4.42109 378.748 0.168579 373.502 0.168579C368.257 0.168579 364.004 4.42109 364.004 9.66684C364.004 14.9126 368.257 19.1651 373.502 19.1651Z" fill="white"/>
<path opacity="0.285384" d="M321.502 19.1651C326.747 19.1651 331 14.9126 331 9.66684C331 4.42109 326.747 0.168579 321.502 0.168579C316.256 0.168579 312.003 4.42109 312.003 9.66684C312.003 14.9126 316.256 19.1651 321.502 19.1651Z" fill="white"/>
<path opacity="0.285384" d="M269.501 19.1651C274.747 19.1651 278.999 14.9126 278.999 9.66684C278.999 4.42109 274.747 0.168579 269.501 0.168579C264.255 0.168579 260.003 4.42109 260.003 9.66684C260.003 14.9126 264.255 19.1651 269.501 19.1651Z" fill="white"/>
<path opacity="0.285384" d="M217.501 19.1651C222.746 19.1651 226.999 14.9126 226.999 9.66684C226.999 4.42109 222.746 0.168579 217.501 0.168579C212.255 0.168579 208.002 4.42109 208.002 9.66684C208.002 14.9126 212.255 19.1651 217.501 19.1651Z" fill="white"/>
<path opacity="0.285384" d="M165.5 19.1651C170.746 19.1651 174.998 14.9126 174.998 9.66684C174.998 4.42109 170.746 0.168579 165.5 0.168579C160.254 0.168579 156.002 4.42109 156.002 9.66684C156.002 14.9126 160.254 19.1651 165.5 19.1651Z" fill="white"/>
<path opacity="0.285384" d="M113.499 19.1651C118.745 19.1651 122.998 14.9126 122.998 9.66684C122.998 4.42109 118.745 0.168579 113.499 0.168579C108.254 0.168579 104.001 4.42109 104.001 9.66684C104.001 14.9126 108.254 19.1651 113.499 19.1651Z" fill="white"/>
<path opacity="0.285384" d="M61.4988 19.1651C66.7446 19.1651 70.9971 14.9126 70.9971 9.66684C70.9971 4.42109 66.7446 0.168579 61.4988 0.168579C56.2531 0.168579 52.0006 4.42109 52.0006 9.66684C52.0006 14.9126 56.2531 19.1651 61.4988 19.1651Z" fill="white"/>
<path opacity="0.285384" d="M9.49826 19.1651C14.744 19.1651 18.9965 14.9126 18.9965 9.66684C18.9965 4.42109 14.744 0.168579 9.49826 0.168579C4.25252 0.168579 0 4.42109 0 9.66684C0 14.9126 4.25252 19.1651 9.49826 19.1651Z" fill="white"/>
</g>
</g>
</g>
</g>
</g>
<defs>
<clipPath id="clip0_38_2">
<rect width="383" height="332" fill="white"/>
</clipPath>
</defs>
</svg>
