
<svg width="227px" height="279px" viewBox="0 0 227 279" version="1.1" xmlns="http://www.w3.org/2000/svg" xmlns:xlink="http://www.w3.org/1999/xlink">
    <g id="Page-1" stroke="none" stroke-width="1" fill="none" fill-rule="evenodd" opacity="0.07">
        <g id="Group" transform="translate(0.002000, 0.000621)" fill="#FFFFFF" fill-rule="nonzero">
            <path d="M217.5,278.9998 C222.746,278.9998 226.999,274.7468 226.999,269.5008 C226.999,264.2558 222.746,260.0028 217.5,260.0028 C212.255,260.0028 208.002,264.2558 208.002,269.5008 C208.002,274.7468 212.255,278.9998 217.5,278.9998 Z" id="Path"></path>
            <path d="M165.5,278.9998 C170.745,278.9998 174.998,274.7468 174.998,269.5008 C174.998,264.2558 170.745,260.0028 165.5,260.0028 C160.254,260.0028 156.001,264.2558 156.001,269.5008 C156.001,274.7468 160.254,278.9998 165.5,278.9998 Z" id="Path"></path>
            <path d="M113.499,278.9998 C118.745,278.9998 122.997,274.7468 122.997,269.5008 C122.997,264.2558 118.745,260.0028 113.499,260.0028 C108.253,260.0028 104.001,264.2558 104.001,269.5008 C104.001,274.7468 108.253,278.9998 113.499,278.9998 Z" id="Path"></path>
            <path d="M61.499,278.9998 C66.744,278.9998 70.997,274.7468 70.997,269.5008 C70.997,264.2558 66.744,260.0028 61.499,260.0028 C56.253,260.0028 52,264.2558 52,269.5008 C52,274.7468 56.253,278.9998 61.499,278.9998 Z" id="Path"></path>
            <path d="M9.498,278.9998 C14.744,278.9998 18.996,274.7468 18.996,269.5008 C18.996,264.2558 14.744,260.0028 9.498,260.0028 C4.252,260.0028 0,264.2558 0,269.5008 C0,274.7468 4.252,278.9998 9.498,278.9998 Z" id="Path"></path>
            <path d="M217.5,226.9988 C222.746,226.9988 226.999,222.7458 226.999,217.5008 C226.999,212.2548 222.746,208.0018 217.5,208.0018 C212.255,208.0018 208.002,212.2548 208.002,217.5008 C208.002,222.7458 212.255,226.9988 217.5,226.9988 Z" id="Path"></path>
            <path d="M165.5,226.9988 C170.745,226.9988 174.998,222.7458 174.998,217.5008 C174.998,212.2548 170.745,208.0018 165.5,208.0018 C160.254,208.0018 156.001,212.2548 156.001,217.5008 C156.001,222.7458 160.254,226.9988 165.5,226.9988 Z" id="Path"></path>
            <path d="M113.499,226.9988 C118.745,226.9988 122.997,222.7458 122.997,217.5008 C122.997,212.2548 118.745,208.0018 113.499,208.0018 C108.253,208.0018 104.001,212.2548 104.001,217.5008 C104.001,222.7458 108.253,226.9988 113.499,226.9988 Z" id="Path"></path>
            <path d="M61.499,226.9988 C66.744,226.9988 70.997,222.7458 70.997,217.5008 C70.997,212.2548 66.744,208.0018 61.499,208.0018 C56.253,208.0018 52,212.2548 52,217.5008 C52,222.7458 56.253,226.9988 61.499,226.9988 Z" id="Path"></path>
            <path d="M9.498,226.9988 C14.744,226.9988 18.996,222.7458 18.996,217.5008 C18.996,212.2548 14.744,208.0018 9.498,208.0018 C4.252,208.0018 0,212.2548 0,217.5008 C0,222.7458 4.252,226.9988 9.498,226.9988 Z" id="Path"></path>
            <path d="M217.5,174.9978 C222.746,174.9978 226.999,170.7458 226.999,165.4998 C226.999,160.2538 222.746,156.0018 217.5,156.0018 C212.255,156.0018 208.002,160.2538 208.002,165.4998 C208.002,170.7458 212.255,174.9978 217.5,174.9978 Z" id="Path"></path>
            <path d="M165.5,174.9978 C170.745,174.9978 174.998,170.7458 174.998,165.4998 C174.998,160.2538 170.745,156.0018 165.5,156.0018 C160.254,156.0018 156.001,160.2538 156.001,165.4998 C156.001,170.7458 160.254,174.9978 165.5,174.9978 Z" id="Path"></path>
            <path d="M113.499,174.9978 C118.745,174.9978 122.997,170.7458 122.997,165.4998 C122.997,160.2538 118.745,156.0018 113.499,156.0018 C108.253,156.0018 104.001,160.2538 104.001,165.4998 C104.001,170.7458 108.253,174.9978 113.499,174.9978 Z" id="Path"></path>
            <path d="M61.499,174.9978 C66.744,174.9978 70.997,170.7458 70.997,165.4998 C70.997,160.2538 66.744,156.0018 61.499,156.0018 C56.253,156.0018 52,160.2538 52,165.4998 C52,170.7458 56.253,174.9978 61.499,174.9978 Z" id="Path"></path>
            <path d="M9.498,174.9978 C14.744,174.9978 18.996,170.7458 18.996,165.4998 C18.996,160.2538 14.744,156.0018 9.498,156.0018 C4.252,156.0018 0,160.2538 0,165.4998 C0,170.7458 4.252,174.9978 9.498,174.9978 Z" id="Path"></path>
            <path d="M217.5,122.9978 C222.746,122.9978 226.999,118.7448 226.999,113.4998 C226.999,108.2538 222.746,104.0008 217.5,104.0008 C212.255,104.0008 208.002,108.2538 208.002,113.4998 C208.002,118.7448 212.255,122.9978 217.5,122.9978 Z" id="Path"></path>
            <path d="M165.5,122.9978 C170.745,122.9978 174.998,118.7448 174.998,113.4998 C174.998,108.2538 170.745,104.0008 165.5,104.0008 C160.254,104.0008 156.001,108.2538 156.001,113.4998 C156.001,118.7448 160.254,122.9978 165.5,122.9978 Z" id="Path"></path>
            <path d="M113.499,122.9978 C118.745,122.9978 122.997,118.7448 122.997,113.4998 C122.997,108.2538 118.745,104.0008 113.499,104.0008 C108.253,104.0008 104.001,108.2538 104.001,113.4998 C104.001,118.7448 108.253,122.9978 113.499,122.9978 Z" id="Path"></path>
            <path d="M61.499,122.9978 C66.744,122.9978 70.997,118.7448 70.997,113.4998 C70.997,108.2538 66.744,104.0008 61.499,104.0008 C56.253,104.0008 52,108.2538 52,113.4998 C52,118.7448 56.253,122.9978 61.499,122.9978 Z" id="Path"></path>
            <path d="M9.498,122.9978 C14.744,122.9978 18.996,118.7448 18.996,113.4998 C18.996,108.2538 14.744,104.0008 9.498,104.0008 C4.252,104.0008 0,108.2538 0,113.4998 C0,118.7448 4.252,122.9978 9.498,122.9978 Z" id="Path"></path>
            <path d="M217.5,70.9968 C222.746,70.9968 226.999,66.7448 226.999,61.4988 C226.999,56.2528 222.746,52.0008 217.5,52.0008 C212.255,52.0008 208.002,56.2528 208.002,61.4988 C208.002,66.7448 212.255,70.9968 217.5,70.9968 Z" id="Path"></path>
            <path d="M165.5,70.9968 C170.745,70.9968 174.998,66.7448 174.998,61.4988 C174.998,56.2528 170.745,52.0008 165.5,52.0008 C160.254,52.0008 156.001,56.2528 156.001,61.4988 C156.001,66.7448 160.254,70.9968 165.5,70.9968 Z" id="Path"></path>
            <path d="M113.499,70.9968 C118.745,70.9968 122.997,66.7448 122.997,61.4988 C122.997,56.2528 118.745,52.0008 113.499,52.0008 C108.253,52.0008 104.001,56.2528 104.001,61.4988 C104.001,66.7448 108.253,70.9968 113.499,70.9968 Z" id="Path"></path>
            <path d="M61.499,70.9968 C66.744,70.9968 70.997,66.7448 70.997,61.4988 C70.997,56.2528 66.744,52.0008 61.499,52.0008 C56.253,52.0008 52,56.2528 52,61.4988 C52,66.7448 56.253,70.9968 61.499,70.9968 Z" id="Path"></path>
            <path d="M9.498,70.9968 C14.744,70.9968 18.996,66.7448 18.996,61.4988 C18.996,56.2528 14.744,52.0008 9.498,52.0008 C4.252,52.0008 0,56.2528 0,61.4988 C0,66.7448 4.252,70.9968 9.498,70.9968 Z" id="Path"></path>
            <path d="M217.5,18.9965 C222.746,18.9965 226.999,14.744 226.999,9.4982 C226.999,4.2525 222.746,0 217.5,0 C212.255,0 208.002,4.2525 208.002,9.4982 C208.002,14.744 212.255,18.9965 217.5,18.9965 Z" id="Path"></path>
            <path d="M165.5,18.9965 C170.745,18.9965 174.998,14.744 174.998,9.4982 C174.998,4.2525 170.745,0 165.5,0 C160.254,0 156.001,4.2525 156.001,9.4982 C156.001,14.744 160.254,18.9965 165.5,18.9965 Z" id="Path"></path>
            <path d="M113.499,18.9965 C118.745,18.9965 122.997,14.744 122.997,9.4982 C122.997,4.2525 118.745,0 113.499,0 C108.253,0 104.001,4.2525 104.001,9.4982 C104.001,14.744 108.253,18.9965 113.499,18.9965 Z" id="Path"></path>
            <path d="M61.499,18.9965 C66.744,18.9965 70.997,14.744 70.997,9.4982 C70.997,4.2525 66.744,0 61.499,0 C56.253,0 52,4.2525 52,9.4982 C52,14.744 56.253,18.9965 61.499,18.9965 Z" id="Path"></path>
            <path d="M9.498,18.9965 C14.744,18.9965 18.996,14.744 18.996,9.4982 C18.996,4.2525 14.744,0 9.498,0 C4.252,0 0,4.2525 0,9.4982 C0,14.744 4.252,18.9965 9.498,18.9965 Z" id="Path"></path>
        </g>
    </g>
</svg>