<svg width="18" height="17" viewBox="0 0 18 17" fill="none" xmlns="http://www.w3.org/2000/svg">
<path d="M10.8594 11.7257H9.62922V7.70312C9.62922 7.63008 9.56946 7.57031 9.49641 7.57031H8.50032C8.42727 7.57031 8.3675 7.63008 8.3675 7.70312V11.7257H7.14065C7.02942 11.7257 6.96799 11.8535 7.03606 11.9398L8.89543 14.2923C8.94856 14.3604 9.05149 14.3604 9.10461 14.2923L10.964 11.9398C11.0321 11.8535 10.9706 11.7257 10.8594 11.7257Z" fill="#3F4045"/>
<path d="M13.9705 6.08779C13.2102 4.08232 11.2728 2.65625 9.00332 2.65625C6.73389 2.65625 4.79648 4.08066 4.03613 6.08613C2.61338 6.45967 1.5625 7.75625 1.5625 9.29688C1.5625 11.1313 3.04834 12.6172 4.88115 12.6172H5.54688C5.61992 12.6172 5.67969 12.5574 5.67969 12.4844V11.4883C5.67969 11.4152 5.61992 11.3555 5.54688 11.3555H4.88115C4.32168 11.3555 3.79541 11.133 3.40361 10.7296C3.01348 10.3278 2.80596 9.78662 2.82422 9.22549C2.83916 8.78721 2.98857 8.37549 3.25918 8.02852C3.53643 7.6749 3.9249 7.41758 4.35654 7.30303L4.98574 7.13867L5.2165 6.53105C5.35928 6.15254 5.5585 5.79893 5.80918 5.47852C6.05654 5.15977 6.35039 4.88252 6.6791 4.6501C7.36143 4.17031 8.16494 3.91631 9.00332 3.91631C9.8417 3.91631 10.6452 4.17031 11.3275 4.6501C11.6579 4.88252 11.9501 5.16143 12.1975 5.47852C12.4481 5.79893 12.6474 6.1542 12.7901 6.53105L13.0192 7.13701L13.6468 7.30303C14.5466 7.54541 15.1758 8.36387 15.1758 9.29688C15.1758 9.84639 14.9616 10.3644 14.5731 10.7528C14.1847 11.1413 13.6684 11.3555 13.1188 11.3555H12.4531C12.3801 11.3555 12.3203 11.4152 12.3203 11.4883V12.4844C12.3203 12.5574 12.3801 12.6172 12.4531 12.6172H13.1188C14.9517 12.6172 16.4375 11.1313 16.4375 9.29688C16.4375 7.75791 15.3899 6.46299 13.9705 6.08779Z" fill="#3F4045"/>
</svg>
