<svg width="44" height="44" viewBox="0 0 44 44" fill="none" xmlns="http://www.w3.org/2000/svg">
<path d="M26.8125 30.3488H23.6285V19.9375C23.6285 19.7484 23.4738 19.5938 23.2847 19.5938H20.7066C20.5175 19.5938 20.3629 19.7484 20.3629 19.9375V30.3488H17.1875C16.8996 30.3488 16.7406 30.6797 16.9168 30.9031L21.7293 36.9918C21.8668 37.168 22.1332 37.168 22.2707 36.9918L27.0832 30.9031C27.2593 30.6797 27.1004 30.3488 26.8125 30.3488Z" fill="#3F4045"/>
<path d="M34.8648 15.7566C32.8969 10.566 27.8824 6.875 22.0086 6.875C16.1348 6.875 11.1203 10.5617 9.15234 15.7523C5.46992 16.7191 2.75 20.075 2.75 24.0625C2.75 28.8105 6.5957 32.6562 11.3395 32.6562H13.0625C13.2516 32.6562 13.4062 32.5016 13.4062 32.3125V29.7344C13.4062 29.5453 13.2516 29.3906 13.0625 29.3906H11.3395C9.89141 29.3906 8.5293 28.8148 7.51523 27.7707C6.50547 26.7309 5.96836 25.3301 6.01562 23.8777C6.0543 22.7434 6.44102 21.6777 7.14141 20.7797C7.85898 19.8645 8.86445 19.1984 9.98164 18.902L11.6102 18.4766L12.2074 16.9039C12.577 15.9242 13.0926 15.009 13.7414 14.1797C14.3816 13.3547 15.1422 12.6371 15.993 12.0355C17.759 10.7938 19.8387 10.1363 22.0086 10.1363C24.1785 10.1363 26.2582 10.7938 28.0242 12.0355C28.8793 12.6371 29.6355 13.359 30.2758 14.1797C30.9246 15.009 31.4402 15.9285 31.8098 16.9039L32.4027 18.4723L34.027 18.902C36.3559 19.5293 37.9844 21.6477 37.9844 24.0625C37.9844 25.4848 37.4301 26.8254 36.4246 27.8309C35.4191 28.8363 34.0828 29.3906 32.6605 29.3906H30.9375C30.7484 29.3906 30.5938 29.5453 30.5938 29.7344V32.3125C30.5938 32.5016 30.7484 32.6562 30.9375 32.6562H32.6605C37.4043 32.6562 41.25 28.8105 41.25 24.0625C41.25 20.0793 38.5387 16.7277 34.8648 15.7566Z" fill="#3F4045"/>
</svg>
