<svg width="20px" height="20px" viewBox="0 0 20 20" version="1.1" xmlns="http://www.w3.org/2000/svg" xmlns:xlink="http://www.w3.org/1999/xlink">
    <defs>
        <circle id="path-3dnes6ol8s-1" cx="10" cy="10" r="10"></circle>
    </defs>
    <g id="Page-1" stroke="none" stroke-width="1" fill="none" fill-rule="evenodd">
        <g id="phone-fill">
            <g id="蒙版">
                <g id="path-1-link" fill="#000000" fill-rule="nonzero">
                    <circle id="path-1" cx="10" cy="10" r="10"></circle>
                </g>
                <g id="path-1-link" fill="#D64B24">
                    <circle id="path-1" cx="10" cy="10" r="10"></circle>
                </g>
            </g>
            <g id="Clipped">
                <mask id="mask-3dnes6ol8s-2" fill="white">
                    <use xlink:href="#path-3dnes6ol8s-1"></use>
                </mask>
                <g id="path-1"></g>
                <g id="Group" mask="url(#mask-3dnes6ol8s-2)">
                    <g transform="translate(0.000000, 3.500000)">
                        <rect id="矩形" fill="none" opacity="0" x="0" y="0" width="20.5" height="20.5"></rect>
                        <path d="M0.125104011,20.3740772 L30.374896,20.3740772 L30.374896,0.125922852 L0.125104011,0.125922852 L0.125104011,20.3740772 Z M30.535639,20.5665795 L30.535639,20.3740772 L30.535639,20.5665795 Z M0,20.5 L0,0 L30.5,0 L30.5,20.5 L0,20.5 Z" id="形状" fill="none"></path>
                        <polygon id="路径" fill="#D64B24" fill-rule="nonzero" points="0 0 30.5 0 30.5 20.5 0 20.5"></polygon>
                        <path d="M5.1682456,2.56778839 L5.81060575,4.5762653 L7.8611777,4.5762653 L6.20588465,5.796618 L6.82353865,7.8050747 L5.1682456,6.5593384 L3.51295255,7.8050747 L4.1553127,5.796618 L2.5,4.5762653 L4.55059161,4.5762653 L5.1682456,2.56778839 Z M10.5047172,1.5 L10.480011,2.2118724 L11.097665,2.46611254 L10.4305987,2.64408064 L10.4058925,3.33050881 L10.0353001,2.7457767 L9.39294,2.89830057 L9.8129447,2.36441649 L9.46705845,1.77966416 L10.0847125,2.05932832 L10.5047172,1.5 Z M12.8023507,3.76269685 L12.5059161,4.37291361 L12.9753135,4.85594968 L12.3082668,4.75425362 L12.0117929,5.36442995 L11.9129683,4.67798158 L11.245902,4.57628552 L11.8388498,4.27121756 L11.7400252,3.58476917 L12.2094422,4.06782544 L12.8023507,3.76269685 Z M12.1105979,6.5593384 L12.3329534,7.2203426 L13,7.2203426 L12.4564842,7.6271268 L12.6541138,8.28813095 L12.1105979,7.88136695 L11.5670624,8.28813095 L11.7894178,7.6271268 L11.2458823,7.2203426 L11.9129486,7.2203426 L12.1105979,6.5593384 Z M10.5046975,8.6949152 L10.4553049,9.3813636 L11.0976454,9.6356037 L10.4305987,9.8135516 L10.3811864,10.5 L10.0353001,9.91524765 L9.3682338,10.0932158 L9.8129447,9.5593317 L9.4423523,8.97457935 L10.0847125,9.2288195 L10.5046975,8.6949152 Z" id="形状" fill="#FBDC00" fill-rule="nonzero"></path>
                    </g>
                </g>
            </g>
        </g>
    </g>
</svg>
