
<svg width="20px" height="20px" viewBox="0 0 20 20" version="1.1" xmlns="http://www.w3.org/2000/svg" xmlns:xlink="http://www.w3.org/1999/xlink">
    <defs>
        <circle id="path-ru7y5vjf6j-1" cx="10" cy="10" r="10"></circle>
    </defs>
    <g id="Page-1" stroke="none" stroke-width="1" fill="none" fill-rule="evenodd">
        <g id="phone-fill备份">
            <g id="蒙版">
                <g id="path-1-link" fill="#000000" fill-rule="nonzero">
                    <circle id="path-1" cx="10" cy="10" r="10"></circle>
                </g>
                <g id="path-1-link" fill="#D64B24">
                    <circle id="path-1" cx="10" cy="10" r="10"></circle>
                </g>
            </g>
            <g id="美国-Clipped">
                <mask id="mask-ru7y5vjf6j-2" fill="white">
                    <use xlink:href="#path-ru7y5vjf6j-1"></use>
                </mask>
                <g id="path-1"></g>
                <g id="美国" mask="url(#mask-ru7y5vjf6j-2)">
                    <g transform="translate(-0.959090, -5.000000)" id="Group">
                        <g transform="translate(-0.000000, 0.000000)">
                            <rect id="矩形" fill="#000000" fill-rule="nonzero" opacity="0" x="0" y="0" width="33.25" height="33.25"></rect>
                            <polygon id="路径" fill="#FFFFFF" fill-rule="nonzero" points="0.680098875 4.68519775 32.3431906 4.68519775 32.3431906 25.8443093 0.680098875 25.8443093"></polygon>
                            <path d="M32.41875,25.8443093 L0.680098875,25.8443093 L0.680098875,4.68523022 L32.3431906,4.68523022 L32.3431906,25.8443093 L32.41875,25.8443093 Z M0.755690675,25.8443093 L32.3431906,25.8443093 L32.3431906,4.68523022 L0.755690675,4.68523022 L0.755690675,25.8443093 Z" id="形状" fill="#EFEFEF" fill-rule="nonzero"></path>
                            <path d="M0.680098875,4.68519775 L32.3431906,4.68519775 L32.3431906,6.4988489 L0.680098875,6.4988489 L0.680098875,4.68519775 Z M0.680098875,8.08578955 L32.3431906,8.08578955 L32.3431906,9.5971709 L0.680098875,9.5971709 L0.680098875,8.08578955 Z M0.680098875,11.3352302 L32.3431906,11.3352302 L32.3431906,12.8465791 L0.680098875,12.8465791 L0.680098875,11.3352302 Z M0.680098875,14.5846709 L32.3431906,14.5846709 L32.3431906,16.0960198 L0.680098875,16.0960198 L0.680098875,14.5846709 Z M0.680098875,17.8340791 L32.3431906,17.8340791 L32.3431906,19.3454605 L0.680098875,19.3454605 L0.680098875,17.8340791 Z M0.680098875,21.0835198 L32.3431906,21.0835198 L32.3431906,22.5949011 L0.680098875,22.5949011 L0.680098875,21.0835198 Z M0.680098875,24.3329604 L32.3431906,24.3329604 L32.3431906,25.8443093 L0.680098875,25.8443093 L0.680098875,24.3329604 Z" id="形状" fill="#B72343" fill-rule="nonzero"></path>
                            <polygon id="路径" fill="#00467B" fill-rule="nonzero" points="0.680098875 4.68519775 13.3755593 4.68519775 13.3755593 16.0960522 0.680098875 16.0960522"></polygon>
                            <path d="M2.9471709,6.57444065 L3.02273022,6.8011511 L3.24944067,6.8011511 L3.09828955,6.87671045 L3.17384887,7.1034209 L2.9471709,6.9522698 L2.79601977,7.1034209 L2.8715791,6.87671045 L2.64490112,6.8011511 L2.8715791,6.8011511 L2.9471709,6.57444065 Z M5.06305935,6.57444065 L5.06305935,6.8011511 L5.2897698,6.8011511 L5.1386511,6.87671045 L5.21421045,7.1034209 L5.06305935,6.9522698 L4.83634887,7.1034209 L4.91194067,6.87671045 L4.76078955,6.8011511 L4.9875,6.8011511 L5.06305935,6.57444065 Z M7.1789802,6.57444065 L7.25453955,6.8011511 L7.48125,6.8011511 L7.25453955,6.87671045 L7.3300989,7.1034209 L7.1789802,6.9522698 L6.9522698,7.1034209 L7.0278291,6.87671045 L6.87671045,6.8011511 L7.1034209,6.8011511 L7.1789802,6.57444065 Z M9.21930935,6.57444065 L9.2949011,6.8011511 L9.5215791,6.8011511 L9.37046045,6.87671045 L9.4460198,7.1034209 L9.21930935,6.9522698 L9.06819065,7.1034209 L9.14375,6.87671045 L8.9925989,6.8011511 L9.21930935,6.8011511 L9.21930935,6.57444065 Z M11.4107895,6.57444065 L11.4863489,6.8011511 L11.7130593,6.8011511 L11.4863489,6.87671045 L11.5619406,7.1034209 L11.4107895,6.9522698 L11.1840791,7.1034209 L11.2596709,6.87671045 L11.1085198,6.8011511 L11.3352302,6.8011511 L11.4107895,6.57444065 Z M1.88921045,5.44088845 L1.96476977,5.6675989 L2.19148022,5.6675989 L1.96476977,5.81875 L2.0403291,6.04546045 L1.88921045,5.89430935 L1.73805932,6.04546045 L1.73805932,5.81875 L1.58694067,5.6675989 L1.81365112,5.6675989 L1.88921045,5.44088845 Z M4.00509887,5.44088845 L4.08069067,5.6675989 L4.23180932,5.6675989 L4.08069067,5.81875 L4.15625,6.04546045 L4.00509887,5.89430935 L3.7784209,6.04546045 L3.85398022,5.81875 L3.7028291,5.6675989 L3.92953955,5.6675989 L4.00509887,5.44088845 Z M6.1210198,5.44088845 L6.1965791,5.6675989 L6.42328955,5.6675989 L6.1965791,5.81875 L6.2721709,6.04546045 L6.1210198,5.89430935 L5.89430935,6.04546045 L5.9699011,5.81875 L5.81875,5.6675989 L6.04546045,5.6675989 L6.1210198,5.44088845 Z M8.23694065,5.44088845 L8.23694065,5.6675989 L8.4636511,5.6675989 L8.3125,5.81875 L8.38805935,6.04546045 L8.23694065,5.89430935 L8.0102302,6.04546045 L8.08578955,5.81875 L7.9346709,5.6675989 L8.1613489,5.6675989 L8.23694065,5.44088845 Z M10.3528291,5.44088845 L10.4284209,5.6675989 L10.6550989,5.6675989 L10.4284209,5.81875 L10.5039802,6.04546045 L10.3528291,5.89430935 L10.2017104,6.04546045 L10.2017104,5.81875 L10.0505593,5.6675989 L10.2772698,5.6675989 L10.3528291,5.44088845 Z M12.46875,5.44088845 L12.5443093,5.6675989 L12.6954604,5.6675989 L12.5443093,5.81875 L12.6199011,6.04546045 L12.46875,5.89430935 L12.2420395,6.04546045 L12.3175989,5.81875 L12.1664802,5.6675989 L12.3931906,5.6675989 L12.46875,5.44088845 Z M2.9471709,8.91703955 L3.02273022,9.06819065 L3.24944067,9.06819065 L3.09828955,9.21930935 L3.17384887,9.4460198 L2.9471709,9.2949011 L2.79601977,9.4460198 L2.8715791,9.21930935 L2.64490112,9.06819065 L2.8715791,9.06819065 L2.9471709,8.91703955 Z M5.06305935,8.91703955 L5.06305935,9.06819065 L5.2897698,9.06819065 L5.1386511,9.21930935 L5.21421045,9.4460198 L5.06305935,9.2949011 L4.83634887,9.4460198 L4.91194067,9.21930935 L4.76078955,9.06819065 L4.9875,9.06819065 L5.06305935,8.91703955 Z M7.1789802,8.91703955 L7.25453955,9.06819065 L7.48125,9.06819065 L7.25453955,9.21930935 L7.3300989,9.4460198 L7.1789802,9.2949011 L6.9522698,9.4460198 L7.0278291,9.21930935 L6.87671045,9.06819065 L7.1034209,9.06819065 L7.1789802,8.91703955 Z M9.21930935,8.91703955 L9.2949011,9.06819065 L9.5215791,9.06819065 L9.37046045,9.21930935 L9.4460198,9.4460198 L9.21930935,9.2949011 L9.06819065,9.4460198 L9.14375,9.21930935 L8.9925989,9.06819065 L9.21930935,9.06819065 L9.21930935,8.91703955 Z M11.4107895,8.91703955 L11.4863489,9.06819065 L11.7130593,9.06819065 L11.4863489,9.21930935 L11.5619406,9.4460198 L11.4107895,9.2949011 L11.1840791,9.4460198 L11.2596709,9.21930935 L11.1085198,9.06819065 L11.3352302,9.06819065 L11.4107895,8.91703955 Z M1.88921045,7.78355225 L1.96476977,8.01019775 L2.19148022,8.01019775 L1.96476977,8.1613489 L2.0403291,8.38805935 L1.88921045,8.23694065 L1.73805932,8.38805935 L1.73805932,8.1613489 L1.58694067,8.0102302 L1.81365112,8.0102302 L1.88921045,7.78355225 Z M4.00509887,7.78355225 L4.08069067,8.01019775 L4.23180932,8.01019775 L4.08069067,8.1613489 L4.15625,8.38805935 L4.00509887,8.23694065 L3.7784209,8.38805935 L3.85398022,8.1613489 L3.7028291,8.0102302 L3.92953955,8.0102302 L4.00509887,7.78355225 Z M6.1210198,7.78355225 L6.1965791,8.01019775 L6.42328955,8.01019775 L6.1965791,8.1613489 L6.2721709,8.38805935 L6.1210198,8.23694065 L5.89430935,8.38805935 L5.9699011,8.1613489 L5.81875,8.0102302 L6.04546045,8.0102302 L6.1210198,7.78355225 Z M8.23694065,7.78355225 L8.23694065,8.01019775 L8.4636511,8.01019775 L8.3125,8.16138135 L8.38805935,8.3880918 L8.23694065,8.23697315 L8.0102302,8.3880918 L8.08578955,8.16138135 L7.9346709,8.0102627 L8.1613489,8.0102627 L8.23694065,7.78355225 Z M10.3528291,7.78355225 L10.4284209,8.01019775 L10.6550989,8.01019775 L10.4284209,8.1613489 L10.5039802,8.38805935 L10.3528291,8.23694065 L10.2017104,8.38805935 L10.2017104,8.1613489 L10.0505593,8.0102302 L10.2772698,8.0102302 L10.3528291,7.78355225 Z M12.46875,7.78355225 L12.5443093,8.01019775 L12.6954604,8.01019775 L12.5443093,8.1613489 L12.6199011,8.38805935 L12.46875,8.23694065 L12.2420395,8.38805935 L12.3175989,8.1613489 L12.1664802,8.0102302 L12.3931906,8.0102302 L12.46875,7.78355225 Z M2.9471709,11.2596709 L3.02273022,11.4863489 L3.24944067,11.4863489 L3.09828955,11.6375 L3.17384887,11.8642104 L2.9471709,11.7130593 L2.79601977,11.8642104 L2.8715791,11.6375 L2.64490112,11.4863489 L2.8715791,11.4863489 L2.9471709,11.2596709 Z M5.06305935,11.2596709 L5.06305935,11.4863489 L5.2897698,11.4863489 L5.1386511,11.6375 L5.21421045,11.8642104 L5.06305935,11.7130593 L4.83634887,11.8642104 L4.91194067,11.6375 L4.76078955,11.4863489 L4.9875,11.4863489 L5.06305935,11.2596709 Z M7.1789802,11.2596709 L7.25453955,11.4863489 L7.48125,11.4863489 L7.25453955,11.6375 L7.3300989,11.8642104 L7.1789802,11.7130593 L6.9522698,11.8642104 L7.0278291,11.6375 L6.87671045,11.4863489 L7.1034209,11.4863489 L7.1789802,11.2596709 Z M9.21930935,11.2596709 L9.2949011,11.4863489 L9.5215791,11.4863489 L9.37046045,11.6375 L9.4460198,11.8642104 L9.21930935,11.7130593 L9.06819065,11.8642104 L9.14375,11.6375 L8.9925989,11.4863489 L9.21930935,11.4863489 L9.21930935,11.2596709 Z M11.4107895,11.2596709 L11.4863489,11.4863489 L11.7130593,11.4863489 L11.4863489,11.6375 L11.5619406,11.8642104 L11.4107895,11.7130593 L11.1840791,11.8642104 L11.2596709,11.6375 L11.1085198,11.4863489 L11.3352302,11.4863489 L11.4107895,11.2596709 Z M1.88921045,10.2017105 L1.96476977,10.4284209 L2.19148022,10.4284209 L1.96476977,10.5039802 L2.0403291,10.7306906 L1.88921045,10.6550989 L1.73805932,10.7306906 L1.73805932,10.5039802 L1.58694067,10.4284209 L1.81365112,10.4284209 L1.88921045,10.2017105 Z M4.00509887,10.2017105 L4.08069067,10.4284209 L4.23180932,10.4284209 L4.08069067,10.5039802 L4.15625,10.7306906 L4.00509887,10.6550989 L3.7784209,10.7306906 L3.85398022,10.5039802 L3.7028291,10.4284209 L3.92953955,10.4284209 L4.00509887,10.2017105 Z M6.1210198,10.2017105 L6.1965791,10.4284209 L6.42328955,10.4284209 L6.1965791,10.5039802 L6.2721709,10.7306906 L6.1210198,10.6550989 L5.89430935,10.7306906 L5.9699011,10.5039802 L5.81875,10.4284209 L6.04546045,10.4284209 L6.1210198,10.2017105 Z M8.23694065,10.2017105 L8.23694065,10.4284209 L8.4636511,10.4284209 L8.3125,10.5039477 L8.38805935,10.7306582 L8.23694065,10.6550664 L8.0102302,10.7306582 L8.08578955,10.5039477 L7.9346709,10.4283884 L8.1613489,10.4283884 L8.23694065,10.2017105 Z M10.3528291,10.2017105 L10.4284209,10.4284209 L10.6550989,10.4284209 L10.4284209,10.5039802 L10.5039802,10.7306906 L10.3528291,10.6550989 L10.2017104,10.7306906 L10.2017104,10.5039802 L10.0505593,10.4284209 L10.2772698,10.4284209 L10.3528291,10.2017105 Z M12.46875,10.2017105 L12.5443093,10.4284209 L12.6954604,10.4284209 L12.5443093,10.5039802 L12.6199011,10.7306906 L12.46875,10.6550989 L12.2420395,10.7306906 L12.3175989,10.5039802 L12.1664802,10.4284209 L12.3931906,10.4284209 L12.46875,10.2017105 Z M2.9471709,13.6778291 L3.02273022,13.9045395 L3.24944067,13.9045395 L3.09828955,14.0556906 L3.17384887,14.2068094 L2.9471709,14.13125 L2.79601977,14.2068094 L2.8715791,14.0556906 L2.64490112,13.9045395 L2.8715791,13.9045395 L2.9471709,13.6778291 Z M5.06305935,13.6778291 L5.06305935,13.9045395 L5.2897698,13.9045395 L5.1386511,14.0556906 L5.21421045,14.2068094 L5.06305935,14.13125 L4.83634887,14.2068094 L4.91194067,14.0556906 L4.76078955,13.9045395 L4.9875,13.9045395 L5.06305935,13.6778291 Z M7.1789802,13.6778291 L7.25453955,13.9045395 L7.48125,13.9045395 L7.25453955,14.0556906 L7.3300989,14.2068094 L7.1789802,14.13125 L6.9522698,14.2068094 L7.0278291,14.0556906 L6.87671045,13.9045395 L7.1034209,13.9045395 L7.1789802,13.6778291 Z M9.21930935,13.6778291 L9.2949011,13.9045395 L9.5215791,13.9045395 L9.37046045,14.0556906 L9.4460198,14.2068094 L9.21930935,14.13125 L9.06819065,14.2068094 L9.14375,14.0556906 L8.9925989,13.9045395 L9.21930935,13.9045395 L9.21930935,13.6778291 Z M11.4107895,13.6778291 L11.4863489,13.9045395 L11.7130593,13.9045395 L11.4863489,14.0556906 L11.5619406,14.2068094 L11.4107895,14.13125 L11.1840791,14.2068094 L11.2596709,14.0556906 L11.1085198,13.9045395 L11.3352302,13.9045395 L11.4107895,13.6778291 Z M1.88921045,12.6199011 L1.96476977,12.7710198 L2.19148022,12.7710198 L1.96476977,12.9221709 L2.0403291,13.1488489 L1.88921045,12.9977302 L1.73805932,13.1488489 L1.73805932,12.9221709 L1.58694067,12.7710198 L1.81365112,12.7710198 L1.88921045,12.6199011 Z M4.00509887,12.6199011 L4.08069067,12.7710198 L4.23180932,12.7710198 L4.08069067,12.9221709 L4.15625,13.1488489 L4.00509887,12.9977302 L3.7784209,13.1488489 L3.85398022,12.9221709 L3.7028291,12.7710198 L3.92953955,12.7710198 L4.00509887,12.6199011 Z M6.1210198,12.6199011 L6.1965791,12.7710198 L6.42328955,12.7710198 L6.1965791,12.9221709 L6.2721709,13.1488489 L6.1210198,12.9977302 L5.89430935,13.1488489 L5.9699011,12.9221709 L5.81875,12.7710198 L6.04546045,12.7710198 L6.1210198,12.6199011 Z M8.23694065,12.6199011 L8.23694065,12.7710198 L8.4636511,12.7710198 L8.3125,12.9221709 L8.38805935,13.1488489 L8.23694065,12.9977302 L8.0102302,13.1488489 L8.08578955,12.9221709 L7.9346709,12.7710198 L8.1613489,12.7710198 L8.23694065,12.6199011 Z M10.3528291,12.6199011 L10.4284209,12.7710198 L10.6550989,12.7710198 L10.4284209,12.9221709 L10.5039802,13.1488489 L10.3528291,12.9977302 L10.2017104,13.1488489 L10.2017104,12.9221709 L10.0505593,12.7710198 L10.2772698,12.7710198 L10.3528291,12.6199011 Z M12.46875,12.6199011 L12.5443093,12.7710198 L12.6954604,12.7710198 L12.5443093,12.9221709 L12.6199011,13.1488489 L12.46875,12.9977302 L12.2420395,13.1488489 L12.3175989,12.9221709 L12.1664802,12.7710198 L12.3931906,12.7710198 L12.46875,12.6199011 Z M1.88921045,14.8113489 L1.96476977,15.0380593 L2.19148022,15.0380593 L1.96476977,15.1892104 L2.0403291,15.4159209 L1.88921045,15.2647698 L1.73805932,15.4159209 L1.73805932,15.1892104 L1.58694067,15.0380593 L1.81365112,15.0380593 L1.88921045,14.8113489 Z M4.00509887,14.8113489 L4.08069067,15.0380593 L4.23180932,15.0380593 L4.08069067,15.1892104 L4.15625,15.4159209 L4.00509887,15.2647698 L3.7784209,15.4159209 L3.85398022,15.1892104 L3.7028291,15.0380593 L3.92953955,15.0380593 L4.00509887,14.8113489 Z M6.1210198,14.8113489 L6.1965791,15.0380593 L6.42328955,15.0380593 L6.1965791,15.1892104 L6.2721709,15.4159209 L6.1210198,15.2647698 L5.89430935,15.4159209 L5.9699011,15.1892104 L5.81875,15.0380593 L6.04546045,15.0380593 L6.1210198,14.8113489 Z M8.23694065,14.8113489 L8.23694065,15.0380593 L8.4636511,15.0380593 L8.3125,15.1892104 L8.38805935,15.4159209 L8.23694065,15.2647698 L8.0102302,15.4159209 L8.08578955,15.1892104 L7.9346709,15.0380593 L8.1613489,15.0380593 L8.23694065,14.8113489 Z M10.3528291,14.8113489 L10.4284209,15.0380593 L10.6550989,15.0380593 L10.4284209,15.1892104 L10.5039802,15.4159209 L10.3528291,15.2647698 L10.2017104,15.4159209 L10.2017104,15.1892104 L10.0505593,15.0380593 L10.2772698,15.0380593 L10.3528291,14.8113489 Z M12.46875,14.8113489 L12.5443093,15.0380593 L12.6954604,15.0380593 L12.5443093,15.1892104 L12.6199011,15.4159209 L12.46875,15.2647698 L12.2420395,15.4159209 L12.3175989,15.1892104 L12.1664802,15.0380593 L12.3931906,15.0380593 L12.46875,14.8113489 Z" id="形状" fill="#FFFFFF" fill-rule="nonzero"></path>
                        </g>
                    </g>
                </g>
            </g>
        </g>
    </g>
</svg>