<svg width="51px" height="20px" viewBox="0 0 51 20" version="1.1" xmlns="http://www.w3.org/2000/svg" xmlns:xlink="http://www.w3.org/1999/xlink">
    <defs>
        <linearGradient x1="0%" y1="50%" x2="100%" y2="50%" id="linearGradient-j9cmtplk_b-1">
            <stop stop-color="#C22AFF" offset="0%"></stop>
            <stop stop-color="#FF3F4F" offset="100%"></stop>
        </linearGradient>
        <linearGradient x1="20.3285271%" y1="74.531638%" x2="97.3268791%" y2="10.8844796%" id="linearGradient-j9cmtplk_b-2">
            <stop stop-color="#FF3F4F" offset="0%"></stop>
            <stop stop-color="#FFD53C" offset="100%"></stop>
        </linearGradient>
        <linearGradient x1="0.0175483118%" y1="50.0041826%" x2="100%" y2="50.0041826%" id="linearGradient-j9cmtplk_b-3">
            <stop stop-color="#FFDD19" offset="0%"></stop>
            <stop stop-color="#30C275" offset="100%"></stop>
        </linearGradient>
        <linearGradient x1="0%" y1="50%" x2="100%" y2="50%" id="linearGradient-j9cmtplk_b-4">
            <stop stop-color="#30C275" offset="0%"></stop>
            <stop stop-color="#197DFF" offset="100%"></stop>
        </linearGradient>
    </defs>
    <g id="Page-1" stroke="none" stroke-width="1" fill="none" fill-rule="evenodd">
        <g id="FSCN" transform="translate(0.000000, 0.000000)" fill-rule="nonzero">
            <path d="M23.5351078,11.8213413 L15.0288614,11.8213413 L15.0288614,11.8082983 C15.2288025,11.0842155 15.8895986,10.584274 16.6407658,10.5887725 L23.0644709,10.5887725 C21.9660317,8.39367098 19.7219715,7.00726748 17.2673759,7.00726748 C14.8127803,7.00726748 12.5687202,8.39367098 11.4702809,10.5887725 C11.2724863,10.9823285 11.1162138,11.3954126 11.0039917,11.8213413 C10.7276256,12.8637192 10.7145533,13.9584277 10.9659494,15.0071078 L19.552628,15.0071078 L19.552628,15.0201508 C19.372243,15.7400407 18.7230704,16.2433066 17.9809398,16.2385897 L11.4050657,16.2385897 C12.4730485,18.5144682 14.760438,19.967802 17.2744409,19.967802 C19.7884438,19.967802 22.0758333,18.5144682 23.1438162,16.2385897 C23.3306296,15.844109 23.4763209,15.4314382 23.5785847,15.0071078 C23.8299808,13.9584277 23.8169085,12.8637192 23.5405424,11.8213413 L23.5351078,11.8213413 Z" id="Path" fill="#FFFFFF"></path>
            <polygon id="Path" fill="#FFFFFF" points="9.78663977 6.95628139 9.78663977 11.2496207 4.31399081 11.2496207 4.31399081 12.434365 6.77260689 12.434365 6.77260689 16.6277075 4.31290389 16.6277075 4.31290389 19.9993375 0 19.9993375 0.0684760446 6.95628139"></polygon>
            <path d="M33.4054405,14.119093 C33.1102847,14.8567873 32.3331718,15.2812756 31.5529651,15.1309846 C30.7727584,14.9806936 30.2089405,14.2979022 30.2089405,13.5033521 C30.2089405,12.708802 30.7727584,12.0260106 31.5529651,11.8757196 C32.3331718,11.7254286 33.1102847,12.1499169 33.4054405,12.8876112 L38.3335419,12.8876112 C38.0048349,9.43511824 35.0222414,6.84960001 31.5580413,7.0141388 C28.0938411,7.17867758 25.36973,10.0352466 25.36973,13.5033521 C25.36973,16.9714576 28.0938411,19.8280266 31.5580413,19.9925654 C35.0222414,20.1571042 38.0048349,17.571586 38.3335419,14.119093 L33.4054405,14.119093 Z" id="Path" fill="#FFFFFF"></path>
            <path d="M33.2163162,5.76067098 C33.1454028,5.72194955 33.07681,5.67912446 33.0108881,5.63241119 C32.8463578,5.52971122 32.6719393,5.44377645 32.4902528,5.37589776 C32.0677878,5.20487912 31.5953691,5.20487912 31.1729041,5.37589776 C30.9903342,5.4434257 30.8154473,5.5301405 30.6511819,5.63458504 C30.5866397,5.68157834 30.518702,5.72372149 30.4479276,5.76067098 C30.3856108,5.76067098 30.225471,5.63241119 29.9675083,5.37589776 C29.7095457,5.11938432 29.5805643,4.9603315 29.5805643,4.89873929 C29.5806324,4.85400564 29.5995778,4.81137846 29.6327366,4.78135178 C29.9194267,4.50523134 30.2618573,4.29362109 30.6370519,4.1607197 C31.4055125,3.85867124 32.2598182,3.85867124 33.0282788,4.1607197 C33.4029925,4.29447283 33.7449693,4.50640209 34.0315072,4.7824387 C34.0639351,4.81289113 34.0824089,4.85534162 34.0825925,4.89982621 C34.0825925,4.96141842 33.9536112,5.12047124 33.6956485,5.37698468 C33.4376859,5.63349812 33.2779084,5.76139253 33.2163162,5.76067098 Z M34.615184,4.36614783 C34.572866,4.36411337 34.5320648,4.34975739 34.4977965,4.32484482 C34.1016757,4.00795746 33.6675336,3.74177616 33.205447,3.53247916 C32.4892553,3.25201025 31.7031885,3.2029761 30.9576937,3.39226631 C30.695741,3.45705898 30.4408741,3.54771876 30.1968487,3.66290972 C29.9977402,3.75913777 29.8036552,3.86543108 29.6153458,3.98137768 C29.4436123,4.09006981 29.308834,4.17811044 29.2099242,4.25310801 C29.1596989,4.2930928 29.1066655,4.32941704 29.0512337,4.36180015 C28.9925399,4.36180015 28.8338494,4.23354343 28.5795098,3.97702999 C28.3251702,3.72051655 28.1947396,3.56182604 28.1947396,3.49987152 C28.1967552,3.45831845 28.2151184,3.4192477 28.2458249,3.39117939 C28.7128066,2.92918213 29.2720938,2.57101605 29.8870762,2.34012645 C31.1374665,1.84019776 32.532212,1.84019776 33.7826023,2.34012645 C34.3977174,2.57075093 34.9570571,2.92895063 35.4238535,3.39117939 C35.45456,3.4192477 35.4729233,3.45831845 35.4749388,3.49987152 C35.4749388,3.56146373 35.3466821,3.72051655 35.0901686,3.97702999 C34.8303944,4.23897803 34.6727908,4.36832167 34.615184,4.36832167 L34.615184,4.36614783 Z M36.0042695,2.97814928 C35.9638899,2.97578611 35.9255346,2.9596769 35.8955773,2.93249858 C35.3316856,2.42586395 34.6878709,2.01599674 33.9902042,1.71949436 C32.6046713,1.17608184 31.0650071,1.17608184 29.6794742,1.71949436 C28.9805056,2.01634175 28.3355585,2.426963 27.7708403,2.93467242 C27.7408831,2.96185074 27.7025278,2.97795996 27.6621482,2.98032312 C27.6034544,2.98032312 27.4447639,2.85315332 27.1871635,2.59663988 C26.9295632,2.34012645 26.800121,2.18143593 26.800121,2.11948141 C26.7986641,2.07489104 26.8155736,2.03163425 26.8469572,1.99992007 C27.4984435,1.35621155 28.2753929,0.853414272 29.129492,0.522793962 C30.8634502,-0.174264654 32.7997066,-0.174264654 34.5336649,0.522793962 C35.387764,0.853414272 36.1647134,1.35621155 36.8161997,1.99992007 C36.8486275,2.03037249 36.8671014,2.07282298 36.867285,2.11730757 C36.867285,2.1796244 36.7383037,2.33867722 36.480341,2.59446604 C36.2216537,2.85097948 36.0640502,2.97814928 36.0053564,2.97814928 L36.0042695,2.97814928 Z" id="Shape" fill="#FFFFFF"></path>
            <polygon id="Path" fill="#FFFFFF" points="46.5115381 6.95628139 46.5115381 10.388779 44.0550959 6.95845523 44.0550959 6.95628139 44.052922 6.95628139 42.2931964 6.95628139 39.742192 6.95628139 39.742192 8.78557001 39.742192 10.5431218 39.742192 19.9993375 44.0550959 19.9993375 44.0550959 16.5668399 46.5115381 19.9982506 46.512625 19.9993375 50.824442 19.9993375 50.824442 16.9081332 50.824442 16.4124971 50.8255289 6.95628139"></polygon>
            <polygon id="Path" fill="url(#linearGradient-j9cmtplk_b-1)" opacity="0.3" points="0.0684760446 6.95628139 9.78663977 6.95628139 0 19.9993375"></polygon>
            <polygon id="Path" fill="#197DFF" opacity="0.4" points="46.512625 19.9993375 50.824442 19.9993375 50.824442 6.95628139 39.742192 6.95628139 39.742192 10.4670373"></polygon>
            <path d="M17.2711801,19.9699906 C13.6916504,19.9699906 10.7898683,17.0682084 10.7898683,13.4886787 C10.7898683,9.90914894 13.6916504,7.00736669 17.2711801,7.00736669" id="Path" fill="#FFAE66" opacity="0.4"></path>
            <path d="M23.5351078,11.8213413 L15.0288614,11.8213413 L15.0288614,11.8082983 C15.2288025,11.0842155 15.8895986,10.584274 16.6407658,10.5887725 L23.0644709,10.5887725 C21.9660317,8.39367098 19.7219715,7.00726748 17.2673759,7.00726748 C14.8127803,7.00726748 12.5687202,8.39367098 11.4702809,10.5887725 C11.2724863,10.9823285 11.1162138,11.3954126 11.0039917,11.8213413 C10.7276256,12.8637192 10.7145533,13.9584277 10.9659494,15.0071078 L19.552628,15.0071078 L19.552628,15.0201508 C19.372243,15.7400407 18.7230704,16.2433066 17.9809398,16.2385897 L11.4050657,16.2385897 C12.4730485,18.5144682 14.760438,19.967802 17.2744409,19.967802 C19.7884438,19.967802 22.0758333,18.5144682 23.1438162,16.2385897 C23.3306296,15.844109 23.4763209,15.4314382 23.5785847,15.0071078 C23.8299808,13.9584277 23.8169085,12.8637192 23.5405424,11.8213413 L23.5351078,11.8213413 Z" id="Path" fill="url(#linearGradient-j9cmtplk_b-2)" opacity="0.6"></path>
            <polygon id="Path" fill="url(#linearGradient-j9cmtplk_b-1)" opacity="0.4" points="9.78663977 6.95628139 9.78663977 11.2496207 4.31399081 11.2496207 4.31399081 12.434365 6.77260689 12.434365 6.77260689 16.6277075 4.31290389 16.6277075 4.31290389 19.9993375 0 19.9993375 0.0684760446 6.95628139"></polygon>
            <path d="M33.4054405,14.119093 C33.1102847,14.8567873 32.3331718,15.2812756 31.5529651,15.1309846 C30.7727584,14.9806936 30.2089405,14.2979022 30.2089405,13.5033521 C30.2089405,12.708802 30.7727584,12.0260106 31.5529651,11.8757196 C32.3331718,11.7254286 33.1102847,12.1499169 33.4054405,12.8876112 L38.3335419,12.8876112 C38.0048349,9.43511824 35.0222414,6.84960001 31.5580413,7.0141388 C28.0938411,7.17867758 25.36973,10.0352466 25.36973,13.5033521 C25.36973,16.9714576 28.0938411,19.8280266 31.5580413,19.9925654 C35.0222414,20.1571042 38.0048349,17.571586 38.3335419,14.119093 L33.4054405,14.119093 Z" id="Path" fill="url(#linearGradient-j9cmtplk_b-3)" opacity="0.6"></path>
            <path d="M33.2163162,5.76067098 C33.1454028,5.72194955 33.07681,5.67912446 33.0108881,5.63241119 C32.8463578,5.52971122 32.6719393,5.44377645 32.4902528,5.37589776 C32.0677878,5.20487912 31.5953691,5.20487912 31.1729041,5.37589776 C30.9903342,5.4434257 30.8154473,5.5301405 30.6511819,5.63458504 C30.5866397,5.68157834 30.518702,5.72372149 30.4479276,5.76067098 C30.3856108,5.76067098 30.225471,5.63241119 29.9675083,5.37589776 C29.7095457,5.11938432 29.5805643,4.9603315 29.5805643,4.89873929 C29.5806324,4.85400564 29.5995778,4.81137846 29.6327366,4.78135178 C29.9194267,4.50523134 30.2618573,4.29362109 30.6370519,4.1607197 C31.4055125,3.85867124 32.2598182,3.85867124 33.0282788,4.1607197 C33.4029925,4.29447283 33.7449693,4.50640209 34.0315072,4.7824387 C34.0639351,4.81289113 34.0824089,4.85534162 34.0825925,4.89982621 C34.0825925,4.96141842 33.9536112,5.12047124 33.6956485,5.37698468 C33.4376859,5.63349812 33.2779084,5.76139253 33.2163162,5.76067098 Z M34.615184,4.36614783 C34.572866,4.36411337 34.5320648,4.34975739 34.4977965,4.32484482 C34.1016757,4.00795746 33.6675336,3.74177616 33.205447,3.53247916 C32.4892553,3.25201025 31.7031885,3.2029761 30.9576937,3.39226631 C30.695741,3.45705898 30.4408741,3.54771876 30.1968487,3.66290972 C29.9977402,3.75913777 29.8036552,3.86543108 29.6153458,3.98137768 C29.4436123,4.09006981 29.308834,4.17811044 29.2099242,4.25310801 C29.1596989,4.2930928 29.1066655,4.32941704 29.0512337,4.36180015 C28.9925399,4.36180015 28.8338494,4.23354343 28.5795098,3.97702999 C28.3251702,3.72051655 28.1947396,3.56182604 28.1947396,3.49987152 C28.1967552,3.45831845 28.2151184,3.4192477 28.2458249,3.39117939 C28.7128066,2.92918213 29.2720938,2.57101605 29.8870762,2.34012645 C31.1374665,1.84019776 32.532212,1.84019776 33.7826023,2.34012645 C34.3977174,2.57075093 34.9570571,2.92895063 35.4238535,3.39117939 C35.45456,3.4192477 35.4729233,3.45831845 35.4749388,3.49987152 C35.4749388,3.56146373 35.3466821,3.72051655 35.0901686,3.97702999 C34.8303944,4.23897803 34.6727908,4.36832167 34.615184,4.36832167 L34.615184,4.36614783 Z M36.0042695,2.97814928 C35.9638899,2.97578611 35.9255346,2.9596769 35.8955773,2.93249858 C35.3316856,2.42586395 34.6878709,2.01599674 33.9902042,1.71949436 C32.6046713,1.17608184 31.0650071,1.17608184 29.6794742,1.71949436 C28.9805056,2.01634175 28.3355585,2.426963 27.7708403,2.93467242 C27.7408831,2.96185074 27.7025278,2.97795996 27.6621482,2.98032312 C27.6034544,2.98032312 27.4447639,2.85315332 27.1871635,2.59663988 C26.9295632,2.34012645 26.800121,2.18143593 26.800121,2.11948141 C26.7986641,2.07489104 26.8155736,2.03163425 26.8469572,1.99992007 C27.4984435,1.35621155 28.2753929,0.853414272 29.129492,0.522793962 C30.8634502,-0.174264654 32.7997066,-0.174264654 34.5336649,0.522793962 C35.387764,0.853414272 36.1647134,1.35621155 36.8161997,1.99992007 C36.8486275,2.03037249 36.8671014,2.07282298 36.867285,2.11730757 C36.867285,2.1796244 36.7383037,2.33867722 36.480341,2.59446604 C36.2216537,2.85097948 36.0640502,2.97814928 36.0053564,2.97814928 L36.0042695,2.97814928 Z" id="Shape" fill="#8CC63F" opacity="0.58"></path>
            <polygon id="Path" fill="url(#linearGradient-j9cmtplk_b-4)" opacity="0.6" points="46.5115381 6.95628139 46.5115381 10.388779 44.0550959 6.95845523 44.0550959 6.95628139 44.052922 6.95628139 42.2931964 6.95628139 39.742192 6.95628139 39.742192 8.78557001 39.742192 10.5431218 39.742192 19.9993375 44.0550959 19.9993375 44.0550959 16.5668399 46.5115381 19.9982506 46.512625 19.9993375 50.824442 19.9993375 50.824442 16.9081332 50.824442 16.4124971 50.8255289 6.95628139"></polygon>
            <path d="M31.8685338,19.9993375 C29.5277174,20.0296173 27.3516394,18.7981546 26.172403,16.7758441 C24.9931665,14.7535337 24.9931665,12.2531705 26.172403,10.2308601 C27.3516394,8.20854964 29.5277174,6.9770869 31.8685338,7.00736669 L31.8685338,19.9993375 Z" id="Path" fill="#8CC63F" opacity="0.4"></path>
        </g>
    </g>
</svg>
