<svg width="488" height="394" viewBox="0 0 488 394" fill="none" xmlns="http://www.w3.org/2000/svg">
<path d="M44.9513 1.33789L34.4033 12.8383V146.157L20.5476 164V249L34.4033 260V287" stroke="#EBECEE" stroke-width="2"/>
<path d="M466.082 11.8897V121.81L478.773 134.5V193.107L466.082 205.797V316.694L440.69 342.086H421.119" stroke="#EBECEE" stroke-width="2"/>
<path d="M330.78 10V93.3896L348.391 111V134.5" stroke="#EBECEE" stroke-width="2"/>
<g filter="url(#filter0_d_40_258)">
<path d="M61.2702 145H377.827C383.35 145 387.827 149.477 387.827 155V350.72H51.2702V155C51.2702 149.477 55.7474 145 61.2702 145Z" fill="black"/>
</g>
<path d="M61.2702 145H377.827C383.35 145 387.827 149.477 387.827 155V350.72H51.2702V155C51.2702 149.477 55.7474 145 61.2702 145Z" fill="url(#paint0_linear_40_258)"/>
<path d="M367.014 156.581H73.6745C68.1517 156.581 63.6745 161.059 63.6745 166.581V327.438C63.6745 332.96 68.1517 337.438 73.6745 337.438H367.014C372.537 337.438 377.014 332.96 377.014 327.438V166.581C377.014 161.059 372.537 156.581 367.014 156.581Z" fill="url(#paint1_linear_40_258)" stroke="#EAEAEA" stroke-opacity="0.563086"/>
<path fill-rule="evenodd" clip-rule="evenodd" d="M52.7694 349.897H386.328L402.639 356.48H36.4584L52.7694 349.897Z" fill="url(#paint2_linear_40_258)"/>
<g filter="url(#filter1_d_40_258)">
<path d="M36.2653 356.48H402.859L395.737 364.16C393.466 366.608 390.278 368 386.938 368H51.8627C48.4252 368 45.1527 366.526 42.875 363.951L36.2653 356.48Z" fill="black"/>
</g>
<path d="M36.2653 356.48H402.859L395.737 364.16C393.466 366.608 390.278 368 386.938 368H51.8627C48.4252 368 45.1527 366.526 42.875 363.951L36.2653 356.48Z" fill="#DBE6F2"/>
<path fill-rule="evenodd" clip-rule="evenodd" d="M180.064 356.48H259.06C257.639 359.02 254.955 360.594 252.044 360.594H186.924C184.053 360.594 181.416 359.012 180.064 356.48Z" fill="#C0CCD9"/>
<path d="M76.9038 172.808C79.3359 172.808 81.3076 170.836 81.3076 168.404C81.3076 165.972 79.3359 164 76.9038 164C74.4716 164 72.5 165.972 72.5 168.404C72.5 170.836 74.4716 172.808 76.9038 172.808Z" fill="#FF6868"/>
<path d="M90.9038 172.808C93.3359 172.808 95.3076 170.836 95.3076 168.404C95.3076 165.972 93.3359 164 90.9038 164C88.4716 164 86.5 165.972 86.5 168.404C86.5 170.836 88.4716 172.808 90.9038 172.808Z" fill="#FFD340"/>
<path d="M105.904 172.808C108.336 172.808 110.308 170.836 110.308 168.404C110.308 165.972 108.336 164 105.904 164C103.472 164 101.5 165.972 101.5 168.404C101.5 170.836 103.472 172.808 105.904 172.808Z" fill="#5FD474"/>
<path d="M142.5 224H76.5C75.3954 224 74.5 224.895 74.5 226V323C74.5 324.105 75.3954 325 76.5 325H142.5C143.605 325 144.5 324.105 144.5 323V226C144.5 224.895 143.605 224 142.5 224Z" fill="#CDD2ED" fill-opacity="0.2"/>
<path d="M226.5 224H160.5C159.395 224 158.5 224.895 158.5 226V323C158.5 324.105 159.395 325 160.5 325H226.5C227.605 325 228.5 324.105 228.5 323V226C228.5 224.895 227.605 224 226.5 224Z" fill="#CDD2ED" fill-opacity="0.2"/>
<path d="M362.5 189.5H245.5C244.395 189.5 243.5 190.395 243.5 191.5V323C243.5 324.105 244.395 325 245.5 325H362.5C363.605 325 364.5 324.105 364.5 323V191.5C364.5 190.395 363.605 189.5 362.5 189.5Z" fill="#CDD2ED" fill-opacity="0.2"/>
<path d="M142.5 190H76.5C75.3954 190 74.5 190.895 74.5 192V212C74.5 213.105 75.3954 214 76.5 214H142.5C143.605 214 144.5 213.105 144.5 212V192C144.5 190.895 143.605 190 142.5 190Z" fill="#CDD2ED" fill-opacity="0.2"/>
<path d="M226.5 190H160.5C159.395 190 158.5 190.895 158.5 192V212C158.5 213.105 159.395 214 160.5 214H226.5C227.605 214 228.5 213.105 228.5 212V192C228.5 190.895 227.605 190 226.5 190Z" fill="#CDD2ED" fill-opacity="0.2"/>
<g filter="url(#filter2_d_40_258)">
<path d="M421.119 333.714C421.119 314.779 405.769 299.429 386.833 299.429C367.898 299.429 352.548 314.779 352.548 333.714C352.548 352.65 367.898 368 386.833 368C405.769 368 421.119 352.65 421.119 333.714Z" fill="black"/>
</g>
<path d="M421.119 333.714C421.119 314.779 405.769 299.429 386.833 299.429C367.898 299.429 352.548 314.779 352.548 333.714C352.548 352.65 367.898 368 386.833 368C405.769 368 421.119 352.65 421.119 333.714Z" fill="url(#paint3_linear_40_258)"/>
<path d="M421.119 330.286C421.119 311.35 405.769 296 386.833 296C367.898 296 352.548 311.35 352.548 330.286C352.548 349.221 367.898 364.571 386.833 364.571C405.769 364.571 421.119 349.221 421.119 330.286Z" fill="url(#paint4_linear_40_258)"/>
<path d="M388.729 312.03C388.407 312.03 387.464 312.365 387.464 312.365L374.849 318.44C374.849 318.44 374.258 318.75 374.115 318.93C373.972 319.109 373.83 319.681 373.83 319.681L370.621 333.744L370.524 334.168C370.524 334.168 370.444 334.51 370.574 334.769L370.756 335.133L371.01 335.527L380.203 346.961C380.203 346.961 380.476 347.325 380.658 347.416C380.84 347.598 381.482 347.507 381.482 347.507H395.972C395.972 347.507 396.7 347.545 396.89 347.416C397.163 347.234 397.468 346.779 397.468 346.779L406.205 335.821C406.205 335.821 406.809 335.066 406.882 334.76C406.973 334.027 406.731 333.275 406.731 333.275L403.732 320.137C403.732 320.137 403.574 319.237 403.4 318.998C403.225 318.759 402.469 318.372 402.469 318.372L390.076 312.405C390.076 312.405 389.073 312.037 388.729 312.03Z" fill="#649FFF"/>
<path d="M401.301 332.551C400.636 332.399 400.514 332.521 399.619 332.353C399.302 332.294 398.82 332.171 398.458 331.716H398.449C398.504 331.293 398.531 330.868 398.531 330.442C398.536 328.527 397.978 326.652 396.927 325.051L396.942 325.04C397.097 324.619 397.363 324.247 397.712 323.964C398.445 323.425 398.608 323.483 399.142 323.054C399.554 322.725 399.688 322.203 399.435 321.889C399.182 321.575 398.646 321.586 398.234 321.916C397.7 322.342 397.72 322.514 397.031 323.108C396.788 323.318 396.394 323.619 395.807 323.618L395.795 323.63C394.16 321.924 391.965 320.866 389.612 320.65V320.608C389.378 320.224 389.253 319.784 389.248 319.334C389.283 318.424 389.43 318.333 389.43 317.65C389.43 317.122 389.104 316.694 388.702 316.694C388.3 316.694 387.974 317.122 387.974 317.65C387.974 318.333 388.121 318.425 388.156 319.334C388.169 319.655 388.156 320.153 387.792 320.608V320.65C385.413 320.869 383.196 321.948 381.557 323.686C381.133 323.623 380.732 323.451 380.395 323.187C379.705 322.592 379.726 322.421 379.191 321.995C378.779 321.666 378.241 321.654 377.991 321.969C377.741 322.284 377.872 322.807 378.284 323.14C378.817 323.566 378.981 323.504 379.714 324.05C379.964 324.232 380.328 324.541 380.469 325.075C379.425 326.671 378.87 328.537 378.873 330.445C378.873 330.891 378.904 331.337 378.964 331.779C378.654 332.063 378.276 332.264 377.866 332.361C376.972 332.53 376.85 332.407 376.184 332.558C375.669 332.669 375.323 333.081 375.414 333.473C375.505 333.866 375.994 334.088 376.507 333.97C377.172 333.818 377.228 333.654 378.107 333.419C378.401 333.34 378.852 333.248 379.343 333.451C380.074 335.71 381.595 337.63 383.628 338.858L383.579 338.949C383.623 339.396 383.545 339.848 383.354 340.255C382.927 341.059 382.755 341.074 382.46 341.693C382.231 342.168 382.339 342.694 382.701 342.869C383.063 343.045 383.543 342.8 383.772 342.323C384.068 341.708 383.975 341.563 384.338 340.727C384.466 340.432 384.694 339.99 385.219 339.738L385.261 339.642C387.522 340.484 390.014 340.468 392.263 339.596C392.577 339.829 392.83 340.133 393.002 340.484C393.366 341.319 393.275 341.465 393.569 342.08C393.798 342.555 394.278 342.799 394.64 342.626C395.002 342.454 395.109 341.925 394.881 341.45C394.584 340.834 394.412 340.813 393.986 340.012C393.785 339.67 393.696 339.274 393.731 338.879C395.774 337.661 397.307 335.744 398.047 333.484H398.052C398.478 333.341 398.936 333.316 399.375 333.412C400.254 333.649 400.311 333.813 400.976 333.964C401.49 334.081 401.977 333.859 402.068 333.467C402.159 333.075 401.815 332.667 401.301 332.551ZM394.225 324.891C392.838 325.947 391.281 327.004 390.461 327.355C390.325 327.277 390.183 327.208 390.037 327.148C389.855 326.448 389.681 324.476 389.621 322.666C391.362 322.87 392.984 323.653 394.225 324.891ZM389.278 329.238L390.023 330.129L389.794 331.271L388.76 331.798L387.701 331.318L387.417 330.192L388.121 329.268L389.278 329.238ZM387.798 322.66C387.757 324.416 387.609 326.301 387.369 327.144C387.2 327.213 387.038 327.296 386.882 327.39C386.144 327.026 384.548 325.959 383.155 324.916C384.402 323.661 386.039 322.866 387.798 322.664V322.66ZM380.875 330.437C380.872 328.991 381.272 327.573 382.029 326.342C383.36 327.45 384.74 328.731 385.287 329.465C385.248 329.608 385.218 329.752 385.196 329.898C384.45 330.251 382.612 330.834 380.924 331.274C380.893 330.996 380.877 330.717 380.875 330.437ZM384.491 337.034C383.022 336.095 381.907 334.693 381.324 333.05C382.994 332.704 384.834 332.425 385.773 332.442C385.857 332.565 385.948 332.682 386.046 332.794C385.956 333.424 385.244 335.324 384.491 337.034ZM388.702 338.264C387.829 338.264 386.961 338.118 386.136 337.832C386.955 336.238 387.919 334.584 388.487 333.979C388.559 333.984 388.63 333.987 388.702 333.987C388.817 333.987 388.931 333.981 389.043 333.97C389.575 334.679 390.53 336.312 391.309 337.818C390.471 338.114 389.59 338.264 388.702 338.264ZM392.937 337.018C392.232 335.479 391.549 333.754 391.341 332.811C391.444 332.696 391.539 332.574 391.626 332.447C392.389 332.434 394.329 332.705 396.081 333.047C395.501 334.682 394.395 336.078 392.937 337.018ZM396.486 331.271C394.794 330.845 392.992 330.285 392.209 329.864C392.185 329.72 392.153 329.577 392.111 329.437C392.56 328.844 393.991 327.486 395.361 326.319C396.128 327.556 396.532 328.982 396.529 330.437C396.529 330.716 396.514 330.994 396.485 331.271H396.486Z" fill="#F2F2F2"/>
<g filter="url(#filter3_d_40_258)">
<path d="M440.69 179.905C440.69 147.82 414.68 121.81 382.595 121.81C350.51 121.81 324.5 147.82 324.5 179.905C324.5 211.99 350.51 238 382.595 238C414.68 238 440.69 211.99 440.69 179.905Z" fill="black"/>
</g>
<path d="M440.69 179.905C440.69 147.82 414.68 121.81 382.595 121.81C350.51 121.81 324.5 147.82 324.5 179.905C324.5 211.99 350.51 238 382.595 238C414.68 238 440.69 211.99 440.69 179.905Z" fill="url(#paint5_linear_40_258)"/>
<path d="M440.69 174.095C440.69 142.01 414.68 116 382.595 116C350.51 116 324.5 142.01 324.5 174.095C324.5 206.18 350.51 232.191 382.595 232.191C414.68 232.191 440.69 206.18 440.69 174.095Z" fill="url(#paint6_linear_40_258)"/>
<path opacity="0.3" d="M376.59 182.72H374.534V181.798C374.534 181.419 374.227 181.112 373.848 181.112H372.478C372.099 181.112 371.792 181.419 371.792 181.798V182.72H371.107C363.569 182.72 357.399 176.666 357.399 169.267C357.399 162.314 362.653 156.708 369.736 155.814C372.478 150.432 378.187 146.843 384.815 146.843C393.267 146.843 400.121 152.673 401.721 160.296C407.433 160.744 412.23 165.677 412.23 171.505C412.23 177.785 407.204 182.72 400.805 182.72H379.331V181.798C379.331 181.419 379.025 181.112 378.646 181.112H377.275C376.897 181.112 376.59 181.419 376.59 181.798V182.72ZM372.478 170.831C372.099 170.831 371.792 171.138 371.792 171.517V173.573C371.792 173.952 372.099 174.258 372.478 174.258H373.848C374.227 174.258 374.534 173.952 374.534 173.573V171.517C374.534 171.138 374.227 170.831 373.848 170.831H372.478ZM377.275 170.831C376.897 170.831 376.59 171.138 376.59 171.517V173.573C376.59 173.952 376.897 174.258 377.275 174.258H378.646C378.828 174.258 379.002 174.186 379.131 174.058C379.259 173.929 379.331 173.755 379.331 173.573V171.517C379.331 171.138 379.025 170.831 378.646 170.831H377.275Z" fill="#649FFF"/>
<path d="M371.792 168.775H397.837C399.351 168.775 400.579 170.003 400.579 171.517V173.573C400.579 175.087 399.351 176.315 397.837 176.315H371.792C370.278 176.315 369.051 175.087 369.051 173.573V171.517C369.051 170.003 370.278 168.775 371.792 168.775ZM371.792 179.056H397.837C399.351 179.056 400.579 180.284 400.579 181.798V183.854C400.579 185.368 399.351 186.596 397.837 186.596H371.792C370.278 186.596 369.051 185.368 369.051 183.854V181.798C369.051 180.284 370.278 179.056 371.792 179.056ZM371.792 189.337H397.837C399.351 189.337 400.579 190.565 400.579 192.079V194.135C400.579 195.649 399.351 196.876 397.837 196.876H371.792C370.278 196.876 369.051 195.649 369.051 194.135V192.079C369.051 190.565 370.278 189.337 371.792 189.337ZM372.478 170.831C372.099 170.831 371.792 171.138 371.792 171.517V173.573C371.792 173.952 372.099 174.258 372.478 174.258H373.848C374.227 174.258 374.534 173.952 374.534 173.573V171.517C374.534 171.138 374.227 170.831 373.848 170.831H372.478ZM377.275 170.831C376.897 170.831 376.59 171.138 376.59 171.517V173.573C376.59 173.952 376.897 174.258 377.275 174.258H378.646C378.828 174.258 379.002 174.186 379.131 174.058C379.259 173.929 379.331 173.755 379.331 173.573V171.517C379.331 171.138 379.025 170.831 378.646 170.831H377.275ZM372.478 181.112C372.099 181.112 371.792 181.419 371.792 181.798V183.854C371.792 184.232 372.099 184.539 372.478 184.539H373.848C374.227 184.539 374.534 184.232 374.534 183.854V181.798C374.534 181.419 374.227 181.112 373.848 181.112H372.478ZM372.478 191.393C372.099 191.393 371.792 191.7 371.792 192.079V194.135C371.792 194.513 372.099 194.82 372.478 194.82H373.848C374.227 194.82 374.534 194.513 374.534 194.135V192.079C374.534 191.7 374.227 191.393 373.848 191.393H372.478ZM377.275 181.112C376.897 181.112 376.59 181.419 376.59 181.798V183.854C376.59 184.232 376.897 184.539 377.275 184.539H378.646C379.025 184.539 379.331 184.232 379.331 183.854V181.798C379.331 181.419 379.025 181.112 378.646 181.112H377.275ZM377.275 191.393C376.897 191.393 376.59 191.7 376.59 192.079V194.135C376.59 194.513 376.897 194.82 377.275 194.82H378.646C379.025 194.82 379.331 194.513 379.331 194.135V192.079C379.331 191.7 379.025 191.393 378.646 191.393H377.275Z" fill="#649FFF"/>
<g filter="url(#filter4_d_40_258)">
<path d="M73.881 305.333C73.881 290.606 61.9419 278.667 47.2143 278.667C32.4867 278.667 20.5476 290.606 20.5476 305.333C20.5476 320.061 32.4867 332 47.2143 332C61.9419 332 73.881 320.061 73.881 305.333Z" fill="black"/>
</g>
<path d="M73.881 305.333C73.881 290.606 61.9419 278.667 47.2143 278.667C32.4867 278.667 20.5476 290.606 20.5476 305.333C20.5476 320.061 32.4867 332 47.2143 332C61.9419 332 73.881 320.061 73.881 305.333Z" fill="url(#paint7_linear_40_258)"/>
<path d="M73.881 302.667C73.881 287.939 61.9419 276 47.2143 276C32.4867 276 20.5476 287.939 20.5476 302.667C20.5476 317.394 32.4867 329.333 47.2143 329.333C61.9419 329.333 73.881 317.394 73.881 302.667Z" fill="url(#paint8_linear_40_258)"/>
<path d="M40.2922 309.723C39.4564 309.723 38.6988 308.992 38.6988 308.105C38.6988 307.218 39.3831 306.484 40.2934 306.484C41.2074 306.484 41.8941 307.214 41.8941 308.104C41.8941 308.993 41.1341 309.721 40.2995 309.721L40.2922 309.723ZM59.8572 300.9C59.6923 299.606 58.9408 298.552 57.9511 297.744L57.5662 297.417L57.2558 297.822C56.6522 298.552 56.4127 299.848 56.486 300.816C56.5593 301.549 56.7793 302.277 57.1629 302.843C56.8526 303.012 56.4689 303.169 56.1732 303.335C55.5098 303.561 54.8167 303.671 54.1204 303.661H34.5211L34.4478 304.143C34.2963 305.72 34.533 307.312 35.1345 308.761L35.4327 309.329V309.407C37.2655 312.646 40.528 314.103 44.0813 314.103C50.9166 314.103 56.5227 310.946 59.1803 304.146C60.9215 304.227 62.6798 303.742 63.5058 301.96L63.7258 301.555L63.3592 301.311C62.3694 300.667 61.0131 300.581 59.8768 300.907L59.8548 300.91L59.8572 300.9ZM50.0722 299.606H47.1055V302.763H50.0747V299.604L50.0722 299.608V299.606ZM50.0722 295.637H47.1055V298.794H50.0747V295.641L50.0722 295.637ZM50.0722 291.588H47.1055V294.745H50.0747V291.588H50.0722ZM53.7013 299.606H50.7516V302.763H53.7086V299.604L53.7001 299.608L53.7013 299.606ZM42.7066 299.606H39.7582V302.763H42.7176V299.604L42.7054 299.608L42.7066 299.606ZM46.409 299.606H43.4764V302.763H46.4261V299.604L46.4078 299.608L46.409 299.606ZM39.0409 299.606H36.1133V302.763H39.08V299.604L39.0434 299.608L39.0409 299.606ZM46.409 295.637H43.4764V298.794H46.4261V295.641L46.4078 295.637H46.409ZM42.6883 295.637H39.7631V298.794H42.7115V295.641L42.692 295.637H42.6883Z" fill="#649FFF"/>
<path d="M20.5795 253.659C23.1088 253.659 25.1591 251.609 25.1591 249.08C25.1591 246.55 23.1088 244.5 20.5795 244.5C18.0503 244.5 16 246.55 16 249.08C16 251.609 18.0503 253.659 20.5795 253.659Z" fill="#36E972"/>
<path d="M20 236.5C21.1046 236.5 22 235.605 22 234.5C22 233.395 21.1046 232.5 20 232.5C18.8954 232.5 18 233.395 18 234.5C18 235.605 18.8954 236.5 20 236.5Z" fill="#36E972"/>
<path d="M34.5 134.5C35.6046 134.5 36.5 133.605 36.5 132.5C36.5 131.395 35.6046 130.5 34.5 130.5C33.3954 130.5 32.5 131.395 32.5 132.5C32.5 133.605 33.3954 134.5 34.5 134.5Z" fill="#36E972"/>
<path d="M330.5 94.5C331.605 94.5 332.5 93.6046 332.5 92.5C332.5 91.3955 331.605 90.5 330.5 90.5C329.395 90.5 328.5 91.3955 328.5 92.5C328.5 93.6046 329.395 94.5 330.5 94.5Z" fill="#36E972"/>
<path d="M466.5 318.5C467.605 318.5 468.5 317.605 468.5 316.5C468.5 315.395 467.605 314.5 466.5 314.5C465.395 314.5 464.5 315.395 464.5 316.5C464.5 317.605 465.395 318.5 466.5 318.5Z" fill="#36E972"/>
<path d="M466.5 264.5C467.605 264.5 468.5 263.605 468.5 262.5C468.5 261.395 467.605 260.5 466.5 260.5C465.395 260.5 464.5 261.395 464.5 262.5C464.5 263.605 465.395 264.5 466.5 264.5Z" fill="#36E972"/>
<path d="M466.5 74.5C467.605 74.5 468.5 73.6046 468.5 72.5C468.5 71.3955 467.605 70.5 466.5 70.5C465.395 70.5 464.5 71.3955 464.5 72.5C464.5 73.6046 465.395 74.5 466.5 74.5Z" fill="#36E972"/>
<path opacity="0.197038" d="M478.58 143.08C483.55 143.08 487.58 139.05 487.58 134.08C487.58 129.109 483.55 125.08 478.58 125.08C473.609 125.08 469.58 129.109 469.58 134.08C469.58 139.05 473.609 143.08 478.58 143.08Z" fill="#36E972"/>
<path d="M478.58 138.659C481.109 138.659 483.159 136.609 483.159 134.08C483.159 131.55 481.109 129.5 478.58 129.5C476.05 129.5 474 131.55 474 134.08C474 136.609 476.05 138.659 478.58 138.659Z" fill="#36E972"/>
<defs>
<filter id="filter0_d_40_258" x="31.2702" y="142" width="376.557" height="245.72" filterUnits="userSpaceOnUse" color-interpolation-filters="sRGB">
<feFlood flood-opacity="0" result="BackgroundImageFix"/>
<feColorMatrix in="SourceAlpha" type="matrix" values="0 0 0 0 0 0 0 0 0 0 0 0 0 0 0 0 0 0 127 0" result="hardAlpha"/>
<feOffset dy="17"/>
<feGaussianBlur stdDeviation="10"/>
<feColorMatrix type="matrix" values="0 0 0 0 0.594849 0 0 0 0 0.672823 0 0 0 0 0.806404 0 0 0 0.405663 0"/>
<feBlend mode="normal" in2="BackgroundImageFix" result="effect1_dropShadow_40_258"/>
<feBlend mode="normal" in="SourceGraphic" in2="effect1_dropShadow_40_258" result="shape"/>
</filter>
<filter id="filter1_d_40_258" x="16.2653" y="342.48" width="406.594" height="51.5203" filterUnits="userSpaceOnUse" color-interpolation-filters="sRGB">
<feFlood flood-opacity="0" result="BackgroundImageFix"/>
<feColorMatrix in="SourceAlpha" type="matrix" values="0 0 0 0 0 0 0 0 0 0 0 0 0 0 0 0 0 0 127 0" result="hardAlpha"/>
<feOffset dy="6"/>
<feGaussianBlur stdDeviation="10"/>
<feColorMatrix type="matrix" values="0 0 0 0 0.594849 0 0 0 0 0.672823 0 0 0 0 0.806404 0 0 0 0.5 0"/>
<feBlend mode="normal" in2="BackgroundImageFix" result="effect1_dropShadow_40_258"/>
<feBlend mode="normal" in="SourceGraphic" in2="effect1_dropShadow_40_258" result="shape"/>
</filter>
<filter id="filter2_d_40_258" x="332.548" y="285.429" width="108.571" height="108.571" filterUnits="userSpaceOnUse" color-interpolation-filters="sRGB">
<feFlood flood-opacity="0" result="BackgroundImageFix"/>
<feColorMatrix in="SourceAlpha" type="matrix" values="0 0 0 0 0 0 0 0 0 0 0 0 0 0 0 0 0 0 127 0" result="hardAlpha"/>
<feOffset dy="6"/>
<feGaussianBlur stdDeviation="10"/>
<feColorMatrix type="matrix" values="0 0 0 0 0.594849 0 0 0 0 0.672823 0 0 0 0 0.806404 0 0 0 0.647324 0"/>
<feBlend mode="normal" in2="BackgroundImageFix" result="effect1_dropShadow_40_258"/>
<feBlend mode="normal" in="SourceGraphic" in2="effect1_dropShadow_40_258" result="shape"/>
</filter>
<filter id="filter3_d_40_258" x="304.5" y="107.81" width="156.19" height="156.19" filterUnits="userSpaceOnUse" color-interpolation-filters="sRGB">
<feFlood flood-opacity="0" result="BackgroundImageFix"/>
<feColorMatrix in="SourceAlpha" type="matrix" values="0 0 0 0 0 0 0 0 0 0 0 0 0 0 0 0 0 0 127 0" result="hardAlpha"/>
<feOffset dy="6"/>
<feGaussianBlur stdDeviation="10"/>
<feColorMatrix type="matrix" values="0 0 0 0 0.594849 0 0 0 0 0.672823 0 0 0 0 0.806404 0 0 0 0.647324 0"/>
<feBlend mode="normal" in2="BackgroundImageFix" result="effect1_dropShadow_40_258"/>
<feBlend mode="normal" in="SourceGraphic" in2="effect1_dropShadow_40_258" result="shape"/>
</filter>
<filter id="filter4_d_40_258" x="0.547623" y="264.667" width="93.3333" height="93.3333" filterUnits="userSpaceOnUse" color-interpolation-filters="sRGB">
<feFlood flood-opacity="0" result="BackgroundImageFix"/>
<feColorMatrix in="SourceAlpha" type="matrix" values="0 0 0 0 0 0 0 0 0 0 0 0 0 0 0 0 0 0 127 0" result="hardAlpha"/>
<feOffset dy="6"/>
<feGaussianBlur stdDeviation="10"/>
<feColorMatrix type="matrix" values="0 0 0 0 0.594849 0 0 0 0 0.672823 0 0 0 0 0.806404 0 0 0 0.647324 0"/>
<feBlend mode="normal" in2="BackgroundImageFix" result="effect1_dropShadow_40_258"/>
<feBlend mode="normal" in="SourceGraphic" in2="effect1_dropShadow_40_258" result="shape"/>
</filter>
<linearGradient id="paint0_linear_40_258" x1="219.549" y1="150.433" x2="219.549" y2="347.395" gradientUnits="userSpaceOnUse">
<stop stop-color="#FCFDFF"/>
<stop offset="1" stop-color="#F7FBFF"/>
</linearGradient>
<linearGradient id="paint1_linear_40_258" x1="220.344" y1="156.581" x2="220.344" y2="334.783" gradientUnits="userSpaceOnUse">
<stop stop-color="white"/>
<stop offset="1" stop-color="#F5F8FF"/>
</linearGradient>
<linearGradient id="paint2_linear_40_258" x1="219.549" y1="349.897" x2="219.549" y2="356.48" gradientUnits="userSpaceOnUse">
<stop stop-color="#F9FBFF"/>
<stop offset="1" stop-color="#F1F7FF"/>
</linearGradient>
<linearGradient id="paint3_linear_40_258" x1="386.833" y1="299.429" x2="386.833" y2="366.994" gradientUnits="userSpaceOnUse">
<stop stop-color="#F9F9F9"/>
<stop offset="1" stop-color="#E5ECF3"/>
</linearGradient>
<linearGradient id="paint4_linear_40_258" x1="386.833" y1="296" x2="386.833" y2="364.571" gradientUnits="userSpaceOnUse">
<stop stop-color="white"/>
<stop offset="0.985324" stop-color="#F9F9F9"/>
</linearGradient>
<linearGradient id="paint5_linear_40_258" x1="382.595" y1="121.81" x2="382.595" y2="236.295" gradientUnits="userSpaceOnUse">
<stop stop-color="#F9F9F9"/>
<stop offset="1" stop-color="#E5ECF3"/>
</linearGradient>
<linearGradient id="paint6_linear_40_258" x1="382.595" y1="116" x2="382.595" y2="232.191" gradientUnits="userSpaceOnUse">
<stop stop-color="white"/>
<stop offset="0.985324" stop-color="#F9F9F9"/>
</linearGradient>
<linearGradient id="paint7_linear_40_258" x1="47.2143" y1="278.667" x2="47.2143" y2="331.217" gradientUnits="userSpaceOnUse">
<stop stop-color="#F9F9F9"/>
<stop offset="1" stop-color="#E5ECF3"/>
</linearGradient>
<linearGradient id="paint8_linear_40_258" x1="47.2143" y1="276" x2="47.2143" y2="329.333" gradientUnits="userSpaceOnUse">
<stop stop-color="white"/>
<stop offset="0.985324" stop-color="#F9F9F9"/>
</linearGradient>
</defs>
</svg>
