<svg width="172" height="90" viewBox="0 0 172 90" fill="none" xmlns="http://www.w3.org/2000/svg">
<path d="M127.86 36.5796C120.74 36.5796 114.969 39.4064 114.969 42.893C114.969 46.3796 120.74 49.2064 127.86 49.2064C134.98 49.2064 140.75 46.3792 140.75 42.893C140.75 39.4068 134.978 36.5796 127.86 36.5796ZM126.062 47.7307C121.004 47.7307 116.904 45.5208 116.904 42.796C116.904 40.0712 121.003 37.8617 126.062 37.8617C131.121 37.8617 135.22 40.0705 135.22 42.7958C135.22 45.521 131.12 47.7307 126.062 47.7307ZM44.7116 36.5796C37.5929 36.5796 31.8214 39.4064 31.8214 42.893C31.8214 46.3796 37.5929 49.2064 44.7116 49.2064C51.8303 49.2064 57.6027 46.3792 57.6027 42.893C57.6027 39.4068 51.8322 36.5796 44.7116 36.5796ZM42.9135 47.7307C37.8563 47.7307 33.7554 45.5208 33.7554 42.796C33.7554 40.0712 37.8554 37.8617 42.9135 37.8617C47.9715 37.8617 52.072 40.0705 52.072 42.7958C52.072 45.521 47.9713 47.7307 42.9135 47.7307ZM101.045 36.5796C98.906 36.5671 96.7753 36.8413 94.7094 37.3948V38.51C96.1817 38.0714 97.7108 37.8532 99.2469 37.8626C104.304 37.8626 108.405 40.0716 108.405 42.7966C108.405 45.5216 104.305 47.7307 99.2474 47.7307C95.7063 47.7307 92.6401 46.6477 91.1116 45.0628V36.4287H86.4599V54.2859H91.116V46.918C94.1765 48.5185 97.5967 49.3066 101.049 49.2069C108.169 49.2069 113.939 46.3809 113.939 42.8943C113.939 39.4077 108.169 36.5813 101.049 36.5813L101.045 36.5796ZM72.7409 36.5796C70.6009 36.5668 68.4689 36.841 66.4018 37.3948V38.51C67.8743 38.0714 69.4037 37.8532 70.9402 37.8626C75.9973 37.8626 80.0983 40.0716 80.0983 42.7966C80.0983 45.5216 75.9973 47.7307 70.9402 47.7307C67.3982 47.7307 64.3285 46.6477 62.8044 45.0628V36.4287H58.1518V54.2859H62.8081V46.918C65.8686 48.5185 69.2886 49.3066 72.7409 49.2069C79.8607 49.2069 85.6322 46.3809 85.6322 42.8943C85.6322 39.4077 79.8607 36.5813 72.7409 36.5813V36.5796Z" fill="#C7D0D4"/>
</svg>
