<svg width="172" height="90" viewBox="0 0 172 90" fill="none" xmlns="http://www.w3.org/2000/svg">
<path d="M75.5321 38.4842C75.2803 38.2495 74.9579 38.1046 74.6152 38.0722C71.237 38.0407 67.8582 38.0659 64.4803 38.0323C63.8185 38.0261 63.6711 38.2614 63.6763 38.8965C63.704 42.1873 63.6893 45.4785 63.6893 48.7695C63.6893 49.8305 63.6735 50.8918 63.7025 51.9521C63.7075 52.1208 63.9077 52.4239 64.0257 52.4282C65.0768 52.4656 66.1297 52.45 67.2033 52.45C67.2158 52.239 67.2321 52.0916 67.2321 51.944C67.2364 50.277 67.2445 48.6099 67.2364 46.9428C67.2349 46.5756 67.267 46.3068 67.7255 46.3098C69.4782 46.3215 71.2308 46.3225 72.9832 46.3128C73.3675 46.3109 73.5097 46.4672 73.4931 46.8561C73.4635 47.3533 73.4648 47.8519 73.497 48.3489C73.5401 48.8771 73.3354 49.0168 72.846 49.0063C71.4952 48.9775 70.1429 49.0142 68.7921 48.9834C68.2598 48.9712 68.0937 49.1588 68.1251 49.6958C68.1675 50.4295 68.1559 51.1683 68.1251 51.9032C68.1073 52.3348 68.2631 52.4694 68.6697 52.4663C70.6542 52.4519 72.6539 52.6019 74.6168 52.3891C75.4495 52.2989 76.2125 51.4735 76.9866 50.9504C77.073 50.8929 77.0324 50.6222 77.0331 50.4503C77.0367 49.5627 77.0143 48.6742 77.0403 47.7874C77.0691 46.8235 77.1571 45.8541 75.8451 45.231C77.2623 44.6888 77.0282 43.6682 77.0348 42.7368C77.0263 42.6289 77.0271 42.5205 77.0374 42.4127C77.342 40.7774 76.6959 39.5153 75.5321 38.4842ZM73.4619 43.6938C73.4463 43.8611 73.1786 44.1355 73.0228 44.1377C71.1254 44.1686 69.2278 44.1579 67.2349 44.1579C67.2349 43.3235 67.2153 42.5898 67.2527 41.8588C67.3078 41.6808 67.4514 41.5442 67.6319 41.4979C69.448 41.4787 71.264 41.4847 73.0799 41.516C73.2153 41.5187 73.4476 41.7846 73.4604 41.9431C73.5112 42.5255 73.5117 43.1113 73.4618 43.6938H73.4619ZM106.12 38.6098C105.733 38.2444 105.397 38.0391 104.863 38.0432C101.906 38.0664 98.9498 38.0542 95.9933 38.0541H94.8452C94.8231 38.1286 94.8062 38.2046 94.7949 38.2815C94.7899 42.8506 94.7837 47.4196 94.7763 51.9884C94.7754 52.3661 94.9261 52.4788 95.2678 52.4722C96.091 52.4564 96.9169 52.424 97.7375 52.4702C98.3669 52.5057 98.5727 52.3076 98.566 51.6374C98.5335 48.3252 98.5516 45.0123 98.5516 41.5748C99.645 41.5748 100.678 41.639 101.7 41.555C102.548 41.4852 103.19 41.7048 103.598 42.4682C103.772 42.7931 103.951 43.1635 103.966 43.52C104.012 44.6439 103.981 45.7715 103.981 46.8975V48.9215H99.4956V52.4198C99.7333 52.4341 99.9396 52.4564 100.146 52.4567C102.427 52.4593 104.708 52.4394 106.988 52.4711C107.59 52.4795 107.732 52.266 107.727 51.6799C107.703 48.822 107.613 45.9575 107.762 43.1073C107.857 41.283 107.422 39.8407 106.12 38.6091V38.6098ZM89.4756 38.0588C89.1242 38.0572 89.0703 38.2622 89.0728 38.5623C89.082 39.5581 89.016 40.5588 89.0907 41.5491C89.1861 42.8095 88.5872 43.2641 87.5113 43.1931C86.4666 43.1247 85.4141 43.1787 84.4011 43.1787C84.364 43.2389 84.335 43.3037 84.3148 43.3714C84.3083 46.2507 84.3078 49.1299 84.2951 52.009C84.2934 52.4085 84.5 52.4675 84.8171 52.4648C85.8306 52.4561 86.8442 52.4465 87.8572 52.4678C88.3361 52.4776 88.4719 52.2736 88.4637 51.8045C88.4423 50.5928 88.4654 49.3801 88.468 48.1677C88.4712 46.541 88.4761 46.4542 90.0602 46.573C91.2853 46.6648 92.2378 46.3496 92.9702 45.3512C93.0786 45.2039 93.2229 45.0274 93.224 44.8634C93.2408 42.6148 93.2354 40.3662 93.2354 38.0611C91.9196 38.0603 90.6975 38.0636 89.4756 38.0581V38.0588ZM83.1103 42.8553C82.9998 42.5938 82.8351 42.3241 82.8275 42.054C82.7961 40.9082 82.7987 39.7605 82.8218 38.6142C82.831 38.166 82.6887 37.9981 82.2437 38.01C81.2317 38.0365 80.2175 38.0542 79.2065 38.0135C78.6844 37.9925 78.5719 38.1844 78.5778 38.6807C78.6004 40.6056 78.5875 42.5312 78.5794 44.4567C78.5768 45.146 79.6894 46.5076 80.3549 46.5322C81.3436 46.5683 82.3345 46.5414 83.423 46.5414C83.423 45.4563 83.4409 44.4656 83.4086 43.4771C83.4019 43.2659 83.2003 43.0678 83.1103 42.8546V42.8553ZM85.7142 25.7151C68.6722 25.7151 54.8569 34.5095 54.8569 45.3582C54.8569 56.2069 68.6719 65.0001 85.714 65.0001C102.756 65.0001 116.571 56.2055 116.571 45.3571C116.571 34.5087 102.756 25.7144 85.7139 25.7144L85.7142 25.7151ZM85.7142 61.279C69.8539 61.279 56.9968 54.1508 56.9968 45.3582C56.9968 36.5656 69.8536 29.4368 85.714 29.4368C101.574 29.4368 114.432 36.5644 114.432 45.3574C114.432 54.1504 101.574 61.2782 85.7138 61.2782L85.7142 61.279Z" fill="#C7D0D3"/>
</svg>
