<svg width="172" height="90" viewBox="0 0 172 90" fill="none" xmlns="http://www.w3.org/2000/svg">
<path d="M118.77 49.7627H111.26C107.039 49.7627 106.664 46.2821 106.664 45.2203C106.664 44.1575 107.039 40.678 111.26 40.678H118.77C122.991 40.678 123.367 44.1575 123.367 45.2203C123.367 46.2832 122.991 49.7627 118.77 49.7627ZM118.933 36.8692H111.39C103.551 36.8692 102.854 43.266 102.854 45.2203C102.854 47.1746 103.551 53.5715 111.39 53.5715H118.933C126.773 53.5715 127.47 47.1746 127.47 45.2203C127.47 43.266 126.772 36.8681 118.933 36.8681V36.8692ZM101.346 37.4541H98.9006C97.8533 37.4541 97.6383 37.6307 97.2341 38.2219C96.8289 38.8131 89.8357 49.346 89.8357 49.346C89.6123 49.6702 89.3754 49.8011 89.0814 49.8011C88.7863 49.8011 88.5505 49.6702 88.3271 49.346C88.3271 49.346 81.3318 38.8131 80.9276 38.2219C80.5245 37.6297 80.3084 37.4541 79.2611 37.4541H76.8154C76.2533 37.4541 75.9946 37.8884 76.3489 38.4183L84.7032 50.9305C85.9998 52.811 86.9505 53.5715 89.0814 53.5715C91.2113 53.5715 92.163 52.811 93.4596 50.9305L101.813 38.4183C102.166 37.8884 101.909 37.4541 101.346 37.4541ZM69.1541 38.4764C69.1541 37.744 69.4398 37.4541 70.1619 37.4541H71.9572C72.6783 37.4541 72.964 37.745 72.964 38.4764V52.5492C72.964 53.2816 72.6783 53.5715 71.9572 53.5715H70.1609C69.4398 53.5715 69.1541 53.2806 69.1541 52.5492V38.4764ZM69.0045 34.0172C68.4227 33.4354 68.4227 32.9751 69.0045 32.3933L70.2471 31.1507C70.8289 30.5689 71.2892 30.5689 71.871 31.1507L73.1146 32.3933C73.6954 32.9751 73.6954 33.4354 73.1146 34.0172L71.871 35.2598C71.2892 35.8416 70.8289 35.8416 70.2471 35.2598L69.0055 34.0182L69.0045 34.0172ZM65.2892 37.4541H62.8466C61.8004 37.4541 61.5842 37.6307 61.1811 38.2219C60.777 38.8131 53.79 49.346 53.79 49.346C53.5676 49.6692 53.3307 49.8011 53.0367 49.8011C52.7427 49.8011 52.5068 49.6692 52.2835 49.346C52.2835 49.346 45.2965 38.812 44.8933 38.2219C44.4892 37.6307 44.2741 37.4541 43.2279 37.4541H40.7853C40.1578 37.4541 39.9645 37.8884 40.3188 38.4183L48.6637 50.9305C49.9583 52.811 50.9089 53.5715 53.0378 53.5715C55.1645 53.5715 56.1152 52.811 57.4097 50.9305L65.7546 38.4183C66.1079 37.8884 65.9167 37.4541 65.2892 37.4541Z" fill="#C7D0D4"/>
</svg>
