<svg width="172" height="90" viewBox="0 0 172 90" fill="none" xmlns="http://www.w3.org/2000/svg">
<path d="M82.5151 32.6054C82.0557 32.6054 81.5964 32.7892 81.137 33.1566C80.7696 33.5241 80.494 33.8916 80.4021 34.4428C80.3102 34.9021 80.4021 35.3614 80.6777 35.7289C80.9533 36.0964 81.3208 36.2801 81.872 36.2801C82.3313 36.2801 82.7907 36.0964 83.1581 35.7289C83.5256 35.3614 83.8012 34.994 83.8931 34.4428C83.9849 33.9834 83.8931 33.5241 83.6175 33.1566C83.4337 32.7892 83.0663 32.6054 82.5151 32.6054ZM106.676 39.3117C106.401 38.7605 105.849 38.3931 105.206 38.2093C104.563 38.0256 103.92 37.8419 103.277 37.8419C102.45 37.8419 101.715 38.0256 100.889 38.3931C100.062 38.7605 99.3268 39.3117 98.5 40.1386C98.4081 39.9548 98.3163 39.7711 98.2244 39.4955C98.1325 39.2199 97.8569 38.9443 97.6732 38.7605C97.3976 38.4849 97.0301 38.3012 96.5708 38.1175C96.1114 37.9337 95.5602 37.8419 94.9172 37.8419C94.6416 37.8419 94.366 37.8419 93.9985 37.9337C93.631 37.9337 93.2636 38.0256 92.8961 38.2093C92.5286 38.3931 92.0693 38.5768 91.6099 38.8524C91.1506 39.128 90.5994 39.5873 90.1401 40.0467C90.1401 39.863 90.2319 39.5873 90.2319 39.4036C90.2319 39.128 90.2319 38.9443 90.1401 38.6687C90.0482 38.4849 89.9563 38.2093 89.6807 38.1175C89.4051 37.9337 89.1295 37.8419 88.762 37.8419C88.4864 37.8419 88.3027 37.9337 88.0271 38.0256C87.7515 38.1175 87.5678 38.3012 87.384 38.3931C87.1084 38.5768 86.9247 38.8524 86.8328 39.2199C86.741 39.5873 86.6491 40.0467 86.5572 40.6898L84.9955 49.6009C84.9036 50.244 84.8117 50.7952 84.8117 51.1627C84.8117 51.5301 84.9036 51.8976 85.0873 52.1732C85.2711 52.3569 85.4548 52.5407 85.6386 52.6325C85.8223 52.7244 86.0979 52.8163 86.3735 52.8163C86.6491 52.8163 86.9247 52.7244 87.1084 52.6325C87.384 52.5407 87.5678 52.3569 87.7515 52.2651C88.0271 51.9895 88.2108 51.7139 88.3946 51.3464C88.4864 50.9789 88.5783 50.4277 88.762 49.7846L89.497 45.6506C89.5889 45.1913 89.6807 44.6401 89.7726 44.0889C89.8645 43.5377 90.1401 42.9864 90.4157 42.5271C90.6913 42.0678 91.0587 41.7003 91.5181 41.3328C91.9774 41.0572 92.6205 40.8735 93.3554 40.8735C93.9066 40.8735 94.2741 40.9654 94.4578 41.1491C94.7334 41.3328 94.8253 41.6084 94.9172 41.9759C95.009 42.3434 95.009 42.7108 94.9172 43.1702C94.8253 43.6295 94.7334 44.1807 94.6416 44.7319L93.7229 49.7846C93.631 50.1521 93.631 50.5196 93.5392 50.887C93.4473 51.2545 93.5392 51.622 93.5392 51.8976C93.631 52.1732 93.7229 52.4488 93.9066 52.6325C94.0904 52.8163 94.4578 52.9081 94.9172 52.9081C95.1928 52.9081 95.3765 52.9081 95.6521 52.8163C95.9277 52.7244 96.1114 52.6325 96.387 52.3569C96.6626 52.0813 96.8464 51.8057 97.0301 51.4383C97.122 51.0708 97.2139 50.5196 97.3976 49.7846L98.1325 45.7425C98.2244 45.2831 98.3163 44.9157 98.3163 44.6401C98.4081 44.3645 98.5 43.997 98.5 43.8133C98.5919 43.5377 98.6837 43.3539 98.7756 43.1702C98.8675 42.9864 98.9593 42.8027 99.0512 42.5271C99.3268 42.0678 99.6943 41.7003 100.154 41.4247C100.613 41.1491 101.164 40.9654 101.807 40.9654C102.358 40.9654 102.726 41.0572 102.91 41.241C103.185 41.4247 103.369 41.7003 103.369 42.0678C103.461 42.4352 103.461 42.8027 103.369 43.1702C103.277 43.6295 103.277 43.997 103.185 44.4563L102.267 49.7846C102.175 50.4277 102.083 50.9789 102.083 51.3464C102.083 51.7139 102.175 52.0813 102.358 52.3569C102.542 52.5407 102.726 52.7244 102.91 52.8163C103.093 52.9081 103.369 53 103.645 53C103.92 53 104.196 52.9081 104.38 52.8163C104.655 52.7244 104.839 52.5407 105.023 52.4488C105.298 52.1732 105.482 51.8976 105.666 51.5301C105.758 51.1627 105.849 50.6114 106.033 49.8765L107.136 43.5377C107.227 43.0783 107.319 42.619 107.319 42.2515C107.319 41.884 107.411 41.5166 107.319 41.241C107.319 40.9654 107.227 40.6898 107.136 40.4142C106.952 39.863 106.86 39.5873 106.676 39.3117ZM61.9367 35.7289C62.0286 35.5452 62.0286 35.4533 62.1205 35.2696C62.2123 35.0858 62.2123 34.9021 62.3042 34.7184C62.3961 34.5346 62.3961 34.3509 62.3961 34.259C62.488 33.7997 62.3961 33.4322 62.1205 33.0648C61.8449 32.6973 61.4774 32.5136 60.8343 32.5136C60.375 32.5136 60.0075 32.6973 59.5482 32.9729C59.2726 33.1566 58.997 33.4322 58.8133 33.7997C58.6295 34.1672 58.4458 34.6265 58.1702 35.2696L53.5768 46.753L52.5663 36.0045C52.5663 35.637 52.4744 35.3614 52.4744 35.0858C52.4744 34.8102 52.3825 34.5346 52.3825 34.3509C52.2907 34.1672 52.2907 33.9834 52.1988 33.7997C52.1069 33.616 52.1069 33.5241 51.9232 33.3404C51.8313 33.1566 51.5557 32.9729 51.2801 32.7892C50.9127 32.6054 50.637 32.5136 50.1777 32.5136C49.7184 32.5136 49.259 32.6054 48.8916 32.7892C48.5241 32.9729 48.2485 33.1566 48.1566 33.2485C47.881 33.5241 47.6054 33.8916 47.4217 34.259C47.238 34.6265 46.9623 35.1777 46.6867 35.9127L42.0015 46.6611L41.4503 35.1777C41.4503 34.8102 41.3584 34.4428 41.3584 34.0753C41.3584 33.7078 41.2666 33.4322 41.1747 33.2485C41.0828 32.9729 40.8991 32.7892 40.7154 32.6973C40.5316 32.5136 40.1642 32.5136 39.7967 32.5136C39.2455 32.5136 38.7861 32.6973 38.3268 33.0648C37.9593 33.4322 37.6837 33.7997 37.5919 34.259C37.5919 34.4428 37.5919 34.5346 37.5 34.8102V36.0964L38.4187 49.3253C38.4187 49.8765 38.5105 50.3358 38.5105 50.7952C38.5105 51.2545 38.6943 51.622 38.7861 51.8976C38.9699 52.1732 39.1536 52.4488 39.4292 52.6325C39.7048 52.8163 40.0723 52.9081 40.5316 52.9081C40.991 52.9081 41.4503 52.8163 41.7259 52.6325C42.0934 52.4488 42.369 52.2651 42.6446 51.8976C42.9202 51.622 43.1039 51.2545 43.2877 50.7952C43.4714 50.3358 43.6551 49.8765 43.9307 49.4172L49.259 37.5663L50.3614 49.4172C50.3614 49.8765 50.4533 50.3358 50.5452 50.7952C50.637 51.2545 50.7289 51.622 50.8208 51.8976C51.0045 52.1732 51.1883 52.4488 51.4639 52.6325C51.7395 52.8163 52.1069 52.9081 52.5663 52.9081C53.0256 52.9081 53.4849 52.8163 53.7605 52.6325C54.128 52.4488 54.4036 52.2651 54.5873 51.8976C54.863 51.622 55.0467 51.2545 55.2304 50.7952C55.4142 50.3358 55.6898 49.8765 55.8735 49.3253L61.4774 36.0964C61.8449 36.0045 61.8449 35.8208 61.9367 35.7289ZM128.173 24.1536L127.989 22.5C122.386 23.1431 118.16 27.7364 117.976 33.3404H119.63C119.813 28.747 123.396 24.8886 128.173 24.1536ZM82.5151 38.2093C82.2395 38.0256 81.9639 37.9337 81.5045 37.9337C81.2289 37.9337 80.9533 38.0256 80.7696 38.1175C80.494 38.2093 80.3102 38.3931 80.1265 38.4849C79.8509 38.7605 79.6672 39.0361 79.4834 39.4036C79.3916 39.7711 79.2997 40.3223 79.116 40.9654L77.5542 49.7846C77.4624 50.4277 77.3705 50.9789 77.3705 51.3464C77.3705 51.7139 77.4623 51.9895 77.6461 52.2651C77.9217 52.6325 78.381 52.8163 78.9322 52.8163C79.2078 52.8163 79.4834 52.7244 79.759 52.6325C80.0346 52.5407 80.2184 52.3569 80.4021 52.2651C80.6777 51.9895 80.8614 51.7139 81.0452 51.3464C81.137 50.9789 81.2289 50.4277 81.4127 49.7846L82.9744 40.8735C83.0663 40.4142 83.0663 40.0467 83.1581 39.6792C83.1581 39.3117 83.1581 39.0361 83.0663 38.7605C82.9744 38.5768 82.7907 38.3931 82.5151 38.2093ZM74.8901 40.2304C74.5226 39.5873 73.8795 39.0361 73.1446 38.5768C72.3178 38.1175 71.3072 37.9337 70.0211 37.9337C68.7349 37.9337 67.6325 38.1175 66.7139 38.5768C65.7033 38.9443 64.8765 39.4955 64.1416 40.2304C63.4066 40.8735 62.8554 41.7003 62.3961 42.619C61.9367 43.5377 61.6611 44.4563 61.4774 45.375C61.3855 45.6506 61.3855 46.1099 61.2937 46.6611C61.2937 47.2123 61.2937 47.7636 61.3855 48.4066C61.4774 49.0497 61.753 49.6009 62.0286 50.244C62.3961 50.887 62.8554 51.3464 63.4985 51.8057C63.7741 51.9895 64.1416 52.1732 64.509 52.2651L65.6114 52.5407C65.9789 52.6325 66.3464 52.6325 66.622 52.7244H67.5407C68.6431 52.7244 69.6536 52.5407 70.4804 52.2651C71.3072 51.9895 72.0422 51.622 72.5934 51.1627C73.1446 50.7033 73.6039 50.3358 73.8795 49.8765C74.1551 49.4172 74.3389 49.0497 74.4307 48.7741C74.5226 48.4985 74.4307 48.2229 74.1551 48.0392C73.9714 47.8554 73.6958 47.7636 73.3283 47.7636C73.0527 47.7636 72.7771 47.8554 72.5015 47.9473C72.2259 48.131 71.9503 48.3148 71.491 48.6822C71.3991 48.7741 71.2154 48.9578 70.9398 49.1416C70.756 49.3253 70.4804 49.509 70.113 49.6928C69.7455 49.8765 69.378 50.0602 69.0105 50.1521C68.6431 50.244 68.1837 50.3358 67.7244 50.3358C67.3569 50.3358 66.8976 50.244 66.5301 50.1521C66.1627 49.9684 65.7952 49.7846 65.4277 49.509C65.1521 49.2334 64.8765 48.7741 64.7846 48.2229C64.6009 47.6717 64.6009 47.0286 64.7846 46.2937H72.9608C73.3283 46.2937 73.6958 46.2018 73.9714 46.0181C74.3389 45.8343 74.6145 45.6506 74.7982 45.375C75.0738 45.0994 75.2575 44.6401 75.3494 44.0889C75.4413 43.6295 75.4413 42.9864 75.3494 42.2515C75.5331 41.5166 75.2575 40.8735 74.8901 40.2304ZM72.0422 44.1807H65.3358C65.4277 43.9051 65.5196 43.6295 65.7033 43.262C65.7952 42.8946 65.9789 42.5271 66.2545 42.2515C66.622 41.7003 67.0813 41.3328 67.5407 40.9654C68.0919 40.5979 68.6431 40.506 69.378 40.506C69.8373 40.506 70.2967 40.5979 70.756 40.8735C71.2154 41.0572 71.5828 41.5166 71.8584 42.0678C72.0422 42.4352 72.0422 42.7108 72.134 43.0783C72.134 43.262 72.134 43.6295 72.0422 44.1807ZM123.029 40.1386C122.569 39.4955 121.926 38.8524 121.099 38.4849C120.273 38.0256 119.17 37.8419 117.976 37.8419C116.69 37.8419 115.587 38.0256 114.669 38.4849C113.658 38.8524 112.831 39.4036 112.096 40.1386C111.361 40.7816 110.81 41.6084 110.351 42.5271C109.892 43.4458 109.616 44.3645 109.432 45.2831C109.248 46.1099 109.248 47.0286 109.34 47.8554C109.432 48.7741 109.708 49.509 110.167 50.244C110.627 50.9789 111.27 51.5301 112.096 51.9895C112.923 52.4488 114.117 52.6325 115.495 52.6325C116.598 52.6325 117.7 52.4488 118.619 52.0813C119.538 51.7139 120.456 51.1627 121.191 50.5196C121.926 49.8765 122.569 49.0497 123.029 48.131C123.488 47.2123 123.855 46.2937 124.039 45.1913C124.223 44.2726 124.223 43.3539 124.131 42.4352C123.855 41.7003 123.488 40.8735 123.029 40.1386ZM120.181 45.2831C119.905 46.8449 119.354 48.0392 118.527 48.7741C117.7 49.6009 116.782 49.9684 115.679 49.9684C114.577 49.9684 113.842 49.6009 113.291 48.7741C112.739 47.9473 112.648 46.8449 112.923 45.2831C113.199 43.7214 113.75 42.619 114.485 41.7922C115.312 40.9654 116.23 40.5979 117.333 40.5979C118.435 40.5979 119.17 40.9654 119.721 41.7922C120.364 42.619 120.456 43.8133 120.181 45.2831Z" fill="#C7D0D4"/>
<path d="M128.816 25.8991C124.315 25.8991 121.467 29.9413 121.467 33.5241L123.12 33.7078C123.212 30.7681 124.774 27.9202 129 27.4609L128.816 25.8991ZM140.483 40.1386C140.116 39.4955 139.565 38.9443 138.83 38.485C138.095 38.1175 137.268 37.8419 136.166 37.8419C135.523 37.8419 134.88 37.9337 134.42 38.1175C133.869 38.3012 133.41 38.485 132.95 38.6687C132.491 38.8524 132.123 39.128 131.848 39.4036C131.48 39.6792 131.205 39.9548 131.021 40.1386L131.848 35.3615C131.94 34.994 131.94 34.6265 132.032 34.259V33.3404C131.94 33.0648 131.848 32.881 131.572 32.6973C131.389 32.5136 131.021 32.4217 130.562 32.4217C130.286 32.4217 129.919 32.5136 129.551 32.6973C129.184 32.881 128.908 33.1566 128.633 33.616C128.541 33.8916 128.449 34.0753 128.357 34.3509C128.265 34.6265 128.265 34.994 128.173 35.4533L125.601 49.8765C125.509 50.4277 125.417 50.8871 125.417 51.3464C125.417 51.7139 125.509 52.0813 125.693 52.2651C125.876 52.4488 126.06 52.5407 126.244 52.6325C126.428 52.7244 126.703 52.7244 126.887 52.7244C127.346 52.7244 127.714 52.6325 127.989 52.4488C128.265 52.2651 128.449 52.0813 128.633 51.8976C128.816 51.7139 128.908 51.4383 129 51.2545C129.092 50.9789 129.092 50.7952 129.184 50.7033L129.276 50.3359C129.459 50.6115 129.643 50.7952 129.827 51.1627C130.011 51.4383 130.286 51.7139 130.654 51.9895C131.021 52.2651 131.389 52.4488 131.848 52.6325C132.307 52.8163 132.95 52.9081 133.593 52.9081C134.604 52.9081 135.523 52.7244 136.349 52.2651C137.176 51.8976 137.911 51.3464 138.554 50.6115C139.197 49.8765 139.748 49.1416 140.116 48.2229C140.575 47.3042 140.851 46.2937 141.035 45.2831C141.218 44.3645 141.218 43.4458 141.126 42.619C141.126 41.5166 140.851 40.7816 140.483 40.1386ZM137.36 45.2831C137.268 45.8344 137.176 46.3856 136.992 46.753C136.809 47.1205 136.717 47.488 136.533 47.7636C136.349 48.0392 136.166 48.3148 135.982 48.4985L135.523 48.9578C135.063 49.4172 134.604 49.6928 134.236 49.7847C133.869 49.8765 133.501 49.9684 133.134 49.9684C132.675 49.9684 132.307 49.8765 131.848 49.6928C131.48 49.509 131.113 49.2334 130.837 48.866C130.562 48.4985 130.378 48.0392 130.286 47.488C130.194 46.9368 130.194 46.2018 130.378 45.4669C130.654 43.997 131.205 42.8027 131.94 41.9759C132.767 41.1491 133.685 40.6898 134.788 40.6898C135.247 40.6898 135.614 40.7816 136.074 40.9654C136.441 41.1491 136.717 41.4247 136.992 41.7922C137.268 42.1597 137.36 42.619 137.452 43.2621C137.544 43.8133 137.452 44.4563 137.36 45.2831Z" fill="#C7D0D4"/>
<path d="M129.276 30.9518V29.2982C125.233 29.4819 124.958 32.5135 124.958 33.8916H126.611C126.428 32.2379 127.346 30.8599 129.276 30.9518Z" fill="#C7D0D4"/>
</svg>
