<svg width="172" height="90" viewBox="0 0 172 90" fill="none" xmlns="http://www.w3.org/2000/svg">
<path opacity="0.560987" d="M103.879 53.6816H100.959C100.809 53.6816 100.688 53.7953 100.688 53.9362V56.6219C100.688 56.7628 100.809 56.8764 100.959 56.8764H103.879C104.028 56.8764 104.149 56.7628 104.149 56.6219V53.9362C104.149 53.7953 104.028 53.6816 103.879 53.6816Z" fill="#5D6972"/>
<path d="M79.2235 48.3474H77.5106C77.3615 48.3474 77.2411 48.4662 77.2411 48.6129V56.2974C76.3495 55.3012 70.4354 48.7012 70.2863 48.5439C70.1239 48.3778 69.9115 48.3474 69.7736 48.3474H68.0782C67.9291 48.3474 67.8087 48.4662 67.8087 48.6129V59.2284C67.8087 59.3775 67.9294 59.496 68.0782 59.496H69.7911C69.9402 59.496 70.0606 59.3775 70.0606 59.2284V51.4813C70.707 52.1995 76.9235 59.1381 77.0747 59.2979C77.2345 59.464 77.4469 59.496 77.5872 59.496H79.2235C79.3747 59.496 79.4951 59.3775 79.4951 59.2284V48.6129C79.4951 48.4662 79.3747 48.3474 79.2235 48.3474ZM65.4055 48.3474H63.4955C63.3464 48.3474 63.2261 48.4662 63.2261 48.6129V59.2284C63.2261 59.3775 63.3467 59.496 63.4955 59.496H65.4055C65.5545 59.496 65.6754 59.3775 65.6754 59.2284V48.6129C65.6754 48.4662 65.5545 48.3474 65.4055 48.3474ZM58.9879 53.867C58.987 54.0152 58.8664 54.1347 58.7182 54.1343H52.9284V50.3101H58.7179C58.8649 50.3101 58.9876 50.4288 58.9876 50.5755L58.9879 53.867ZM57.6993 48.3474H50.7293C50.5802 48.3474 50.4578 48.4662 50.4578 48.6129V59.2284C50.4578 59.3775 50.5802 59.496 50.7293 59.496H52.6592C52.8083 59.496 52.9281 59.3775 52.9281 59.2284V56.0969H57.6993C59.8353 56.0969 61.5677 54.8526 61.5677 52.9801V51.7382C61.5677 49.8657 59.8353 48.3474 57.6993 48.3474ZM121.803 48.3474H120.092C119.941 48.3474 119.82 48.4662 119.82 48.6129V56.2974C118.929 55.3012 113.014 48.7012 112.866 48.5439C112.705 48.3778 112.493 48.3474 112.353 48.3474H110.657C110.511 48.3474 110.39 48.4662 110.39 48.6129V59.2284C110.39 59.3775 110.511 59.496 110.657 59.496H112.37C112.52 59.496 112.642 59.3775 112.642 59.2284V51.4813C113.288 52.1995 119.503 59.1381 119.654 59.2979C119.816 59.464 120.027 59.496 120.169 59.496H121.803C121.952 59.496 122.075 59.3775 122.075 59.2284V48.6129C122.075 48.4662 121.952 48.3474 121.803 48.3474ZM89.1248 48.1946H85.1794C83.0418 48.1946 81.3065 49.7105 81.3065 51.5827V56.2543C81.3065 58.1264 83.0418 59.6426 85.1794 59.6426H89.125C91.2629 59.6426 92.9953 58.1264 92.9953 56.2543V53.2586H87.0111V54.8331C87.0111 54.9777 87.1309 55.0986 87.28 55.0986H90.5574V57.2638C90.5574 57.4103 90.4368 57.529 90.2877 57.529H84.0165C83.8656 57.529 83.745 57.4105 83.745 57.2638V50.5755C83.745 50.4288 83.8656 50.3101 84.0165 50.3101H90.2879C90.437 50.3101 90.5574 50.4288 90.5574 50.5755V51.8566C90.5574 52.0036 90.6782 52.1218 90.8273 52.1218H92.7264C92.8752 52.1218 92.9955 52.0036 92.9955 51.8566V51.5824C92.9955 49.7108 91.2631 48.1946 89.125 48.1946H89.1248ZM103.907 48.6408C103.799 48.4531 103.628 48.3301 103.416 48.3301H101.727C101.514 48.3301 101.343 48.4531 101.234 48.6408L95.9132 58.9611C95.7356 59.2955 95.889 59.4941 96.2023 59.4941H97.8889C98.1341 59.4941 98.2262 59.4294 98.3487 59.2007L102.572 50.8969L106.791 59.2007C106.916 59.4294 107.008 59.4941 107.253 59.4941H108.94C109.253 59.4941 109.407 59.2955 109.227 58.9611L103.907 48.6408ZM117.031 38.2643C117.031 38.8131 116.93 39.2436 116.251 39.5913C115.704 39.8703 114.801 40.3072 113.99 40.6975C113.177 40.3072 112.274 39.8703 111.727 39.5913C111.048 39.2436 110.947 38.8131 110.947 38.2643V37.6712H117.031L117.031 38.2643ZM122.039 35.7157H119.431V34.5805C119.431 34.4042 119.291 34.2636 119.118 34.2636H117.343C117.171 34.2636 117.033 34.4042 117.033 34.5805L117.031 35.7157H110.947V34.5805C110.948 34.497 110.915 34.4166 110.857 34.3572C110.798 34.2977 110.718 34.2641 110.635 34.2636H108.859C108.686 34.2636 108.549 34.4042 108.549 34.5805L108.547 35.7157H105.939C105.773 35.7157 105.637 35.8536 105.637 36.0235V37.3634C105.637 37.533 105.773 37.6712 105.939 37.6712H108.547V38.5056C108.547 39.4778 108.984 40.3963 110.153 40.9762C110.597 41.199 111.146 41.469 111.731 41.7544C110.691 42.1849 109.773 42.3832 108.803 42.3832H106.339C106.166 42.3832 106.026 42.5257 106.026 42.7001V44.0201C106.026 44.196 106.166 44.339 106.339 44.339H108.763C109.732 44.339 110.919 44.1295 111.922 43.748C112.331 43.5919 113.102 43.2442 113.99 42.8313C114.875 43.244 115.647 43.5919 116.056 43.7482C117.059 44.1295 118.246 44.3393 119.217 44.3393H121.641C121.812 44.3393 121.951 44.196 121.951 44.0201V42.7001C121.951 42.5257 121.812 42.3832 121.641 42.3832H119.175C118.205 42.3832 117.286 42.1849 116.248 41.7544C116.775 41.4976 117.3 41.2382 117.824 40.9762C118.994 40.3963 119.431 39.4778 119.431 38.5056V37.6712H122.039C122.205 37.6712 122.341 37.533 122.341 37.3634V36.0235C122.341 35.8536 122.205 35.7157 122.039 35.7157H122.039ZM100.55 34.1367C100.308 34.1367 100.117 34.266 100.039 34.4242L98.0034 38.4696C97.9225 38.6259 98.021 38.7553 98.1783 38.7553H100.222C100.469 38.7553 100.657 38.6259 100.736 38.4696L102.771 34.4245C102.852 34.266 102.754 34.1367 102.596 34.1367H100.55ZM83.3395 42.4077H71.4146V32.654H83.3392L83.3395 42.4077ZM83.9316 30.8745H70.8223C69.8406 30.8745 69.0473 31.6857 69.0473 32.6849V42.5196C69.0473 43.5206 69.8406 44.3299 70.8223 44.3299H83.9316C84.9135 44.3299 85.7071 43.5206 85.7071 42.5196V32.6849C85.7071 31.6857 84.9135 30.8745 83.9316 30.8745ZM106.05 34.3462H107.462C107.631 34.3462 107.766 34.2077 107.766 34.0363V33.1356H120.212V34.0363C120.212 34.208 120.347 34.3464 120.513 34.3464H121.928C122.093 34.3464 122.229 34.208 122.229 34.0363V33.0038C122.229 32.1253 121.532 31.4139 120.671 31.4139H115.308V30.6647C115.308 30.4951 115.173 30.3569 115.004 30.3569H112.971C112.805 30.3569 112.67 30.4951 112.67 30.6647V31.4139H107.305C106.446 31.4139 105.746 32.1253 105.746 33.0038V34.0363C105.745 34.1178 105.777 34.1964 105.834 34.2546C105.891 34.3128 105.969 34.3459 106.051 34.3464L106.05 34.3462ZM64.1177 39.8705H59.5252V34.3446H64.1177V39.8705ZM56.7598 39.8705H52.1665V34.3446H56.7595L56.7598 39.8705ZM64.8501 32.3398H59.5246V30.7185C59.5246 30.5465 59.3894 30.4086 59.2232 30.4086H57.0633C56.9819 30.4092 56.9041 30.4422 56.8471 30.5003C56.7901 30.5584 56.7586 30.6368 56.7595 30.7182V32.3396H51.434C50.4548 32.3396 49.6591 33.1489 49.6591 34.1502V40.0644C49.6591 41.0657 50.4548 41.875 51.434 41.875H56.7595V44.4239C56.7586 44.5053 56.7901 44.5836 56.847 44.6417C56.904 44.6998 56.9817 44.7329 57.063 44.7336H59.2232C59.3894 44.7336 59.5246 44.5954 59.5246 44.4237V41.8747H64.8498C65.8317 41.8747 66.6251 41.0654 66.6251 40.0641V34.15C66.6251 33.1489 65.8317 32.3396 64.8498 32.3396L64.8501 32.3398ZM82.122 38.9068H80.3252V39.6205H78.5436V38.0215H81.6106V36.5099H78.5436V35.4037H82.122V33.7623H72.6324V35.4037H76.2111V36.5099H73.1441V38.0215H76.2111V39.6205H72.6324V41.264H82.122V38.9068ZM91.4652 38.7555H93.5094C93.6664 38.7555 93.7649 38.6262 93.684 38.4699L91.6492 34.4247C91.5701 34.2663 91.3798 34.1369 91.1375 34.1369H89.0912C88.9341 34.1369 88.8356 34.2663 88.9163 34.4245L90.9514 38.4699C91.0302 38.6262 91.2179 38.7555 91.4652 38.7555ZM103.797 39.8231H97.1645V33.0712H103.257C103.425 33.0712 103.561 32.9327 103.561 32.761V31.4538C103.561 31.284 103.425 31.146 103.257 31.146H88.4307C88.2645 31.146 88.1293 31.284 88.1293 31.4538V32.7605C88.1293 32.9322 88.2645 33.0707 88.4307 33.0707H94.5256V39.8229H87.891C87.7246 39.8229 87.5891 39.9613 87.5891 40.133V41.5111C87.5891 41.6807 87.7249 41.8188 87.891 41.8188H94.5256V44.4234C94.5256 44.5951 94.6614 44.7333 94.8272 44.7333H96.8602C96.9417 44.7327 97.0196 44.6997 97.0766 44.6415C97.1337 44.5834 97.1652 44.5049 97.1642 44.4234V41.8188H103.797C103.965 41.8188 104.1 41.6807 104.1 41.5111V40.133C104.1 39.9613 103.965 39.8229 103.797 39.8229L103.797 39.8231Z" fill="#C7D0D4"/>
</svg>
