<svg width="45" height="45" viewBox="0 0 45 45" fill="none" xmlns="http://www.w3.org/2000/svg">
<path d="M39.7876 19.2344C39.3346 10.1645 31.8063 2.90874 22.5549 2.90874C13.3945 2.90874 5.86626 10.1645 5.41274 19.2349C3.96167 20.5044 2.96411 22.6815 2.96411 24.8581C2.96411 27.7607 4.68721 31.2069 7.4083 31.2069C9.85737 31.2069 9.85737 28.4858 9.85737 24.8581C9.85737 21.5024 9.85737 18.7813 8.2248 18.5089C9.04131 11.2531 15.1181 5.62983 22.5554 5.62983C29.9021 5.62983 36.0699 11.1625 36.8859 18.3274C35.2534 18.8714 35.2534 21.3205 35.2534 24.6762C35.2534 27.1248 35.2534 28.8483 35.7069 30.0274C33.5298 33.474 30.3557 35.9227 26.365 36.9207C25.639 35.9231 24.1879 35.1976 22.4648 35.1976C20.0162 35.1976 18.0207 36.4671 18.0207 37.9186C18.0207 39.3697 20.0162 40.6397 22.4648 40.6397C24.9135 40.6397 26.909 39.3697 26.909 37.9186C30.8087 36.9206 34.2554 34.2 36.4324 30.8443C36.7044 31.1164 37.158 31.1164 37.702 31.1164C40.4231 31.1164 42.1462 27.6697 42.1462 24.7676C42.2367 22.6811 41.2392 20.504 39.7876 19.2344Z" fill="white"/>
<path d="M16.6503 23.8601C17.6483 23.8601 18.3739 23.044 18.3739 22.137V17.8743C18.3739 16.8763 17.5578 16.1508 16.6503 16.1508C15.7433 16.1508 14.9272 16.9668 14.9272 17.8743V22.137C14.9268 23.044 15.6528 23.8601 16.6503 23.8601ZM30.4458 22.046V17.7829C30.4458 16.7854 29.6292 16.0598 28.7227 16.0598C27.8161 16.0598 26.9991 16.8763 26.9991 17.7829V22.046C26.9991 23.044 27.8156 23.7696 28.7227 23.7696C29.6297 23.7696 30.4458 23.044 30.4458 22.046Z" fill="white"/>
</svg>
