<svg width="34" height="35" viewBox="0 0 34 35" fill="none" xmlns="http://www.w3.org/2000/svg">
<path d="M9.60078 15.498C11.5859 19.568 14.7828 22.9102 18.6758 24.9855L21.6922 21.832C22.0531 21.4547 22.6203 21.3199 23.0844 21.4816C24.6313 22.0207 26.307 22.2902 28.0086 22.2902C28.7563 22.2902 29.375 22.9371 29.375 23.7188V28.732C29.375 29.5137 28.7563 30.1606 28.0086 30.1606C15.0922 30.1875 4.625 19.2445 4.625 5.74102C4.625 4.95937 5.24375 4.3125 5.99141 4.3125H10.8125C11.5602 4.3125 12.1789 4.93242 12.1789 5.71406C12.1789 7.51992 12.4625 9.24492 12.9523 10.8621C13.107 11.3742 13.0039 11.9133 12.6172 12.3176L9.60078 15.498Z" fill="#578CFF"/>
</svg>
