<svg width="26" height="30" viewBox="0 0 26 30" fill="none" xmlns="http://www.w3.org/2000/svg">
    <path d="M10.767 8.44653L11.5821 9.26163L8.50851 12.3352C7.07415 13.7721 7.04759 16.0826 8.42808 17.5511L8.50772 17.6333L17.7188 26.8251C18.4208 27.5284 19.3737 27.9236 20.3675 27.9236C21.3612 27.9236 22.3142 27.5284 23.0169 26.8244C23.7202 26.1223 24.1155 25.1694 24.1155 24.1757C24.1155 23.2233 23.7525 22.3085 23.1029 21.6157L23.0166 21.5266L16.8687 15.3787L17.6838 14.5636L23.8313 20.7111C24.7512 21.6294 25.2682 22.8759 25.2682 24.1757C25.2682 25.4755 24.7512 26.7219 23.832 27.6395C22.9137 28.5594 21.6673 29.0764 20.3675 29.0764C19.1141 29.0764 17.9103 28.5957 17.0033 27.7372L16.9037 27.6403L7.69269 18.4485C5.81288 16.5653 5.78256 13.5345 7.60208 11.614L7.69305 11.5205L10.767 8.44653Z" fill="#43494E"/>
    <g opacity="0.5">
    <path opacity="0.5" d="M5.35529 4.19727C6.60868 4.19727 7.81245 4.67795 8.71988 5.5368L8.81947 5.63378L14.6257 11.44C16.5055 13.3231 16.5358 16.354 14.7151 18.2757L14.6241 18.3693L11.5501 21.424L10.7376 20.6064L13.8099 17.5533C15.2442 16.1164 15.2708 13.8059 13.8899 12.337L13.8102 12.2548L8.00401 6.44851C7.30196 5.74521 6.34902 5.34999 5.35529 5.34999C4.36155 5.34999 3.40862 5.74521 2.70584 6.44924C2.00253 7.15129 1.60731 8.10423 1.60731 9.09796C1.60731 10.0503 1.97028 10.9652 2.61986 11.658L2.7062 11.747L5.49579 14.5366L4.68069 15.3517L1.89147 12.5625C0.97154 11.6442 0.45459 10.3978 0.45459 9.09796C0.45459 7.79815 0.97154 6.5517 1.89074 5.63415C2.80902 4.71422 4.05547 4.19727 5.35529 4.19727Z" fill="#43494E"/>
    <path opacity="0.5" d="M11.6204 8.44627L10.0101 6.83594L9.19563 7.65166C9.50286 7.95795 9.67519 8.3731 9.67519 8.80605C9.67519 9.239 9.50286 9.65414 9.19625 9.95981L1.84579 17.4256C-0.0340818 19.3158 -0.0534534 22.3669 1.80428 24.2829L1.83003 24.3117C3.76192 26.2421 6.86051 26.2421 8.77322 24.3318L14.6327 18.3723C16.5376 16.4617 16.5376 13.3654 14.6299 11.4519L11.6204 8.44627ZM10.7894 9.26742L10.7919 9.24783L13.8145 12.2666C15.2728 13.7294 15.2728 16.0977 13.8136 17.5613L7.95494 23.5199C6.49597 24.977 4.12646 24.977 2.6638 23.5162L2.64455 23.494C1.2116 22.0156 1.22641 19.6831 2.66517 18.2364L10.0139 10.7723C10.4242 10.3633 10.694 9.83535 10.7894 9.26742Z" fill="#43494E"/>
    </g>
    <path d="M7.69327 18.4413L12.3036 23.0517L13.1193 22.2372C12.4812 21.5981 12.4812 20.563 13.1193 19.9239L23.7814 9.27723L23.8717 9.18476C25.6475 7.31751 25.666 4.38663 23.914 2.49697L23.8502 2.42981L23.8456 2.42388C23.8299 2.40481 23.8133 2.3865 23.7958 2.36902L23.7816 2.35611C21.8701 0.446076 18.7726 0.446076 16.8612 2.35611L7.69314 11.5203C6.77484 12.4376 6.25879 13.6826 6.25879 14.9807L6.26076 15.1196C6.29616 16.3674 6.80764 17.5566 7.69327 18.4413ZM22.9587 3.16371L22.9641 3.17173L23.0003 3.20878C24.4303 4.67302 24.4155 7.01548 22.967 8.46149L12.3042 19.1088L12.2333 19.1825C11.8636 19.5803 11.6315 20.0597 11.5369 20.5598L11.5229 20.6409L8.50815 17.626C7.80595 16.9245 7.41151 15.973 7.41151 14.9807C7.41151 13.9885 7.80595 13.037 8.50793 12.3357L17.676 3.17144C19.1102 1.73828 21.418 1.71174 22.8847 3.09188L22.9587 3.16371Z" fill="#43494E"/>
    </svg>
