<svg width="1913" height="472" viewBox="0 0 1913 472" fill="none" xmlns="http://www.w3.org/2000/svg">
<g clip-path="url(#clip0_27_111)">
<mask id="mask0_27_111" style="mask-type:alpha" maskUnits="userSpaceOnUse" x="-11" y="0" width="1934" height="472">
<path d="M-6 0V26C313.622 83.9725 634.491 112.959 956.608 112.959C1047.99 112.959 1139.38 110.626 1230.76 105.96L1243.36 120.967C1244.42 122.236 1246.31 122.402 1247.58 121.337L1265.97 105.91C1266.57 105.404 1266.92 104.711 1267.01 103.987C1485.67 91.3467 1704.33 65.3511 1923 26L1917 27.074V412.884L1913.34 412.228C1594.41 355.409 1275.5 327 956.608 327C634.491 327 313.622 355.986 -6 413.959V472H-11V0H-6ZM1290.8 160.978C1289.74 159.708 1287.84 159.543 1286.57 160.608L1281.98 164.465C1280.71 165.53 1280.54 167.422 1281.61 168.691L1285.46 173.287C1286.53 174.557 1288.42 174.722 1289.69 173.657L1294.29 169.8C1295.56 168.735 1295.72 166.843 1294.66 165.574L1290.8 160.978ZM1244.05 136.16C1242.98 134.891 1241.09 134.725 1239.82 135.79L1232.16 142.218C1230.89 143.283 1230.73 145.175 1231.79 146.445L1238.22 154.105C1239.28 155.374 1241.18 155.54 1242.44 154.475L1250.1 148.047C1251.37 146.982 1251.54 145.09 1250.47 143.82L1244.05 136.16ZM1286.91 114.298C1285.84 113.029 1283.95 112.863 1282.68 113.928L1264.3 129.355C1263.03 130.42 1262.86 132.313 1263.93 133.582L1279.36 151.967C1280.42 153.236 1282.31 153.402 1283.58 152.337L1301.97 136.91C1303.24 135.845 1303.4 133.952 1302.34 132.683L1286.91 114.298Z" fill="white"/>
</mask>
<g mask="url(#mask0_27_111)">
<path d="M-6 0V26C313.622 83.9725 634.491 112.959 956.608 112.959C1047.99 112.959 1139.38 110.626 1230.76 105.96L1243.36 120.967C1244.42 122.236 1246.31 122.402 1247.58 121.337L1265.97 105.91C1266.57 105.404 1266.92 104.711 1267.01 103.987C1485.67 91.3467 1704.33 65.3511 1923 26L1917 27.074V412.884L1913.34 412.228C1594.41 355.409 1275.5 327 956.608 327C634.491 327 313.622 355.986 -6 413.959V472H-11V0H-6ZM1290.8 160.978C1289.74 159.708 1287.84 159.543 1286.57 160.608L1281.98 164.465C1280.71 165.53 1280.54 167.422 1281.61 168.691L1285.46 173.287C1286.53 174.557 1288.42 174.722 1289.69 173.657L1294.29 169.8C1295.56 168.735 1295.72 166.843 1294.66 165.574L1290.8 160.978ZM1244.05 136.16C1242.98 134.891 1241.09 134.725 1239.82 135.79L1232.16 142.218C1230.89 143.283 1230.73 145.175 1231.79 146.445L1238.22 154.105C1239.28 155.374 1241.18 155.54 1242.44 154.475L1250.1 148.047C1251.37 146.982 1251.54 145.09 1250.47 143.82L1244.05 136.16ZM1286.91 114.298C1285.84 113.029 1283.95 112.863 1282.68 113.928L1264.3 129.355C1263.03 130.42 1262.86 132.313 1263.93 133.582L1279.36 151.967C1280.42 153.236 1282.31 153.402 1283.58 152.337L1301.97 136.91C1303.24 135.845 1303.4 133.952 1302.34 132.683L1286.91 114.298Z" fill="#48D5A3"/>
<path d="M1266.89 90.027L1250.63 73.7635C1249.46 72.592 1247.56 72.592 1246.38 73.7635L1230.12 90.027C1228.95 91.1986 1228.95 93.0981 1230.12 94.2696L1246.38 110.533C1247.56 111.705 1249.46 111.705 1250.63 110.533L1266.89 94.2696C1268.06 93.0981 1268.06 91.1986 1266.89 90.027Z" fill="#48D5A3"/>
<path opacity="0.7" d="M1301.08 59.3418L1284.63 49.8418C1283.19 49.0134 1281.36 49.505 1280.53 50.9399L1271.03 67.3944C1270.2 68.8292 1270.69 70.664 1272.13 71.4924L1288.58 80.9924C1290.02 81.8209 1291.85 81.3292 1292.68 79.8944L1302.18 63.4399C1303.01 62.005 1302.52 60.1702 1301.08 59.3418Z" fill="#35C491"/>
<path opacity="0.3" d="M1311.69 17.4316L1299 23.3482C1297.5 24.0485 1296.85 25.8334 1297.55 27.335L1303.46 40.0233C1304.17 41.5249 1305.95 42.1746 1307.45 41.4744L1320.14 35.5577C1321.64 34.8575 1322.29 33.0726 1321.59 31.571L1315.67 18.8826C1314.97 17.381 1313.19 16.7314 1311.69 17.4316Z" fill="#35C491"/>
<path opacity="0.2" d="M1318.9 46.2981L1315.04 50.8944C1313.98 52.1636 1314.15 54.0559 1315.41 55.1209L1320.01 58.9776C1321.28 60.0426 1323.17 59.877 1324.24 58.6078L1328.09 54.0116C1329.16 52.7423 1328.99 50.8501 1327.72 49.7851L1323.13 45.9283C1321.86 44.8633 1319.97 45.0289 1318.9 46.2981Z" fill="#35C491"/>
<path opacity="0.2" d="M1331.9 6.2981L1328.04 10.8944C1326.98 12.1636 1327.15 14.0559 1328.41 15.1209L1333.01 18.9776C1334.28 20.0426 1336.17 19.877 1337.24 18.6078L1341.09 14.0116C1342.16 12.7423 1341.99 10.8501 1340.72 9.78506L1336.13 5.92833C1334.86 4.86333 1332.97 5.02888 1331.9 6.2981Z" fill="#35C491"/>
<path opacity="0.2" d="M1287.67 16.1817L1283.73 16.8763C1282.1 17.164 1281.01 18.72 1281.3 20.3516L1281.99 24.2909C1282.28 25.9226 1283.84 27.0121 1285.47 26.7243L1289.41 26.0298C1291.04 25.742 1292.13 24.1861 1291.84 22.5544L1291.15 18.6152C1290.86 16.9835 1289.3 15.894 1287.67 16.1817Z" fill="#35C491"/>
</g>
</g>
<defs>
<clipPath id="clip0_27_111">
<rect width="1913" height="472" fill="white"/>
</clipPath>
</defs>
</svg>
