<svg width="843" height="441" viewBox="0 0 843 441" fill="none" xmlns="http://www.w3.org/2000/svg">
<path d="M679.051 321.353L678.571 321.793C679.851 322.873 680.871 323.893 681.631 324.853L682.111 324.373C681.291 323.373 680.271 322.353 679.051 321.353ZM678.711 326.073L678.251 326.533C679.491 327.553 680.491 328.533 681.251 329.473L681.731 328.993C680.931 328.013 679.911 327.033 678.711 326.073ZM681.711 331.533C680.811 333.973 679.751 336.373 678.511 338.713L679.151 338.993C680.311 336.753 681.371 334.333 682.311 331.773L681.711 331.533ZM683.111 324.433V325.113H687.871C687.591 327.553 687.171 329.673 686.611 331.473C685.811 330.153 684.931 328.773 683.971 327.313L683.431 327.653C684.491 329.233 685.451 330.773 686.331 332.253C686.211 332.593 686.071 332.933 685.931 333.273C685.051 335.153 683.711 336.873 681.931 338.453L682.371 339.013C684.231 337.373 685.631 335.513 686.571 333.453L686.751 332.993C687.611 334.493 688.371 335.953 689.031 337.353L689.571 336.953C688.891 335.513 688.031 333.913 687.031 332.193C687.651 330.333 688.151 327.973 688.511 325.113H689.571V324.433H687.011C686.651 323.133 686.251 321.973 685.831 320.973L685.151 321.093C685.591 322.073 685.991 323.193 686.351 324.433H683.111ZM691.191 322.573V335.253H691.831V322.573H691.191ZM693.551 338.853C694.551 338.853 695.071 338.313 695.071 337.253V320.893H694.391V337.073C694.391 337.853 694.031 338.253 693.311 338.253C692.531 338.253 691.711 338.233 690.851 338.193L690.991 338.853H693.551ZM711.891 328.353H701.891V335.293H702.571V328.993H711.231V335.213H711.891V328.353ZM706.471 330.613V331.933C706.431 333.613 705.871 334.993 704.751 336.073C703.471 337.113 701.431 337.933 698.591 338.493L699.011 339.113C701.871 338.473 703.931 337.633 705.191 336.573C706.471 335.413 707.111 333.853 707.131 331.933V330.613H706.471ZM713.371 338.673C714.131 338.673 714.671 338.513 715.011 338.193C715.411 337.773 715.671 336.753 715.791 335.113L715.151 334.913C715.031 336.413 714.831 337.333 714.511 337.653C714.271 337.893 713.851 338.013 713.251 338.013H709.711C709.051 338.013 708.731 337.673 708.731 337.033V333.033H708.071V337.173C708.071 338.173 708.551 338.673 709.511 338.673H713.371ZM703.751 320.793V327.213H704.411V320.793H703.751ZM699.811 321.673V326.893H700.471V321.673H699.811ZM708.971 323.233H715.751V322.573H709.291C709.531 322.013 709.751 321.433 709.971 320.813L709.311 320.653C708.571 322.893 707.471 324.693 706.031 326.033L706.551 326.513C707.471 325.653 708.291 324.553 708.971 323.233ZM710.751 324.293L710.271 324.693C711.491 325.493 712.631 326.413 713.711 327.493L714.151 326.993C713.111 325.953 711.971 325.053 710.751 324.293ZM720.111 321.753V326.073H725.691V321.753H720.111ZM725.031 325.453H720.771V322.373H725.031V325.453ZM728.511 321.753V326.073H734.131V321.753H728.511ZM733.471 325.453H729.171V322.373H733.471V325.453ZM718.371 328.673V329.313H724.651C723.171 330.893 720.931 332.153 717.931 333.073L718.251 333.653C721.491 332.653 723.911 331.213 725.491 329.313H729.071C730.391 331.073 732.711 332.493 736.031 333.553L736.331 332.933C733.311 332.053 731.131 330.853 729.791 329.313H735.851V328.673H733.011C732.651 327.993 732.251 327.353 731.791 326.753L731.171 326.953C731.571 327.453 731.951 328.033 732.291 328.673H725.971C726.371 328.093 726.691 327.473 726.971 326.813L726.311 326.733C726.031 327.413 725.651 328.053 725.191 328.673H718.371ZM725.931 333.073H720.411V339.013H721.051V337.993H725.271V339.013H725.931V333.073ZM721.051 337.373V333.713H725.271V337.373H721.051ZM734.151 333.073H728.311V339.013H728.971V337.993H733.491V339.013H734.151V333.073ZM728.971 337.373V333.713H733.491V337.373H728.971Z" fill="white"/>
<path d="M646.614 400.266C658.946 400.266 668.943 390.269 668.943 377.937C668.943 365.605 658.946 355.608 646.614 355.608C634.282 355.608 624.285 365.605 624.285 377.937C624.285 390.269 634.282 400.266 646.614 400.266Z" fill="#2E3B49" stroke="#4E575F" stroke-width="2" stroke-dasharray="3 3"/>
<path d="M656.476 383.264C656.175 383.425 655.862 383.565 655.542 383.682C654.52 384.065 653.437 384.261 652.346 384.261C648.136 384.261 644.469 381.368 644.469 377.647C644.477 376.632 645.036 375.702 645.928 375.217C642.119 375.377 641.14 379.347 641.14 381.67C641.14 388.248 647.201 388.916 648.51 388.916C649.213 388.916 650.272 388.711 650.913 388.507L651.029 388.471C653.482 387.625 655.574 385.967 656.957 383.771C657.062 383.606 657.014 383.388 656.85 383.282C656.737 383.209 656.595 383.203 656.476 383.264Z" fill="#0F5197"/>
<path d="M645.323 387.794C644.531 387.302 643.844 386.657 643.302 385.898C642.051 384.185 641.621 382.006 642.128 379.946C642.634 377.886 644.025 376.155 645.928 375.217C646.352 374.987 646.826 374.865 647.308 374.861C648.209 374.871 649.054 375.298 649.596 376.018C649.955 376.5 650.155 377.082 650.165 377.683C650.165 377.665 652.346 370.597 643.044 370.597C639.137 370.597 635.923 374.309 635.923 377.558C635.909 379.279 636.276 380.982 637.001 382.543C639.456 387.775 645.438 390.341 650.922 388.515C649.04 389.105 646.994 388.842 645.323 387.794Z" fill="#0C88DA"/>
<path d="M649.471 379.561C649.4 379.65 649.177 379.783 649.177 380.068C649.177 380.3 649.329 380.522 649.596 380.709C650.877 381.599 653.29 381.484 653.298 381.484C654.247 381.482 655.178 381.227 655.995 380.745C657.67 379.767 658.7 377.975 658.701 376.036C658.728 374.042 657.989 372.716 657.696 372.128C657.215 371.189 656.585 370.333 655.832 369.594C654.908 368.693 653.833 367.961 652.656 367.433C650.973 366.682 649.15 366.298 647.308 366.307C641.078 366.306 636.002 371.311 635.915 377.54C635.959 374.291 639.19 371.666 643.035 371.666C643.347 371.666 645.127 371.692 646.774 372.565C648.225 373.33 648.99 374.247 649.515 375.164C650.067 376.116 650.165 377.309 650.165 377.79C650.165 378.27 649.925 378.973 649.471 379.561Z" fill="#2CC3D5"/>
<path d="M650.374 366.644C650.374 366.644 658.668 375.217 649.293 379.849C649.293 379.849 648.687 380.856 651.582 381.377C651.582 381.377 656.379 382.419 658.315 378.204C658.705 376.883 659.052 374.834 658.021 372.555C657.59 371.625 657.012 370.77 656.308 370.024C655.568 369.211 654.721 368.502 653.791 367.916C652.267 367.138 650.374 366.644 650.374 366.644Z" fill="#49D668"/>
<path d="M702.437 400.266C714.769 400.266 724.766 390.269 724.766 377.937C724.766 365.605 714.769 355.608 702.437 355.608C690.105 355.608 680.108 365.605 680.108 377.937C680.108 390.269 690.105 400.266 702.437 400.266Z" fill="#2E3B49" stroke="#4E575F" stroke-width="2" stroke-dasharray="3 3"/>
<path d="M694.025 370.277C699.322 364.112 709.147 365.328 712.818 372.532H703.992C702.402 372.532 701.376 372.496 700.264 373.081C698.957 373.77 697.971 375.046 697.626 376.543L694.025 370.278V370.277Z" fill="#EA4335"/>
<path d="M698.878 377.704C698.878 379.793 700.577 381.493 702.665 381.493C704.755 381.493 706.453 379.793 706.453 377.704C706.453 375.614 704.754 373.914 702.665 373.914C700.576 373.914 698.878 375.614 698.878 377.704Z" fill="#4285F4"/>
<path d="M704.136 382.665C702.009 383.296 699.522 382.595 698.159 380.243C697.118 378.448 694.369 373.659 693.12 371.482C688.745 378.187 692.516 387.327 700.459 388.886L704.135 382.665H704.136Z" fill="#34A853"/>
<path d="M706.183 373.914C707.947 375.56 708.343 378.204 707.141 380.295C706.238 381.852 703.353 386.721 701.955 389.078C710.139 389.583 716.107 381.562 713.411 373.913H706.183V373.914Z" fill="#FBBC05"/>
<path d="M761.051 400.266C773.383 400.266 783.38 390.269 783.38 377.937C783.38 365.605 773.383 355.608 761.051 355.608C748.719 355.608 738.721 365.605 738.721 377.937C738.721 390.269 748.719 400.266 761.051 400.266Z" fill="#2E3B49" stroke="#4E575F" stroke-width="2" stroke-dasharray="3 3"/>
<path d="M772.856 377.792C772.856 382.061 770.578 386.006 766.881 388.141C763.184 390.275 758.629 390.275 754.931 388.141C751.234 386.006 748.957 382.061 748.957 377.792C748.957 371.192 754.307 365.842 760.907 365.842C767.506 365.842 772.856 371.192 772.856 377.792Z" fill="#F0F0F0"/>
<path d="M771.92 377.792C771.92 383.875 766.988 388.806 760.906 388.806C754.823 388.806 749.892 383.875 749.892 377.792C749.892 371.709 754.823 366.778 760.906 366.778C766.988 366.778 771.92 371.709 771.92 377.792Z" fill="#107DDD"/>
<path d="M760.746 367.513C760.746 367.424 760.817 367.352 760.906 367.352C760.995 367.352 761.067 367.424 761.067 367.513V369.366C761.067 369.454 760.995 369.526 760.906 369.526C760.817 369.526 760.746 369.454 760.746 369.366V367.513ZM759.823 367.419C759.865 367.415 759.908 367.428 759.941 367.454C759.974 367.481 759.995 367.52 759.999 367.562L760.08 368.337C760.085 368.379 760.072 368.422 760.045 368.455C760.018 368.488 759.98 368.509 759.937 368.513C759.895 368.518 759.852 368.505 759.819 368.478C759.786 368.452 759.765 368.413 759.761 368.37L759.68 367.596C759.675 367.553 759.688 367.511 759.715 367.478C759.742 367.444 759.781 367.423 759.823 367.419ZM761.964 367.42C761.888 367.427 761.828 367.487 761.82 367.563L761.738 368.338C761.729 368.396 761.753 368.455 761.801 368.49C761.848 368.526 761.911 368.533 761.965 368.508C762.019 368.483 762.055 368.43 762.058 368.371L762.14 367.597C762.145 367.549 762.128 367.501 762.094 367.467C762.06 367.432 762.012 367.415 761.964 367.42ZM758.744 367.579C758.786 367.57 758.829 367.578 758.865 367.601C758.901 367.624 758.926 367.661 758.934 367.703L759.318 369.515C759.336 369.602 759.281 369.687 759.194 369.705C759.107 369.723 759.022 369.668 759.004 369.581L758.62 367.769C758.611 367.727 758.619 367.684 758.643 367.648C758.666 367.612 758.702 367.587 758.744 367.579ZM763.043 367.577C762.967 367.576 762.901 367.63 762.885 367.704L762.5 369.516C762.481 369.603 762.537 369.688 762.624 369.707C762.711 369.725 762.796 369.67 762.814 369.583L763.199 367.771C763.209 367.724 763.197 367.675 763.167 367.637C763.137 367.6 763.091 367.578 763.043 367.577ZM757.683 367.873C757.724 367.86 757.768 367.863 757.806 367.883C757.844 367.902 757.872 367.936 757.885 367.976L758.126 368.717C758.144 368.772 758.131 368.832 758.093 368.874C758.054 368.917 757.996 368.936 757.94 368.924C757.884 368.912 757.838 368.871 757.821 368.817L757.58 368.076C757.567 368.035 757.57 367.991 757.59 367.953C757.609 367.915 757.643 367.886 757.683 367.873ZM764.067 367.866C764.003 367.872 763.948 367.915 763.928 367.977L763.687 368.718C763.669 368.772 763.682 368.832 763.721 368.875C763.759 368.918 763.817 368.936 763.873 368.925C763.929 368.913 763.975 368.872 763.993 368.817L764.234 368.076C764.25 368.025 764.24 367.969 764.207 367.926C764.173 367.884 764.121 367.862 764.067 367.866ZM756.666 368.252C756.705 368.235 756.749 368.233 756.789 368.249C756.829 368.264 756.861 368.295 756.878 368.334L757.63 370.027C757.659 370.106 757.622 370.195 757.545 370.229C757.467 370.263 757.376 370.232 757.337 370.157L756.584 368.464C756.567 368.425 756.566 368.381 756.581 368.341C756.596 368.302 756.627 368.27 756.666 368.252ZM765.097 368.244C765.032 368.243 764.973 368.281 764.947 368.34L764.193 370.031C764.165 370.084 764.17 370.148 764.204 370.197C764.238 370.245 764.296 370.272 764.355 370.264C764.415 370.257 764.465 370.218 764.486 370.162L765.241 368.471C765.263 368.421 765.259 368.364 765.23 368.319C765.201 368.273 765.151 368.245 765.097 368.244ZM755.691 368.76C755.768 368.716 755.866 368.742 755.911 368.819L756.3 369.493C756.322 369.53 756.328 369.574 756.317 369.615C756.306 369.656 756.279 369.692 756.241 369.713C756.205 369.734 756.161 369.74 756.12 369.729C756.079 369.718 756.044 369.691 756.022 369.654L755.633 368.979C755.611 368.942 755.605 368.898 755.616 368.857C755.628 368.816 755.655 368.781 755.691 368.76ZM766.029 368.739C765.976 368.742 765.928 368.772 765.902 368.819L765.512 369.493C765.491 369.53 765.485 369.574 765.496 369.615C765.507 369.656 765.534 369.692 765.571 369.713C765.608 369.734 765.651 369.74 765.693 369.729C765.734 369.718 765.769 369.691 765.79 369.654L766.179 368.979C766.209 368.928 766.208 368.864 766.177 368.814C766.145 368.764 766.089 368.735 766.029 368.739ZM754.776 369.342C754.802 369.323 754.833 369.313 754.865 369.311C754.918 369.309 754.969 369.334 755 369.378L756.088 370.877C756.141 370.949 756.124 371.049 756.052 371.101C756.018 371.126 755.975 371.136 755.933 371.13C755.891 371.123 755.853 371.1 755.828 371.065L754.741 369.566C754.715 369.532 754.705 369.489 754.712 369.447C754.718 369.405 754.741 369.367 754.776 369.342ZM766.959 369.319C766.905 369.317 766.854 369.342 766.823 369.386L765.733 370.883C765.688 370.955 765.706 371.049 765.775 371.099C765.843 371.149 765.939 371.137 765.993 371.072L767.083 369.574C767.108 369.54 767.119 369.497 767.112 369.455C767.105 369.413 767.082 369.375 767.048 369.35C767.022 369.331 766.991 369.32 766.959 369.319ZM753.929 370.04C753.96 370.012 754.002 369.997 754.045 369.999C754.087 370.001 754.127 370.02 754.155 370.052L754.677 370.631C754.705 370.663 754.72 370.705 754.718 370.747C754.716 370.79 754.697 370.83 754.665 370.858C754.633 370.887 754.592 370.902 754.549 370.899C754.506 370.897 754.466 370.878 754.438 370.846L753.917 370.267C753.857 370.201 753.863 370.1 753.929 370.04ZM767.769 370C767.726 370.003 767.687 370.022 767.658 370.053L767.136 370.632C767.108 370.664 767.093 370.706 767.095 370.748C767.098 370.791 767.117 370.831 767.148 370.859C767.18 370.888 767.222 370.903 767.264 370.901C767.307 370.899 767.347 370.879 767.375 370.847L767.897 370.269C767.925 370.237 767.94 370.195 767.938 370.153C767.936 370.11 767.917 370.07 767.885 370.042C767.853 370.013 767.812 369.998 767.769 370ZM753.147 370.808C753.176 370.776 753.216 370.757 753.258 370.754V370.755C753.301 370.752 753.343 370.767 753.374 370.796L754.751 372.035C754.817 372.094 754.822 372.196 754.762 372.262C754.703 372.328 754.601 372.333 754.536 372.274L753.159 371.035C753.093 370.975 753.088 370.874 753.147 370.808ZM768.559 370.76C768.516 370.758 768.475 370.772 768.443 370.801L767.066 372.04C767.007 372.1 767.006 372.196 767.062 372.259C767.119 372.322 767.214 372.33 767.28 372.278L768.658 371.04C768.707 370.997 768.725 370.928 768.703 370.867C768.681 370.805 768.624 370.763 768.559 370.76ZM752.469 371.662C752.5 371.618 752.551 371.594 752.604 371.595C752.636 371.597 752.667 371.608 752.693 371.626L753.323 372.084C753.358 372.109 753.381 372.147 753.388 372.189C753.395 372.231 753.384 372.274 753.359 372.308C753.334 372.343 753.296 372.366 753.254 372.373C753.212 372.38 753.169 372.369 753.135 372.344L752.504 371.886C752.47 371.861 752.446 371.823 752.44 371.781C752.433 371.739 752.444 371.696 752.469 371.662ZM769.213 371.602C769.181 371.603 769.15 371.613 769.124 371.632L768.493 372.09C768.447 372.123 768.422 372.179 768.428 372.236C768.434 372.293 768.47 372.343 768.522 372.366C768.574 372.389 768.635 372.383 768.681 372.349L769.312 371.892C769.347 371.867 769.37 371.829 769.377 371.787C769.383 371.745 769.373 371.702 769.348 371.668C769.317 371.624 769.266 371.599 769.213 371.602ZM751.865 372.572C751.886 372.535 751.921 372.508 751.963 372.497C752.004 372.486 752.048 372.492 752.085 372.514L753.688 373.44C753.738 373.469 753.769 373.522 753.769 373.579C753.769 373.636 753.738 373.689 753.689 373.718C753.639 373.747 753.578 373.747 753.528 373.718L751.924 372.792C751.887 372.77 751.86 372.735 751.849 372.694C751.838 372.653 751.844 372.609 751.865 372.572ZM769.819 372.492C769.787 372.49 769.755 372.498 769.727 372.514L768.123 373.44C768.074 373.469 768.043 373.522 768.043 373.579C768.043 373.636 768.074 373.689 768.123 373.718C768.173 373.747 768.234 373.747 768.284 373.718L769.888 372.792C769.95 372.756 769.981 372.685 769.965 372.616C769.949 372.547 769.889 372.497 769.819 372.492ZM751.381 373.544C751.398 373.504 751.431 373.474 751.47 373.459C751.51 373.443 751.555 373.445 751.593 373.463L752.305 373.78C752.381 373.819 752.413 373.91 752.378 373.988C752.343 374.066 752.254 374.104 752.174 374.073L751.462 373.756C751.423 373.738 751.393 373.706 751.378 373.666C751.363 373.627 751.364 373.582 751.381 373.544ZM770.284 373.455C770.263 373.455 770.242 373.46 770.222 373.469L769.51 373.786C769.429 373.822 769.392 373.916 769.429 373.998C769.446 374.037 769.478 374.068 769.518 374.083C769.557 374.098 769.602 374.097 769.641 374.079L770.353 373.762C770.421 373.731 770.459 373.655 770.442 373.581C770.426 373.507 770.36 373.455 770.284 373.455ZM750.98 374.558C750.993 374.517 751.022 374.484 751.06 374.464C751.098 374.445 751.142 374.442 751.183 374.455L752.944 375.029C752.998 375.047 753.039 375.092 753.051 375.148C753.063 375.205 753.044 375.263 753.001 375.301C752.959 375.339 752.899 375.352 752.844 375.334L751.083 374.76C751.043 374.747 751.009 374.719 750.99 374.681C750.97 374.643 750.967 374.599 750.98 374.558ZM770.695 374.454C770.674 374.453 770.652 374.455 770.632 374.462L768.87 375.034C768.791 375.065 768.749 375.153 768.776 375.234C768.802 375.315 768.887 375.362 768.97 375.34L770.731 374.767C770.804 374.744 770.851 374.672 770.842 374.596C770.834 374.52 770.772 374.46 770.695 374.454ZM750.705 375.624C750.72 375.549 750.787 375.496 750.863 375.497C750.873 375.497 750.884 375.498 750.895 375.5L751.657 375.662C751.713 375.674 751.759 375.715 751.776 375.77C751.794 375.824 751.781 375.884 751.743 375.927C751.704 375.969 751.646 375.988 751.59 375.976L750.828 375.814C750.787 375.805 750.75 375.78 750.727 375.745C750.704 375.709 750.696 375.666 750.705 375.624ZM770.95 375.498C770.939 375.499 770.928 375.5 770.917 375.501L770.155 375.663C770.114 375.672 770.077 375.697 770.054 375.733C770.031 375.769 770.023 375.812 770.032 375.854C770.04 375.896 770.065 375.932 770.101 375.956C770.137 375.979 770.18 375.987 770.222 375.978L770.984 375.816C771.026 375.807 771.062 375.782 771.086 375.746C771.109 375.711 771.117 375.667 771.108 375.626C771.092 375.551 771.026 375.497 770.95 375.498ZM750.524 376.695C750.534 376.607 750.613 376.543 750.701 376.552L752.543 376.747C752.585 376.751 752.624 376.772 752.651 376.805C752.678 376.839 752.69 376.881 752.686 376.923C752.681 376.966 752.66 377.005 752.627 377.031C752.594 377.058 752.552 377.071 752.509 377.066L750.667 376.871C750.579 376.862 750.515 376.783 750.524 376.695ZM771.146 376.566C771.135 376.564 771.124 376.564 771.113 376.566L769.27 376.758C769.185 376.771 769.125 376.848 769.134 376.934C769.143 377.019 769.218 377.083 769.304 377.077L771.146 376.885C771.228 376.877 771.291 376.808 771.29 376.725C771.29 376.643 771.228 376.574 771.146 376.566ZM750.477 377.792C750.477 377.703 750.548 377.632 750.637 377.632H751.416C751.506 377.632 751.577 377.703 751.577 377.792C751.577 377.881 751.506 377.953 751.416 377.953H750.637C750.595 377.953 750.554 377.936 750.524 377.906C750.494 377.876 750.477 377.835 750.477 377.792ZM770.396 377.632C770.353 377.632 770.312 377.648 770.282 377.679C770.252 377.709 770.235 377.75 770.235 377.792C770.235 377.881 770.307 377.953 770.396 377.953H771.175C771.218 377.953 771.259 377.936 771.289 377.906C771.319 377.876 771.336 377.835 771.335 377.792C771.336 377.75 771.319 377.709 771.289 377.679C771.259 377.648 771.218 377.632 771.175 377.632H770.396ZM752.508 378.507C752.551 378.503 752.593 378.515 752.626 378.542C752.659 378.569 752.68 378.608 752.685 378.65C752.689 378.693 752.677 378.735 752.65 378.768C752.623 378.801 752.584 378.822 752.541 378.826L750.699 379.019C750.657 379.023 750.615 379.011 750.582 378.984C750.548 378.957 750.527 378.918 750.523 378.876C750.519 378.834 750.531 378.791 750.558 378.758C750.585 378.725 750.624 378.704 750.666 378.7L752.508 378.507ZM769.27 378.518C769.189 378.527 769.128 378.596 769.127 378.678C769.127 378.759 769.188 378.828 769.269 378.838L771.111 379.033C771.153 379.037 771.196 379.025 771.229 378.998C771.262 378.971 771.283 378.933 771.288 378.89C771.292 378.848 771.28 378.805 771.253 378.772C771.226 378.739 771.187 378.718 771.145 378.713L769.303 378.519C769.292 378.517 769.281 378.517 769.27 378.518ZM751.59 379.607C751.632 379.598 751.675 379.606 751.711 379.629C751.747 379.652 751.772 379.689 751.781 379.73C751.789 379.772 751.781 379.816 751.758 379.851C751.735 379.887 751.699 379.912 751.657 379.921L750.895 380.083C750.839 380.095 750.781 380.076 750.742 380.033C750.704 379.991 750.691 379.931 750.709 379.876C750.727 379.822 750.772 379.781 750.828 379.769L751.59 379.607ZM770.19 379.605C770.107 379.603 770.036 379.665 770.027 379.748C770.018 379.83 770.073 379.906 770.155 379.922L770.917 380.084C770.973 380.096 771.032 380.077 771.07 380.035C771.108 379.992 771.121 379.932 771.103 379.878C771.085 379.823 771.04 379.782 770.984 379.77L770.222 379.608C770.211 379.606 770.2 379.605 770.19 379.605ZM752.842 380.245C752.883 380.231 752.927 380.234 752.965 380.254C753.003 380.273 753.032 380.307 753.045 380.348C753.058 380.388 753.055 380.433 753.035 380.471C753.016 380.509 752.982 380.537 752.942 380.55L751.181 381.123C751.098 381.145 751.013 381.098 750.987 381.017C750.96 380.936 751.002 380.848 751.081 380.817L752.842 380.245ZM768.904 380.243C768.828 380.25 768.767 380.309 768.759 380.385C768.75 380.461 768.796 380.532 768.869 380.556L770.63 381.13C770.712 381.151 770.797 381.105 770.824 381.024C770.85 380.943 770.809 380.855 770.729 380.824L768.968 380.251C768.948 380.244 768.926 380.241 768.904 380.243ZM752.171 381.505C752.21 381.487 752.255 381.486 752.294 381.501C752.334 381.517 752.366 381.548 752.383 381.587C752.401 381.626 752.402 381.67 752.387 381.71C752.372 381.749 752.341 381.781 752.302 381.799L751.59 382.116C751.538 382.139 751.477 382.133 751.431 382.099C751.384 382.065 751.359 382.009 751.365 381.952C751.371 381.895 751.407 381.846 751.46 381.822L752.171 381.505ZM769.576 381.497C769.499 381.495 769.431 381.548 769.414 381.623C769.398 381.698 769.437 381.775 769.508 381.805L770.219 382.122C770.271 382.145 770.332 382.139 770.379 382.105C770.425 382.071 770.45 382.016 770.444 381.958C770.438 381.901 770.402 381.852 770.349 381.829L769.638 381.512C769.618 381.503 769.597 381.498 769.576 381.497ZM753.528 381.867C753.604 381.829 753.696 381.857 753.738 381.931C753.781 382.004 753.759 382.098 753.688 382.145L752.085 383.071C752.035 383.101 751.972 383.103 751.922 383.074C751.871 383.045 751.84 382.991 751.84 382.933C751.841 382.874 751.873 382.821 751.924 382.793L753.528 381.867ZM768.193 381.845C768.122 381.85 768.063 381.9 768.047 381.969C768.031 382.038 768.062 382.11 768.123 382.145L769.727 383.071C769.777 383.105 769.842 383.108 769.895 383.079C769.948 383.051 769.981 382.995 769.979 382.934C769.978 382.874 769.943 382.819 769.888 382.793L768.284 381.867C768.256 381.851 768.225 381.843 768.193 381.845ZM753.13 383.235C753.202 383.19 753.297 383.208 753.346 383.277C753.396 383.345 753.384 383.441 753.319 383.495L752.689 383.953C752.617 384.005 752.517 383.989 752.464 383.917C752.412 383.845 752.428 383.745 752.5 383.693L753.13 383.235ZM768.589 383.21C768.518 383.207 768.453 383.251 768.43 383.318C768.407 383.385 768.431 383.459 768.489 383.5L769.119 383.958C769.166 383.992 769.227 383.999 769.279 383.975C769.332 383.952 769.368 383.902 769.374 383.845C769.38 383.788 769.355 383.732 769.308 383.699L768.678 383.241C768.652 383.222 768.621 383.211 768.589 383.21ZM754.532 383.306C754.598 383.247 754.699 383.253 754.759 383.318C754.787 383.35 754.802 383.392 754.8 383.434C754.797 383.477 754.778 383.517 754.746 383.545L753.369 384.783C753.338 384.812 753.296 384.827 753.253 384.825C753.211 384.822 753.171 384.803 753.143 384.771C753.114 384.74 753.099 384.698 753.101 384.656C753.103 384.613 753.122 384.573 753.154 384.545L754.532 383.306ZM767.161 383.27C767.096 383.274 767.04 383.316 767.018 383.377C766.997 383.438 767.014 383.506 767.062 383.55L768.438 384.789C768.504 384.842 768.601 384.835 768.658 384.771C768.716 384.708 768.713 384.611 768.653 384.55L767.276 383.311C767.245 383.282 767.203 383.267 767.161 383.27ZM755.819 384.512C755.85 384.469 755.901 384.444 755.954 384.446C756.014 384.447 756.068 384.482 756.094 384.536C756.12 384.59 756.114 384.654 756.078 384.701L754.989 386.199C754.956 386.249 754.899 386.276 754.84 386.271C754.781 386.266 754.729 386.228 754.706 386.174C754.683 386.119 754.692 386.056 754.729 386.01L755.819 384.512ZM765.849 384.453C765.816 384.454 765.786 384.465 765.76 384.484C765.725 384.509 765.702 384.546 765.695 384.588C765.688 384.63 765.699 384.673 765.724 384.708L766.812 386.207C766.866 386.272 766.962 386.284 767.03 386.234C767.099 386.184 767.117 386.09 767.072 386.018L765.984 384.519C765.953 384.476 765.902 384.451 765.849 384.453ZM754.437 384.737C754.465 384.706 754.505 384.687 754.548 384.684C754.613 384.681 754.673 384.717 754.701 384.776C754.729 384.834 754.719 384.904 754.675 384.952L754.154 385.531C754.126 385.563 754.086 385.582 754.043 385.584C754.001 385.586 753.959 385.572 753.928 385.543C753.896 385.514 753.877 385.475 753.874 385.432C753.872 385.389 753.887 385.348 753.916 385.316L754.437 384.737ZM767.263 384.685C767.198 384.681 767.137 384.717 767.109 384.776C767.081 384.835 767.091 384.905 767.135 384.953L767.657 385.532C767.695 385.574 767.753 385.593 767.809 385.581C767.865 385.569 767.911 385.529 767.929 385.474C767.946 385.42 767.934 385.36 767.895 385.317L767.374 384.738C767.346 384.706 767.306 384.687 767.263 384.685ZM757.326 385.422C757.344 385.383 757.376 385.353 757.415 385.338C757.455 385.323 757.499 385.324 757.538 385.341C757.577 385.359 757.608 385.391 757.623 385.43C757.638 385.47 757.637 385.514 757.62 385.553L756.865 387.245C756.826 387.321 756.735 387.353 756.657 387.318C756.579 387.284 756.541 387.194 756.572 387.114L757.326 385.422ZM764.326 385.332C764.272 385.333 764.222 385.36 764.193 385.406C764.164 385.451 764.16 385.508 764.182 385.558L764.934 387.25C764.972 387.328 765.065 387.362 765.144 387.327C765.223 387.291 765.26 387.2 765.228 387.12L764.476 385.427C764.45 385.368 764.391 385.331 764.326 385.332ZM756.022 385.93C756.049 385.884 756.097 385.854 756.15 385.85C756.209 385.846 756.266 385.875 756.298 385.925C756.329 385.976 756.33 386.039 756.3 386.091L755.911 386.765C755.866 386.842 755.768 386.869 755.691 386.824C755.615 386.78 755.588 386.682 755.633 386.605L756.022 385.93ZM765.662 385.85C765.603 385.846 765.546 385.875 765.514 385.925C765.483 385.976 765.482 386.039 765.512 386.091L765.902 386.765C765.929 386.817 765.983 386.849 766.041 386.85C766.1 386.85 766.154 386.819 766.182 386.768C766.211 386.717 766.21 386.655 766.179 386.605L765.79 385.93C765.764 385.884 765.716 385.854 765.662 385.85ZM758.998 386.001C759.014 385.927 759.08 385.874 759.156 385.875C759.204 385.875 759.25 385.897 759.28 385.934C759.31 385.972 759.322 386.021 759.312 386.068L758.927 387.88C758.909 387.967 758.823 388.022 758.737 388.004C758.65 387.985 758.595 387.9 758.613 387.814L758.998 386.001ZM762.65 385.876C762.602 385.876 762.556 385.898 762.526 385.935C762.496 385.973 762.484 386.022 762.494 386.069L762.878 387.881C762.89 387.937 762.931 387.983 762.985 388.001C763.04 388.018 763.1 388.006 763.142 387.967C763.185 387.929 763.204 387.871 763.192 387.815L762.809 386.003C762.793 385.928 762.727 385.875 762.65 385.876ZM760.746 386.219C760.746 386.13 760.817 386.058 760.906 386.058C760.995 386.058 761.067 386.13 761.067 386.219V388.071C761.067 388.16 760.995 388.232 760.906 388.232C760.817 388.232 760.746 388.16 760.746 388.071V386.219ZM757.958 386.657C757.894 386.662 757.839 386.706 757.82 386.767L757.579 387.509C757.566 387.549 757.569 387.593 757.588 387.631C757.608 387.669 757.641 387.697 757.682 387.71C757.722 387.724 757.767 387.721 757.805 387.701C757.843 387.682 757.871 387.648 757.884 387.607L758.125 386.866C758.142 386.815 758.132 386.759 758.098 386.717C758.065 386.675 758.012 386.652 757.958 386.657ZM763.789 386.665C763.873 386.637 763.964 386.683 763.991 386.768L764.232 387.509C764.259 387.593 764.213 387.684 764.129 387.711C764.045 387.738 763.954 387.692 763.927 387.608L763.686 386.867C763.672 386.826 763.676 386.782 763.695 386.744C763.715 386.706 763.749 386.678 763.789 386.665ZM759.898 387.07C759.822 387.077 759.762 387.137 759.754 387.213L759.673 387.988C759.668 388.03 759.681 388.073 759.707 388.106C759.734 388.139 759.773 388.16 759.816 388.164C759.858 388.169 759.901 388.156 759.934 388.129C759.967 388.103 759.988 388.064 759.992 388.021L760.073 387.247C760.079 387.199 760.062 387.151 760.028 387.117C759.994 387.082 759.946 387.065 759.898 387.07ZM761.875 387.071C761.917 387.067 761.96 387.079 761.993 387.106C762.026 387.133 762.047 387.172 762.051 387.214L762.132 387.989C762.143 388.048 762.12 388.108 762.072 388.145C762.024 388.182 761.959 388.188 761.905 388.163C761.85 388.137 761.815 388.083 761.813 388.022L761.732 387.247C761.727 387.205 761.74 387.162 761.767 387.129C761.794 387.096 761.833 387.075 761.875 387.071Z" fill="#F4F2F3"/>
<path opacity="0.409" d="M768.432 371.369L759.647 376.474L754.092 385.218L762.219 379.199L768.432 371.369Z" fill="black"/>
<path d="M762.165 379.11L759.647 376.474L768.58 370.464L762.165 379.11Z" fill="#FF5150"/>
<path d="M762.165 379.11L759.646 376.473L753.232 385.12L762.165 379.11Z" fill="#F1F1F1"/>
<path opacity="0.243" d="M753.232 385.12L762.165 379.11L768.58 370.464L753.232 385.12Z" fill="black"/>
<path d="M800.592 379.797C802.133 379.797 803.383 378.548 803.383 377.006C803.383 375.465 802.133 374.215 800.592 374.215C799.05 374.215 797.801 375.465 797.801 377.006C797.801 378.548 799.05 379.797 800.592 379.797Z" fill="#4A5668"/>
<path d="M813.993 379.797C815.534 379.797 816.784 378.548 816.784 377.006C816.784 375.465 815.534 374.215 813.993 374.215C812.451 374.215 811.201 375.465 811.201 377.006C811.201 378.548 812.451 379.797 813.993 379.797Z" fill="#4A5668"/>
<path d="M827.393 379.797C828.935 379.797 830.185 378.548 830.185 377.006C830.185 375.465 828.935 374.215 827.393 374.215C825.852 374.215 824.602 375.465 824.602 377.006C824.602 378.548 825.852 379.797 827.393 379.797Z" fill="#4A5668"/>
<path d="M160.707 34.01V34.69H165.987V37.47H162.367V42.57H170.267V37.47H166.667V34.69H171.927V34.01H166.667V31.47H165.987V34.01H160.707ZM169.607 41.93H163.027V38.09H169.607V41.93ZM174.067 29.63H158.567V46.65H159.267V45.57H173.387V46.65H174.067V29.63ZM159.267 44.93V30.31H173.387V44.93H159.267ZM183.627 34.61V35.29H189.387V39.19H185.587V46.59H186.267V45.39H193.247V46.59H193.927V39.19H190.087V35.29H195.507V34.61H190.087V30.65C191.847 30.39 193.387 29.99 194.727 29.47L194.387 28.87C191.747 29.87 188.307 30.37 184.027 30.39L184.247 31.03C186.107 31.03 187.827 30.93 189.387 30.73V34.61H183.627ZM186.267 44.71V39.85H193.247V44.71H186.267ZM179.187 28.77L178.707 29.23C180.207 30.39 181.427 31.49 182.347 32.53L182.807 32.05C181.827 30.95 180.627 29.85 179.187 28.77ZM177.267 34.87V35.55H180.447V44.59C180.447 44.75 180.327 44.93 180.107 45.13L180.387 45.75C181.687 44.89 182.907 43.91 184.067 42.79L183.887 42.05C182.867 43.01 181.947 43.79 181.107 44.43V34.87H177.267Z" fill="white"/>
<path d="M627.212 26.8893C623.512 27.8693 618.672 28.3693 612.692 28.3893L612.932 29.0093C615.612 29.0093 618.092 28.9093 620.372 28.7093V32.7893H613.112V33.4693H620.372V37.4693H611.432V38.1293H620.372V42.8893C620.372 43.6293 620.012 44.0093 619.292 44.0093C618.332 44.0093 617.332 43.9893 616.292 43.9693L616.432 44.6293H619.532C620.532 44.6293 621.032 44.0893 621.032 43.0493V38.1293H629.252V37.4693H621.032V33.4693H627.732V32.7893H621.032V28.6493C623.492 28.3893 625.652 28.0093 627.532 27.4893L627.212 26.8893ZM631.592 30.8293V31.4893H634.852C634.172 34.2893 632.972 36.7893 631.252 38.9893L631.552 39.6693C632.992 37.7893 634.092 35.6093 634.852 33.1693V44.6893H635.532V33.4693C636.252 34.3093 637.132 35.4893 638.132 36.9893L638.512 36.3893C637.492 35.0293 636.492 33.8093 635.532 32.7693V31.4893H638.292V30.8293H635.532V26.6693H634.852V30.8293H631.592ZM637.712 44.2693L638.252 44.7693C639.192 43.4093 639.832 41.9893 640.192 40.4893C640.532 39.1693 640.712 37.4293 640.712 35.2493V28.4093H645.132V42.8493C645.132 43.8093 645.612 44.2893 646.592 44.2893H647.312C647.912 44.2893 648.352 44.2093 648.632 44.0493C648.972 43.8093 649.172 43.3293 649.252 42.6493C649.332 41.9293 649.392 40.9093 649.392 39.5893L648.732 39.3893C648.732 41.0493 648.692 42.1493 648.612 42.6693C648.532 43.0893 648.372 43.3693 648.132 43.5093C647.932 43.5893 647.652 43.6493 647.312 43.6493H646.572C646.072 43.6493 645.832 43.3693 645.832 42.8493V27.7293H640.032V35.2493C640.032 37.0893 639.892 38.6493 639.632 39.9693C639.272 41.5093 638.632 42.9493 637.712 44.2693Z" fill="white"/>
<path d="M392.62 281.905C395.446 281.905 397.737 279.614 397.737 276.788C397.737 273.962 395.446 271.671 392.62 271.671C389.794 271.671 387.503 273.962 387.503 276.788C387.503 279.614 389.794 281.905 392.62 281.905Z" fill="white"/>
<path d="M392.62 355.37C395.17 355.37 397.237 353.303 397.237 350.753C397.237 348.203 395.17 346.136 392.62 346.136C390.07 346.136 388.003 348.203 388.003 350.753C388.003 353.303 390.07 355.37 392.62 355.37Z" stroke="white"/>
<path opacity="0.493825" d="M392.62 287.487V340.519" stroke="white" stroke-width="3" stroke-dasharray="3 6"/>
<path d="M430.766 281.905C433.592 281.905 435.883 279.614 435.883 276.788C435.883 273.962 433.592 271.671 430.766 271.671C427.94 271.671 425.649 273.962 425.649 276.788C425.649 279.614 427.94 281.905 430.766 281.905Z" fill="white"/>
<path d="M430.766 355.37C433.316 355.37 435.383 353.303 435.383 350.753C435.383 348.203 433.316 346.136 430.766 346.136C428.216 346.136 426.149 348.203 426.149 350.753C426.149 353.303 428.216 355.37 430.766 355.37Z" stroke="white"/>
<path opacity="0.493825" d="M430.766 287.487V340.519" stroke="white" stroke-width="3" stroke-dasharray="3 6"/>
<path d="M354.475 281.905C357.301 281.905 359.592 279.614 359.592 276.788C359.592 273.962 357.301 271.671 354.475 271.671C351.649 271.671 349.358 273.962 349.358 276.788C349.358 279.614 351.649 281.905 354.475 281.905Z" fill="white"/>
<path d="M354.475 355.37C357.025 355.37 359.092 353.303 359.092 350.753C359.092 348.203 357.025 346.136 354.475 346.136C351.925 346.136 349.858 348.203 349.858 350.753C349.858 353.303 351.925 355.37 354.475 355.37Z" stroke="white"/>
<path opacity="0.493825" d="M354.475 287.487V340.519" stroke="white" stroke-width="3" stroke-dasharray="3 6"/>
<path opacity="0.18489" d="M430.766 366.57H351.684C331.13 366.57 314.468 383.231 314.468 403.785C314.468 424.338 331.13 441 351.684 441H430.766C451.319 441 467.981 424.338 467.981 403.785C467.981 383.231 451.319 366.57 430.766 366.57Z" fill="#5B6E84"/>
<path d="M383.872 420.815V421.359H388.48V424.479H385.44V430.399H385.984V429.439H391.568V430.399H392.112V424.479H389.04V421.359H393.376V420.815H389.04V417.647C390.448 417.439 391.68 417.119 392.752 416.703L392.48 416.223C390.368 417.023 387.616 417.423 384.192 417.439L384.368 417.951C385.856 417.951 387.232 417.871 388.48 417.711V420.815H383.872ZM385.984 428.895V425.007H391.568V428.895H385.984ZM380.32 416.143L379.936 416.511C381.136 417.439 382.112 418.319 382.848 419.151L383.216 418.767C382.432 417.887 381.472 417.007 380.32 416.143ZM378.784 421.023V421.567H381.328V428.799C381.328 428.927 381.232 429.071 381.056 429.231L381.28 429.727C382.32 429.039 383.296 428.255 384.224 427.359L384.08 426.767C383.264 427.535 382.528 428.159 381.856 428.671V421.023H378.784ZM395.024 419.279V419.807H397.632C397.088 422.047 396.128 424.047 394.752 425.807L394.992 426.351C396.144 424.847 397.024 423.103 397.632 421.151V430.367H398.176V421.391C398.752 422.063 399.456 423.007 400.256 424.207L400.56 423.727C399.744 422.639 398.944 421.663 398.176 420.831V419.807H400.384V419.279H398.176V415.951H397.632V419.279H395.024ZM399.92 430.031L400.352 430.431C401.104 429.343 401.616 428.207 401.904 427.007C402.176 425.951 402.32 424.559 402.32 422.815V417.343H405.856V428.895C405.856 429.663 406.24 430.047 407.024 430.047H407.6C408.08 430.047 408.432 429.983 408.656 429.855C408.928 429.663 409.088 429.279 409.152 428.735C409.216 428.159 409.264 427.343 409.264 426.287L408.736 426.127C408.736 427.455 408.704 428.335 408.64 428.751C408.576 429.087 408.448 429.311 408.256 429.423C408.096 429.487 407.872 429.535 407.6 429.535H407.008C406.608 429.535 406.416 429.311 406.416 428.895V416.799H401.776V422.815C401.776 424.287 401.664 425.535 401.456 426.591C401.168 427.823 400.656 428.975 399.92 430.031Z" fill="white"/>
<path d="M357.27 391.457V405.737H359.45V400.177H363.15C366.57 400.177 368.29 398.717 368.29 395.797C368.29 392.897 366.59 391.457 363.19 391.457H357.27ZM359.45 393.317H363.01C364.07 393.317 364.85 393.517 365.35 393.917C365.85 394.277 366.11 394.917 366.11 395.797C366.11 396.677 365.85 397.317 365.37 397.717C364.87 398.117 364.09 398.317 363.01 398.317H359.45V393.317ZM370.317 391.457V405.737H372.497V399.337H379.977V405.737H382.157V391.457H379.977V397.477H372.497V391.457H370.317ZM391.286 391.177C389.106 391.177 387.386 391.877 386.146 393.317C384.946 394.677 384.366 396.437 384.366 398.617C384.366 400.777 384.946 402.537 386.146 403.897C387.386 405.297 389.106 406.017 391.286 406.017C393.446 406.017 395.166 405.317 396.426 403.917C397.626 402.557 398.226 400.797 398.226 398.617C398.226 396.417 397.626 394.637 396.426 393.297C395.166 391.877 393.446 391.177 391.286 391.177ZM391.286 393.097C392.806 393.097 393.986 393.577 394.806 394.577C395.606 395.557 396.026 396.897 396.026 398.617C396.026 400.317 395.606 401.657 394.806 402.617C393.986 403.597 392.806 404.097 391.286 404.097C389.766 404.097 388.586 403.577 387.746 402.577C386.946 401.597 386.546 400.277 386.546 398.617C386.546 396.937 386.946 395.617 387.746 394.637C388.586 393.597 389.766 393.097 391.286 393.097ZM400.434 391.457V405.737H402.614V394.997H402.694L410.074 405.737H412.194V391.457H410.014V402.077H409.934L402.634 391.457H400.434ZM415.005 391.457V405.737H425.605V403.877H417.185V399.337H424.785V397.477H417.185V393.317H425.265V391.457H415.005ZM432.817 391.177C431.297 391.177 430.037 391.517 429.037 392.197C427.977 392.917 427.457 393.897 427.457 395.157C427.457 396.397 427.997 397.357 429.097 398.017C429.537 398.257 430.617 398.637 432.377 399.197C433.957 399.677 434.897 399.997 435.217 400.157C436.117 400.617 436.577 401.237 436.577 402.037C436.577 402.677 436.257 403.177 435.617 403.537C434.977 403.897 434.117 404.097 433.037 404.097C431.837 404.097 430.957 403.877 430.377 403.437C429.737 402.957 429.337 402.137 429.177 401.017H427.017C427.137 402.817 427.777 404.137 428.957 404.977C429.937 405.657 431.297 406.017 433.037 406.017C434.837 406.017 436.237 405.657 437.237 404.937C438.237 404.197 438.737 403.197 438.737 401.917C438.737 400.597 438.117 399.577 436.897 398.837C436.337 398.497 435.077 398.037 433.157 397.437C431.817 397.037 430.997 396.737 430.677 396.557C429.957 396.177 429.617 395.677 429.617 395.037C429.617 394.317 429.917 393.797 430.537 393.477C431.037 393.197 431.757 393.057 432.697 393.057C433.777 393.057 434.577 393.257 435.137 393.677C435.697 394.077 436.057 394.757 436.257 395.677H438.417C438.277 394.117 437.717 392.977 436.717 392.237C435.777 391.517 434.477 391.177 432.817 391.177Z" fill="white"/>
<path d="M310.941 308.839C309.421 308.839 308.161 309.179 307.161 309.859C306.101 310.579 305.581 311.559 305.581 312.819C305.581 314.059 306.121 315.019 307.221 315.679C307.661 315.919 308.741 316.299 310.501 316.859C312.081 317.339 313.021 317.659 313.341 317.819C314.241 318.279 314.701 318.899 314.701 319.699C314.701 320.339 314.381 320.839 313.741 321.199C313.101 321.559 312.241 321.759 311.161 321.759C309.961 321.759 309.081 321.539 308.501 321.099C307.861 320.619 307.461 319.799 307.301 318.679H305.141C305.261 320.479 305.901 321.799 307.081 322.639C308.061 323.319 309.421 323.679 311.161 323.679C312.961 323.679 314.361 323.319 315.361 322.599C316.361 321.859 316.861 320.859 316.861 319.579C316.861 318.259 316.241 317.239 315.021 316.499C314.461 316.159 313.201 315.699 311.281 315.099C309.941 314.699 309.121 314.399 308.801 314.219C308.081 313.839 307.741 313.339 307.741 312.699C307.741 311.979 308.041 311.459 308.661 311.139C309.161 310.859 309.881 310.719 310.821 310.719C311.901 310.719 312.701 310.919 313.261 311.339C313.821 311.739 314.181 312.419 314.381 313.339H316.541C316.401 311.779 315.841 310.639 314.841 309.899C313.901 309.179 312.601 308.839 310.941 308.839ZM318.93 309.119V323.399H321.09V309.119H318.93ZM323.929 309.119V323.399H326.109V317.839H329.809C333.229 317.839 334.949 316.379 334.949 313.459C334.949 310.559 333.249 309.119 329.849 309.119H323.929ZM326.109 310.979H329.669C330.729 310.979 331.509 311.179 332.009 311.579C332.509 311.939 332.769 312.579 332.769 313.459C332.769 314.339 332.509 314.979 332.029 315.379C331.529 315.779 330.749 315.979 329.669 315.979H326.109V310.979Z" fill="#68737E"/>
<path d="M451.428 308.839C449.908 308.839 448.648 309.179 447.648 309.859C446.588 310.579 446.068 311.559 446.068 312.819C446.068 314.059 446.608 315.019 447.708 315.679C448.148 315.919 449.228 316.299 450.988 316.859C452.568 317.339 453.508 317.659 453.828 317.819C454.728 318.279 455.188 318.899 455.188 319.699C455.188 320.339 454.868 320.839 454.228 321.199C453.588 321.559 452.728 321.759 451.648 321.759C450.448 321.759 449.568 321.539 448.988 321.099C448.348 320.619 447.948 319.799 447.788 318.679H445.628C445.748 320.479 446.388 321.799 447.568 322.639C448.548 323.319 449.908 323.679 451.648 323.679C453.448 323.679 454.848 323.319 455.848 322.599C456.848 321.859 457.348 320.859 457.348 319.579C457.348 318.259 456.728 317.239 455.508 316.499C454.948 316.159 453.688 315.699 451.768 315.099C450.428 314.699 449.608 314.399 449.288 314.219C448.568 313.839 448.228 313.339 448.228 312.699C448.228 311.979 448.528 311.459 449.148 311.139C449.648 310.859 450.368 310.719 451.308 310.719C452.388 310.719 453.188 310.919 453.748 311.339C454.308 311.739 454.668 312.419 454.868 313.339H457.028C456.888 311.779 456.328 310.639 455.328 309.899C454.388 309.179 453.088 308.839 451.428 308.839ZM459.417 309.119V323.399H461.577V309.119H459.417ZM464.416 309.119V323.399H466.596V317.839H470.296C473.716 317.839 475.436 316.379 475.436 313.459C475.436 310.559 473.736 309.119 470.336 309.119H464.416ZM466.596 310.979H470.156C471.216 310.979 471.996 311.179 472.496 311.579C472.996 311.939 473.256 312.579 473.256 313.459C473.256 314.339 472.996 314.979 472.516 315.379C472.016 315.779 471.236 315.979 470.156 315.979H466.596V310.979Z" fill="#68737E"/>
<path d="M257.25 201.427C257.25 204.253 259.541 206.544 262.367 206.544C265.193 206.544 267.484 204.253 267.484 201.427C267.484 198.601 265.193 196.31 262.367 196.31C259.541 196.31 257.25 198.601 257.25 201.427Z" fill="white"/>
<path d="M183.32 201.427C183.32 203.977 185.387 206.044 187.937 206.044C190.487 206.044 192.554 203.977 192.554 201.427C192.554 198.877 190.487 196.81 187.937 196.81C185.387 196.81 183.32 198.877 183.32 201.427Z" stroke="white"/>
<path opacity="0.493825" d="M251.668 201.427H198.636" stroke="white" stroke-width="3" stroke-dasharray="3 6"/>
<path d="M671.269 298.652C674.352 298.652 676.851 296.153 676.851 293.07C676.851 289.987 674.352 287.487 671.269 287.487C668.186 287.487 665.687 289.987 665.687 293.07C665.687 296.153 668.186 298.652 671.269 298.652Z" stroke="#7BFD93" stroke-width="4"/>
<path d="M701.041 298.652C704.124 298.652 706.623 296.153 706.623 293.07C706.623 289.987 704.124 287.487 701.041 287.487C697.958 287.487 695.459 289.987 695.459 293.07C695.459 296.153 697.958 298.652 701.041 298.652Z" stroke="#7BFD93" stroke-width="4"/>
<path d="M730.813 298.652C733.896 298.652 736.396 296.153 736.396 293.07C736.396 289.987 733.896 287.487 730.813 287.487C727.73 287.487 725.231 289.987 725.231 293.07C725.231 296.153 727.73 298.652 730.813 298.652Z" stroke="#7BFD93" stroke-width="4"/>
<path d="M700.535 242.101V286.557" stroke="#7BFD93" stroke-width="4"/>
<path d="M671.021 286.866V277.258C671.021 272.288 675.051 268.258 680.021 268.258H721.566C726.536 268.258 730.566 272.288 730.566 277.258V286.866" stroke="#7BFD93" stroke-width="4"/>
<path d="M513.338 133.975C515.493 133.975 517.241 135.722 517.241 137.877V227.639C517.241 229.794 515.493 231.542 513.338 231.542H308.447C306.292 231.542 304.544 229.794 304.544 227.639V137.877C304.544 135.722 306.292 133.975 308.447 133.975H513.338ZM513.338 137.877H308.447V227.639H513.338V137.877Z" fill="url(#paint0_linear_39_66)"/>
<path fill-rule="evenodd" clip-rule="evenodd" d="M512.343 135.973L515.103 138.732L491.642 162.193L488.882 159.434L512.343 135.973Z" fill="#4895FD"/>
<path fill-rule="evenodd" clip-rule="evenodd" d="M513.14 227.682L515.9 230.442L492.439 253.903L489.679 251.143L513.14 227.682Z" fill="#7CFE95"/>
<path fill-rule="evenodd" clip-rule="evenodd" d="M489.674 158.486C490.476 158.486 491.202 158.81 491.727 159.336C492.252 159.861 492.577 160.587 492.577 161.388V251.15C492.577 251.952 492.252 252.677 491.727 253.202C491.202 253.728 490.476 254.053 489.674 254.053H284.783C283.982 254.053 283.256 253.728 282.731 253.202C282.206 252.677 281.881 251.952 281.881 251.15V161.388C281.881 160.587 282.206 159.861 282.731 159.336C283.256 158.81 283.982 158.486 284.783 158.486H489.674Z" fill="#2A3640" stroke="url(#paint1_linear_39_66)" stroke-width="2"/>
<path d="M489.674 157.486C491.83 157.486 493.577 159.233 493.577 161.388V251.15C493.577 253.305 491.83 255.053 489.674 255.053H284.783C282.628 255.053 280.881 253.305 280.881 251.15V161.388C280.881 159.233 282.628 157.486 284.783 157.486H489.674ZM489.674 161.388H284.783V251.15H489.674V161.388Z" fill="url(#paint2_linear_39_66)"/>
<path fill-rule="evenodd" clip-rule="evenodd" d="M305.526 135.289L308.286 138.048L284.825 161.509L282.065 158.749L305.526 135.289Z" fill="#4895FD"/>
<path d="M348.303 204.704L356.976 213.378C358.121 214.521 358.764 216.072 358.764 217.69C358.764 219.308 358.121 220.86 356.976 222.003C355.833 223.148 354.282 223.791 352.664 223.791C351.046 223.791 349.494 223.148 348.351 222.003L335.357 209.036C332.979 206.653 332.979 202.794 335.357 200.411L339.694 196.074" stroke="white" stroke-width="3"/>
<g opacity="0.5">
<path opacity="0.5" d="M331.107 204.667L327.172 200.731C326.027 199.588 325.383 198.037 325.383 196.419C325.383 194.801 326.027 193.249 327.172 192.106C328.315 190.961 329.866 190.318 331.484 190.318C333.102 190.318 334.653 190.961 335.796 192.106L339.754 196.064L343.987 200.297C346.366 202.68 346.366 206.539 343.987 208.922L339.651 213.232" stroke="white" stroke-width="3"/>
<path opacity="0.5" fill-rule="evenodd" clip-rule="evenodd" d="M337.477 198.21C338.063 197.626 338.392 196.834 338.392 196.007C338.392 195.18 338.063 194.387 337.477 193.803L339.748 196.074L343.993 200.314C346.368 202.696 346.368 206.551 343.993 208.933L335.731 217.335C333.35 219.713 329.493 219.713 327.112 217.335L327.058 217.276C324.746 214.891 324.77 211.093 327.112 208.738L337.477 198.21Z" stroke="white" stroke-width="3"/>
</g>
<path fill-rule="evenodd" clip-rule="evenodd" d="M341.862 211.117C340.645 212.336 340.645 214.311 341.862 215.53L335.357 209.025C334.214 207.883 333.572 206.334 333.572 204.718C333.572 203.102 334.214 201.553 335.357 200.411L348.292 187.482C350.671 185.105 354.526 185.105 356.906 187.482C356.926 187.499 356.945 187.52 356.96 187.542C359.289 189.926 359.264 193.741 356.906 196.096L341.862 211.117Z" stroke="white" stroke-width="3"/>
<path d="M375.407 213.514L380.996 204.976L375.933 197.153H379.809L383.061 202.406L386.314 197.153H390.109L385.024 205.1L390.613 213.514H386.628L383.007 207.854L379.37 213.514H375.407Z" fill="white"/>
<path d="M391.48 208.196L394.695 207.881C394.798 208.787 395.214 209.628 395.871 210.261C396.545 210.788 397.385 211.056 398.24 211.014C399.101 211.09 399.961 210.86 400.669 210.364C401.189 209.986 401.496 209.381 401.493 208.738C401.501 208.379 401.382 208.03 401.156 207.751C400.827 207.415 400.416 207.17 399.964 207.041C399.577 206.907 398.695 206.669 397.318 206.325C395.551 205.886 394.304 205.35 393.594 204.699C391.947 203.291 391.604 200.879 392.792 199.067C393.291 198.321 394.003 197.743 394.836 197.408C395.86 197.004 396.955 196.81 398.056 196.839C400.112 196.839 401.659 197.289 402.696 198.189C403.735 199.098 404.328 200.413 404.322 201.793L401.021 201.94C400.956 201.243 400.631 200.597 400.11 200.129C399.493 199.72 398.756 199.53 398.018 199.587C397.223 199.543 396.434 199.749 395.763 200.178C395.42 200.401 395.216 200.783 395.221 201.192C395.223 201.581 395.405 201.947 395.714 202.184C396.133 202.545 397.145 202.907 398.75 203.268C399.98 203.521 401.177 203.916 402.317 204.444C403.058 204.824 403.683 205.4 404.122 206.109C405.041 207.748 404.993 209.757 403.997 211.351C403.47 212.175 402.696 212.812 401.785 213.172C400.657 213.615 399.452 213.83 398.24 213.806C396.175 213.806 394.586 213.324 393.475 212.37C392.298 211.287 391.583 209.792 391.48 208.196Z" fill="white"/>
<path d="M409.749 213.514L405.997 201.658H409.044L411.25 209.426L413.294 201.658H416.319L418.297 209.426L420.563 201.658H423.659L419.864 213.514H416.855L414.812 205.892L412.801 213.514H409.749Z" fill="white"/>
<path d="M425.345 200.064V197.153H428.483V200.064H425.345ZM425.345 213.524V201.658H428.483V213.514L425.345 213.524Z" fill="white"/>
<path d="M437.103 201.658V204.162H434.961V208.938C434.941 209.503 434.962 210.068 435.026 210.63C435.066 210.791 435.165 210.932 435.303 211.025C435.462 211.135 435.652 211.19 435.845 211.183C436.278 211.149 436.702 211.047 437.103 210.879L437.374 213.313C436.588 213.636 435.745 213.795 434.896 213.779C434.373 213.789 433.853 213.693 433.368 213.497C432.971 213.351 432.623 213.095 432.365 212.76C432.129 212.391 431.979 211.975 431.926 211.54C431.841 210.806 431.809 210.067 431.828 209.329V204.162H430.386V201.658H431.828V199.305L434.972 197.473V201.658H437.103Z" fill="white"/>
<path d="M449.614 205.165L446.524 205.707C446.464 205.172 446.212 204.677 445.814 204.314C445.411 203.987 444.902 203.819 444.383 203.843C443.669 203.814 442.981 204.111 442.513 204.65C442.046 205.192 441.813 206.092 441.813 207.361C441.813 208.763 442.05 209.755 442.523 210.337C442.984 210.913 443.689 211.237 444.426 211.21C444.961 211.232 445.485 211.05 445.89 210.7C446.338 210.22 446.62 209.608 446.692 208.955L449.771 209.497C449.549 210.745 448.899 211.878 447.934 212.7C446.876 213.469 445.586 213.852 444.28 213.785C442.728 213.862 441.218 213.269 440.133 212.158C439.103 211.074 438.588 209.56 438.588 207.616C438.588 205.671 439.106 204.148 440.144 203.046C441.246 201.93 442.773 201.338 444.339 201.419C445.557 201.355 446.763 201.681 447.782 202.352C448.69 203.059 449.335 204.049 449.614 205.165Z" fill="white"/>
<path d="M455.122 197.153V203.165C456.453 201.493 458.745 200.929 460.7 201.793C461.22 202.015 461.673 202.371 462.012 202.823C462.304 203.238 462.509 203.709 462.613 204.206C462.743 204.983 462.797 205.771 462.776 206.558V213.514H459.637V207.252C459.679 206.458 459.619 205.662 459.458 204.883C459.343 204.555 459.122 204.275 458.83 204.087C458.489 203.88 458.095 203.778 457.697 203.794C457.205 203.785 456.722 203.916 456.303 204.173C455.881 204.439 455.563 204.844 455.404 205.317C455.184 206.05 455.089 206.814 455.122 207.578V213.541H451.983V197.153H455.122Z" fill="white"/>
<path d="M799.856 147.465C801.57 147.465 802.96 148.855 802.96 150.569V221.957C802.96 223.671 801.57 225.061 799.856 225.061H636.905C635.19 225.061 633.801 223.671 633.801 221.957V150.569C633.801 148.855 635.19 147.465 636.905 147.465H799.856ZM799.856 150.569H636.905V221.957H799.856V150.569Z" fill="url(#paint3_linear_39_66)"/>
<path fill-rule="evenodd" clip-rule="evenodd" d="M799.065 149.054L801.26 151.249L782.601 169.908L780.406 167.713L799.065 149.054Z" fill="#4895FD"/>
<path fill-rule="evenodd" clip-rule="evenodd" d="M799.699 221.992L801.894 224.186L783.235 242.845L781.04 240.65L799.699 221.992Z" fill="#7CFE95"/>
<path fill-rule="evenodd" clip-rule="evenodd" d="M781.036 167.164C781.617 167.164 782.143 167.399 782.524 167.78C782.905 168.161 783.14 168.686 783.14 169.267V240.656C783.14 241.237 782.905 241.763 782.524 242.143C782.143 242.524 781.617 242.76 781.036 242.76H618.085C617.504 242.76 616.978 242.524 616.597 242.143C616.216 241.763 615.981 241.237 615.981 240.656V169.267C615.981 168.686 616.216 168.161 616.597 167.78C616.978 167.399 617.504 167.164 618.085 167.164H781.036Z" fill="#2A3641" stroke="url(#paint4_linear_39_66)" stroke-width="2"/>
<path d="M781.036 166.164C782.75 166.164 784.14 167.553 784.14 169.267V240.656C784.14 242.37 782.75 243.76 781.036 243.76H618.085C616.371 243.76 614.981 242.37 614.981 240.656V169.267C614.981 167.553 616.371 166.164 618.085 166.164H781.036ZM781.036 169.267H618.085V240.656H781.036V169.267Z" fill="url(#paint5_linear_39_66)"/>
<path fill-rule="evenodd" clip-rule="evenodd" d="M634.582 148.51L636.776 150.705L618.118 169.364L615.923 167.169L634.582 148.51Z" fill="#4895FD"/>
<path d="M675.536 198.899L678.816 210.323H679.968L682.768 200.275H682.816L685.616 210.323H686.768L690.048 198.899H688.944L686.208 209.011H686.16L683.36 198.899H682.224L679.424 209.011H679.376L676.64 198.899H675.536ZM691.296 198.899V210.323H699.584V209.459H692.272V204.851H698.928V203.971H692.272V199.763H699.312V198.899H691.296ZM701.436 198.899V210.323H706.412C707.548 210.323 708.46 210.083 709.132 209.619C709.9 209.075 710.3 208.259 710.3 207.171C710.3 206.403 710.076 205.779 709.644 205.283C709.196 204.803 708.604 204.499 707.852 204.371C708.428 204.195 708.908 203.891 709.276 203.443C709.644 202.979 709.836 202.419 709.836 201.763C709.836 200.867 709.532 200.163 708.924 199.651C708.316 199.139 707.484 198.899 706.46 198.899H701.436ZM702.412 199.747H706.268C707.068 199.747 707.708 199.907 708.172 200.259C708.62 200.611 708.86 201.155 708.86 201.859C708.86 202.563 708.62 203.091 708.156 203.459C707.708 203.811 707.068 204.003 706.252 204.003H702.412V199.747ZM702.412 204.835H706.364C707.26 204.835 707.964 205.011 708.492 205.395C709.036 205.779 709.324 206.371 709.324 207.155C709.324 207.955 709.02 208.547 708.428 208.963C707.916 209.299 707.228 209.475 706.38 209.475H702.412V204.835ZM713.771 202.595H716.619V205.507H713.771V202.595ZM716.619 201.811H713.771V198.867H716.619V201.811ZM713.755 206.323H716.619V210.243C716.619 210.819 716.379 211.107 715.931 211.107C715.547 211.107 715.147 211.091 714.699 211.075L714.907 211.843H716.187C717.019 211.843 717.435 211.395 717.435 210.531V198.051H712.987V205.619C712.971 207.923 712.635 209.811 711.995 211.315L712.667 211.907C713.307 210.451 713.675 208.595 713.755 206.323ZM719.771 204.739H720.299C720.683 206.371 721.419 207.827 722.507 209.107C721.835 209.939 721.003 210.611 720.043 211.155L720.491 211.843C721.499 211.299 722.363 210.595 723.083 209.715C723.835 210.483 724.779 211.187 725.899 211.827L726.315 211.107C725.259 210.515 724.331 209.827 723.563 209.059C724.363 207.875 724.923 206.419 725.259 204.691V203.955H719.771V198.851H724.395C724.379 200.179 724.299 201.043 724.171 201.459C724.059 201.715 723.899 201.875 723.707 201.939C723.499 202.003 723.195 202.035 722.779 202.035H721.707L721.947 202.787H723.179C724.203 202.787 724.795 202.467 724.971 201.827C725.163 201.203 725.259 199.939 725.259 198.051H718.955V211.891H719.771V204.739ZM721.051 204.739H724.475C724.171 206.147 723.675 207.395 722.987 208.451C722.059 207.363 721.403 206.115 721.051 204.739ZM732.651 197.235C731.963 198.883 730.635 200.275 728.667 201.395L729.195 202.083C730.011 201.603 730.731 201.059 731.355 200.483C732.219 201.251 733.147 201.923 734.139 202.515C732.299 203.299 730.155 203.859 727.707 204.195L728.107 204.995C730.763 204.579 733.067 203.923 735.051 203.011C737.051 204.019 739.323 204.675 741.883 204.979L742.267 204.163C739.947 203.907 737.851 203.363 735.995 202.531C737.547 201.683 738.859 200.643 739.931 199.395V198.691H732.843C733.099 198.275 733.339 197.827 733.531 197.363L732.651 197.235ZM735.067 202.083C733.915 201.475 732.875 200.755 731.931 199.891C732.027 199.763 732.139 199.635 732.251 199.507H738.699C737.691 200.499 736.475 201.363 735.067 202.083ZM734.203 204.291C734.203 204.979 734.123 205.635 733.995 206.243H728.811V207.027H733.755C733.595 207.443 733.419 207.827 733.195 208.195C732.299 209.411 730.539 210.419 727.915 211.203L728.491 211.891C731.403 210.963 733.275 209.779 734.123 208.339C734.347 207.939 734.523 207.507 734.683 207.027H739.707C739.643 208.787 739.483 209.891 739.211 210.323C738.939 210.739 738.267 210.947 737.211 210.963C736.731 210.963 736.139 210.931 735.419 210.899L735.643 211.699C736.331 211.731 736.923 211.747 737.403 211.747C738.555 211.747 739.371 211.475 739.835 210.963C740.299 210.451 740.539 208.867 740.571 206.243H734.875C734.987 205.635 735.051 204.995 735.051 204.291H734.203ZM745.291 197.955V201.651H749.979V197.955H745.291ZM749.179 200.899H746.107V198.707H749.179V200.899ZM751.995 197.955V201.651H756.747V197.955H751.995ZM755.931 200.899H752.795V198.707H755.931V200.899ZM743.963 203.459V204.259H748.683C747.531 205.347 745.835 206.243 743.627 206.915L744.027 207.635C744.539 207.475 745.051 207.299 745.531 207.107V211.907H746.315V211.155H749.339V211.907H750.139V206.995H745.803C747.467 206.291 748.779 205.379 749.739 204.259H752.539C753.371 205.331 754.667 206.243 756.427 206.995H751.835V211.907H752.635V211.155H755.915V211.907H756.715V207.107C757.115 207.267 757.547 207.427 758.011 207.587L758.379 206.819C756.139 206.195 754.491 205.347 753.419 204.259H758.011V203.459H755.771C755.515 202.947 755.211 202.467 754.859 202.003L754.091 202.243C754.379 202.595 754.651 203.011 754.907 203.459H750.331C750.587 203.043 750.827 202.611 751.019 202.147L750.203 202.051C750.011 202.531 749.739 203.011 749.403 203.459H743.963ZM746.315 210.403V207.763H749.339V210.403H746.315ZM752.635 210.403V207.763H755.915V210.403H752.635Z" fill="white"/>
<path d="M652.01 210.7L651.452 208.715H636.69V211.816C636.69 213.181 637.806 214.297 639.171 214.297H652.196L652.072 214.173C651.142 213.181 651.08 211.692 652.01 210.7ZM643.202 212.437H640.101C639.605 212.437 639.171 212.003 639.171 211.506C639.171 211.01 639.605 210.576 640.101 210.576H643.202C643.699 210.576 644.133 211.01 644.133 211.506C644.133 212.003 643.699 212.437 643.202 212.437ZM652.134 205.304L656.166 201.272H636.69V206.854H651.328C651.452 206.296 651.7 205.738 652.134 205.304ZM643.202 204.994H640.101C639.605 204.994 639.171 204.559 639.171 204.063C639.171 203.567 639.605 203.133 640.101 203.133H643.202C643.699 203.133 644.133 203.567 644.133 204.063C644.133 204.559 643.699 204.994 643.202 204.994ZM658.399 196.31C658.399 194.946 657.282 193.829 655.918 193.829H639.171C637.806 193.829 636.69 194.946 636.69 196.31V199.411H658.399V196.31ZM643.202 197.551H640.101C639.605 197.551 639.171 197.116 639.171 196.62C639.171 196.124 639.605 195.69 640.101 195.69H643.202C643.699 195.69 644.133 196.124 644.133 196.62C644.133 197.116 643.699 197.551 643.202 197.551ZM651.886 197.551C651.39 197.551 650.956 197.116 650.956 196.62C650.956 196.124 651.39 195.69 651.886 195.69C652.382 195.69 652.816 196.124 652.816 196.62C652.816 197.116 652.382 197.551 651.886 197.551ZM654.987 197.551C654.491 197.551 654.057 197.116 654.057 196.62C654.057 196.124 654.491 195.69 654.987 195.69C655.483 195.69 655.918 196.124 655.918 196.62C655.918 197.116 655.483 197.551 654.987 197.551ZM663.485 207.165L659.949 203.629C659.453 203.133 658.709 203.133 658.213 203.629L657.344 204.497L656.476 203.629L653.499 206.606C653.189 206.916 653.065 207.413 653.189 207.847L654.181 211.258L653.437 212.003C653.189 212.251 653.189 212.623 653.437 212.871L654.305 213.739C654.553 213.987 654.925 213.987 655.173 213.739L655.918 212.995L659.329 213.987C659.763 214.111 660.259 213.987 660.57 213.677L663.547 210.7L662.678 209.832L663.547 208.963C663.981 208.405 663.981 207.599 663.485 207.165ZM659.515 206.73L658.647 205.862L659.515 204.994L660.383 205.862L659.515 206.73ZM661.314 208.467L660.446 207.599L661.314 206.73L662.182 207.599L661.314 208.467Z" fill="#4A5668"/>
<path d="M404.676 83.5422L405.33 146.709" stroke="#4795FE" stroke-width="6"/>
<path opacity="0.4" d="M404.69 143.19L405.33 157.408" stroke="#4795FE" stroke-width="6"/>
<path d="M504.974 197.473H615.689" stroke="#66D2C0" stroke-width="6"/>
<path opacity="0.298781" d="M492.879 197.473H508.695" stroke="#66D2C0" stroke-width="6"/>
<path opacity="0.18489" d="M127.462 166.538H37.2152C16.6618 166.538 0 183.2 0 203.753C0 224.307 16.6618 240.968 37.2152 240.968H127.462C148.015 240.968 164.677 224.307 164.677 203.753C164.677 183.2 148.015 166.538 127.462 166.538Z" fill="#5B6E84"/>
<path d="M70.5194 217.227H73.3834C73.3514 219.755 72.9194 221.947 72.0874 223.803C71.3194 222.283 70.6954 220.459 70.2314 218.315C70.3274 217.963 70.4234 217.611 70.5194 217.227ZM71.8154 224.379C71.0474 225.851 69.9914 227.067 68.6474 228.043L68.9514 228.507C70.2634 227.547 71.3034 226.347 72.1034 224.907C72.9674 226.443 74.0234 227.659 75.2714 228.539L75.5914 228.075C74.3434 227.211 73.2714 225.963 72.3754 224.363C73.3354 222.395 73.8314 220.011 73.8954 217.227H75.1434V216.699H70.6314C70.7914 215.899 70.9354 215.019 71.0634 214.075L70.5034 213.979C70.1514 217.115 69.4634 219.611 68.4554 221.451L68.7914 221.867C69.2234 221.115 69.6074 220.235 69.9594 219.227C70.4394 221.211 71.0474 222.923 71.8154 224.379ZM64.2154 221.499C64.0874 221.851 63.9434 222.251 63.7514 222.667H61.3034V223.163H63.5274C63.2074 223.835 62.8074 224.571 62.3274 225.339C63.1594 225.643 63.9594 225.963 64.7274 226.299C63.7354 227.019 62.4714 227.595 60.9674 228.043L61.2394 228.507C62.8394 228.011 64.1834 227.355 65.2714 226.539C66.2794 226.987 67.2074 227.451 68.0554 227.931L68.3434 227.499C67.4954 227.035 66.6154 226.603 65.6874 226.203C66.6794 225.339 67.3834 224.315 67.8314 223.131V222.667H64.3114C64.4714 222.299 64.6154 221.931 64.7434 221.547L64.2154 221.499ZM65.1594 225.963C64.4554 225.659 63.7354 225.371 62.9994 225.115C63.3994 224.507 63.7674 223.851 64.0874 223.163H67.2874C66.8394 224.251 66.1354 225.179 65.1594 225.963ZM62.2154 214.459L61.7514 214.603C62.1674 215.227 62.5514 215.931 62.9034 216.731L63.3354 216.539C63.0154 215.803 62.6314 215.099 62.2154 214.459ZM67.5274 214.331C67.2234 215.035 66.8074 215.755 66.2954 216.491L66.7114 216.715C67.2234 215.995 67.6394 215.275 67.9594 214.539L67.5274 214.331ZM61.3514 217.291V217.787H64.0234C63.5594 218.907 62.5994 219.883 61.1274 220.715L61.3994 221.179C62.9354 220.235 63.9594 219.099 64.4714 217.787H64.6154V221.051H65.1434V218.491C65.8474 218.955 66.6794 219.595 67.6714 220.395L67.9594 219.963C67.0154 219.243 66.0714 218.603 65.1434 218.043V217.787H68.2954V217.291H65.1434V214.059H64.6154V217.291H61.3514ZM78.8074 228.411C79.5114 228.411 79.8794 228.027 79.8794 227.291V222.235C80.4554 221.995 81.0314 221.723 81.5914 221.435V220.891C81.0314 221.179 80.4554 221.451 79.8794 221.707V217.851H81.6234V217.323H79.8794V214.091H79.3354V217.323H77.2074V217.851H79.3354V221.915C78.5834 222.203 77.7994 222.459 76.9994 222.667L77.1434 223.195C77.8794 222.971 78.6154 222.731 79.3354 222.459V227.147C79.3354 227.659 79.0954 227.931 78.6154 227.931C78.1994 227.931 77.7834 227.915 77.3354 227.883L77.4474 228.411H78.8074ZM83.2714 221.163H87.1594V223.611H84.2954V228.555H84.8234V227.627H90.0554V228.555H90.5834V223.611H87.7034V221.163H91.3514V220.635H87.7034V218.299H90.8714V214.859H82.7914V219.515C82.7754 223.051 82.1514 225.931 80.9034 228.155L81.3354 228.539C82.4394 226.427 83.0794 223.979 83.2714 221.163ZM87.1594 218.299V220.635H83.3034C83.3194 220.267 83.3354 219.899 83.3354 219.515V218.299H87.1594ZM84.8234 227.115V224.123H90.0554V227.115H84.8234ZM90.3434 215.403V217.787H83.3354V215.403H90.3434ZM100.391 213.899L99.8154 213.995C100.167 214.475 100.487 215.035 100.775 215.643H94.5994V220.155C94.5514 223.579 94.0234 226.251 93.0314 228.171L93.4634 228.587C94.5354 226.475 95.0954 223.659 95.1434 220.155V216.187H107.239V215.643H101.351C101.047 214.971 100.727 214.395 100.391 213.899ZM99.9754 216.971C99.7834 217.579 99.5754 218.171 99.3514 218.747H96.3594V219.243H99.1594C98.6154 220.523 97.9754 221.627 97.2394 222.539L97.3514 222.955H101.831V225.387H95.7674V225.899H101.831V228.571H102.375V225.899H107.383V225.387H102.375V222.955H106.151V222.459H102.375V220.251H101.831V222.459H97.9754C98.6314 221.531 99.2234 220.459 99.7354 219.243H106.551V218.747H99.9434C100.135 218.235 100.327 217.675 100.519 217.099L99.9754 216.971Z" fill="white"/>
<path d="M28.9694 189.565V203.845H34.1294C36.4294 203.845 38.1694 203.205 39.3694 201.925C40.5094 200.685 41.0894 198.945 41.0894 196.705C41.0894 194.445 40.5294 192.705 39.4094 191.505C38.2094 190.205 36.4694 189.565 34.1694 189.565H28.9694ZM31.1494 191.425H33.7694C35.5694 191.425 36.8894 191.845 37.7294 192.705C38.5294 193.545 38.9494 194.865 38.9494 196.705C38.9494 198.505 38.5294 199.825 37.7094 200.685C36.8694 201.545 35.5294 201.985 33.7294 201.985H31.1494V191.425ZM47.4053 189.565L41.9053 203.845H44.2253L45.5653 200.165H51.7053L53.0453 203.845H55.3853L49.8853 189.565H47.4053ZM46.2253 198.365L48.6053 191.905H48.6853L51.0453 198.365H46.2253ZM55.6819 189.565V191.425H60.4619V203.845H62.6219V191.425H67.3819V189.565H55.6819ZM73.2061 189.565L67.7061 203.845H70.0261L71.3661 200.165H77.5061L78.8461 203.845H81.1861L75.6861 189.565H73.2061ZM72.0261 198.365L74.4061 191.905H74.4861L76.8461 198.365H72.0261ZM89.2428 189.565V203.845H95.7628C97.2828 203.845 98.4628 203.565 99.3028 203.005C100.283 202.325 100.783 201.285 100.783 199.845C100.783 198.885 100.543 198.105 100.063 197.525C99.5828 196.945 98.8628 196.565 97.9228 196.385C98.6428 196.125 99.1828 195.725 99.5828 195.205C99.9828 194.645 100.183 193.965 100.183 193.165C100.183 192.065 99.8028 191.205 99.0428 190.565C98.2428 189.885 97.1628 189.565 95.7628 189.565H89.2428ZM91.4228 191.365H95.2228C96.1828 191.365 96.9028 191.525 97.3428 191.865C97.7828 192.185 98.0028 192.705 98.0028 193.425C98.0028 194.185 97.7828 194.745 97.3428 195.105C96.9028 195.445 96.1828 195.625 95.1828 195.625H91.4228V191.365ZM91.4228 197.405H95.5228C96.5628 197.405 97.3428 197.585 97.8428 197.965C98.3428 198.345 98.6028 198.965 98.6028 199.805C98.6028 200.625 98.2628 201.225 97.6228 201.605C97.1028 201.885 96.3828 202.045 95.4628 202.045H91.4228V197.405ZM107.073 189.565L101.573 203.845H103.893L105.233 200.165H111.373L112.713 203.845H115.053L109.553 189.565H107.073ZM105.893 198.365L108.273 191.905H108.353L110.713 198.365H105.893ZM121.45 189.285C119.93 189.285 118.67 189.625 117.67 190.305C116.61 191.025 116.09 192.005 116.09 193.265C116.09 194.505 116.63 195.465 117.73 196.125C118.17 196.365 119.25 196.745 121.01 197.305C122.59 197.785 123.53 198.105 123.85 198.265C124.75 198.725 125.21 199.345 125.21 200.145C125.21 200.785 124.89 201.285 124.25 201.645C123.61 202.005 122.75 202.205 121.67 202.205C120.47 202.205 119.59 201.985 119.01 201.545C118.37 201.065 117.97 200.245 117.81 199.125H115.65C115.77 200.925 116.41 202.245 117.59 203.085C118.57 203.765 119.93 204.125 121.67 204.125C123.47 204.125 124.87 203.765 125.87 203.045C126.87 202.305 127.37 201.305 127.37 200.025C127.37 198.705 126.75 197.685 125.53 196.945C124.97 196.605 123.71 196.145 121.79 195.545C120.45 195.145 119.63 194.845 119.31 194.665C118.59 194.285 118.25 193.785 118.25 193.145C118.25 192.425 118.55 191.905 119.17 191.585C119.67 191.305 120.39 191.165 121.33 191.165C122.41 191.165 123.21 191.365 123.77 191.785C124.33 192.185 124.69 192.865 124.89 193.785H127.05C126.91 192.225 126.35 191.085 125.35 190.345C124.41 189.625 123.11 189.285 121.45 189.285ZM129.399 189.565V203.845H139.999V201.985H131.579V197.445H139.179V195.585H131.579V191.425H139.659V189.565H129.399Z" fill="white"/>
<path opacity="0.18489" d="M445.652 0H355.405C334.852 0 318.19 16.6618 318.19 37.2152C318.19 57.7686 334.852 74.4304 355.405 74.4304H445.652C466.205 74.4304 482.867 57.7686 482.867 37.2152C482.867 16.6618 466.205 0 445.652 0Z" fill="#5B6E84"/>
<path d="M380.968 48.6432L380.584 49.0112C381.768 49.8912 382.728 50.7392 383.464 51.5552L383.832 51.1712C383.064 50.3392 382.12 49.4912 380.968 48.6432ZM390.616 62.6432H394.36L394.504 62.0672C394.088 62.0672 393.512 62.0832 392.776 62.0992C392.008 62.0992 391.272 62.1152 390.536 62.1152C389.288 62.1152 388.296 62.0992 387.56 62.0832C386.632 62.0512 385.912 61.9392 385.368 61.7472C384.856 61.5232 384.408 61.1712 384.008 60.6592C383.8 60.4032 383.592 60.2272 383.384 60.1472V54.1632H380.376V54.7072H382.856V60.1312C382.2 60.2912 381.384 61.0912 380.392 62.5632L380.84 62.9152C381.864 61.3952 382.616 60.6432 383.096 60.6432C383.288 60.6432 383.496 60.7712 383.704 61.0592C384.216 61.6992 384.792 62.0992 385.4 62.2912C386.008 62.4832 386.808 62.5792 387.816 62.6112C388.824 62.6272 389.752 62.6432 390.616 62.6432ZM385.896 49.5232V50.0672H392.984V49.5232H385.896ZM384.952 53.2032V53.7472H388.52C387.192 57.3152 386.184 59.2032 385.512 59.4112L385.656 59.9232C388.648 59.6672 391.032 59.3632 392.792 59.0112C392.984 59.4912 393.176 59.9712 393.352 60.4832L393.848 60.3552C393.144 58.4352 392.36 56.7392 391.464 55.2672L390.984 55.4112C391.576 56.4032 392.104 57.4432 392.568 58.4992C390.984 58.8512 388.92 59.1392 386.376 59.3472C387.048 58.5952 387.944 56.7232 389.048 53.7472H394.136V53.2032H384.952ZM399.64 54.3552V57.2992H407.048V54.3552H399.64ZM406.52 56.8352H400.168V54.8192H406.52V56.8352ZM408.6 58.7552H398.2V62.9632H398.744V62.2432H408.072V62.9632H408.6V58.7552ZM398.744 61.7632V59.2672H408.072V61.7632H398.744ZM396.52 49.7152V50.2112H400.344V51.3632H400.888V50.2112H405.752V51.3632H406.296V50.2112H410.12V49.7152H406.296V48.4672H405.752V49.7152H400.888V48.4672H400.344V49.7152H396.52ZM409.496 52.3072H397.144V55.0752H397.688V52.8032H408.952V54.9952H409.496V52.3072ZM416.6 57.3632V60.8512H422.024V57.3632H416.6ZM421.496 60.3552H417.128V57.8912H421.496V60.3552ZM420.616 54.1472L420.248 54.4992C421.656 55.5552 422.792 56.5632 423.64 57.5232L424.04 57.1232C423.128 56.1312 421.992 55.1392 420.616 54.1472ZM418.968 48.2912L418.376 48.3872C418.648 48.8672 418.904 49.3952 419.16 49.9872H412.312V50.5312H415.752C416.184 51.2672 416.536 52.0672 416.824 52.9472H413.32V62.8352H413.848V53.4592H424.76V61.5712C424.76 62.0992 424.488 62.3712 423.96 62.3712L422.376 62.3552L422.52 62.8832H424.152C424.904 62.8832 425.288 62.4832 425.288 61.6832V52.9472H421.56C422.008 52.2432 422.392 51.4432 422.744 50.5312H426.328V49.9872H419.72C419.48 49.3472 419.224 48.7712 418.968 48.2912ZM417.384 52.9472C417.08 52.0192 416.744 51.2032 416.376 50.5312H422.12C421.8 51.3952 421.416 52.1952 420.984 52.9472H417.384ZM417.912 54.1792C416.968 55.2672 415.816 56.2272 414.44 57.0432L414.792 57.4912C416.184 56.6432 417.352 55.6512 418.312 54.5312L417.912 54.1792Z" fill="white"/>
<path d="M349.44 22.7469C347.26 22.7469 345.54 23.4469 344.3 24.8869C343.1 26.2469 342.52 28.0069 342.52 30.1869C342.52 32.3469 343.1 34.1069 344.3 35.4669C345.54 36.8669 347.26 37.5869 349.44 37.5869C351.6 37.5869 353.32 36.8869 354.58 35.4869C355.78 34.1269 356.38 32.3669 356.38 30.1869C356.38 27.9869 355.78 26.2069 354.58 24.8669C353.32 23.4469 351.6 22.7469 349.44 22.7469ZM349.44 24.6669C350.96 24.6669 352.14 25.1469 352.96 26.1469C353.76 27.1269 354.18 28.4669 354.18 30.1869C354.18 31.8869 353.76 33.2269 352.96 34.1869C352.14 35.1669 350.96 35.6669 349.44 35.6669C347.92 35.6669 346.74 35.1469 345.9 34.1469C345.1 33.1669 344.7 31.8469 344.7 30.1869C344.7 28.5069 345.1 27.1869 345.9 26.2069C346.74 25.1669 347.92 24.6669 349.44 24.6669ZM358.588 23.0269V37.3069H360.768V31.7469H364.468C367.888 31.7469 369.608 30.2869 369.608 27.3669C369.608 24.4669 367.908 23.0269 364.508 23.0269H358.588ZM360.768 24.8869H364.328C365.388 24.8869 366.168 25.0869 366.668 25.4869C367.168 25.8469 367.428 26.4869 367.428 27.3669C367.428 28.2469 367.168 28.8869 366.688 29.2869C366.188 29.6869 365.408 29.8869 364.328 29.8869H360.768V24.8869ZM371.635 23.0269V37.3069H382.235V35.4469H373.815V30.9069H381.415V29.0469H373.815V24.8869H381.895V23.0269H371.635ZM384.448 23.0269V37.3069H386.628V31.4069H390.488C391.308 31.4069 391.928 31.5669 392.368 31.9269C392.788 32.2869 393.048 32.8469 393.128 33.6469L393.308 35.4269C393.388 36.2269 393.588 36.8669 393.928 37.3069H396.288C395.808 36.7869 395.528 36.0869 395.448 35.2069L395.208 32.9269C395.048 31.5269 394.348 30.6869 393.068 30.4069V30.3669C393.848 30.1669 394.468 29.7469 394.928 29.1069C395.328 28.5269 395.528 27.8669 395.528 27.1069C395.528 25.7469 395.088 24.7269 394.208 24.0069C393.368 23.3469 392.208 23.0269 390.768 23.0269H384.448ZM386.628 24.8869H390.468C391.468 24.8869 392.188 25.0669 392.668 25.4469C393.108 25.8069 393.348 26.3869 393.348 27.1869C393.348 27.9469 393.108 28.5269 392.648 28.9269C392.168 29.3269 391.448 29.5469 390.488 29.5469H386.628V24.8869ZM402.395 23.0269L396.895 37.3069H399.215L400.555 33.6269H406.695L408.035 37.3069H410.375L404.875 23.0269H402.395ZM401.215 31.8269L403.595 25.3669H403.675L406.035 31.8269H401.215ZM410.672 23.0269V24.8869H415.452V37.3069H417.612V24.8869H422.372V23.0269H410.672ZM430.416 22.7469C428.236 22.7469 426.516 23.4469 425.276 24.8869C424.076 26.2469 423.496 28.0069 423.496 30.1869C423.496 32.3469 424.076 34.1069 425.276 35.4669C426.516 36.8669 428.236 37.5869 430.416 37.5869C432.576 37.5869 434.296 36.8869 435.556 35.4869C436.756 34.1269 437.356 32.3669 437.356 30.1869C437.356 27.9869 436.756 26.2069 435.556 24.8669C434.296 23.4469 432.576 22.7469 430.416 22.7469ZM430.416 24.6669C431.936 24.6669 433.116 25.1469 433.936 26.1469C434.736 27.1269 435.156 28.4669 435.156 30.1869C435.156 31.8869 434.736 33.2269 433.936 34.1869C433.116 35.1669 431.936 35.6669 430.416 35.6669C428.896 35.6669 427.716 35.1469 426.876 34.1469C426.076 33.1669 425.676 31.8469 425.676 30.1869C425.676 28.5069 426.076 27.1869 426.876 26.2069C427.716 25.1669 428.896 24.6669 430.416 24.6669ZM439.565 23.0269V37.3069H441.745V31.4069H445.605C446.425 31.4069 447.045 31.5669 447.485 31.9269C447.905 32.2869 448.165 32.8469 448.245 33.6469L448.425 35.4269C448.505 36.2269 448.705 36.8669 449.045 37.3069H451.405C450.925 36.7869 450.645 36.0869 450.565 35.2069L450.325 32.9269C450.165 31.5269 449.465 30.6869 448.185 30.4069V30.3669C448.965 30.1669 449.585 29.7469 450.045 29.1069C450.445 28.5269 450.645 27.8669 450.645 27.1069C450.645 25.7469 450.205 24.7269 449.325 24.0069C448.485 23.3469 447.325 23.0269 445.885 23.0269H439.565ZM441.745 24.8869H445.585C446.585 24.8869 447.305 25.0669 447.785 25.4469C448.225 25.8069 448.465 26.3869 448.465 27.1869C448.465 27.9469 448.225 28.5269 447.765 28.9269C447.285 29.3269 446.565 29.5469 445.605 29.5469H441.745V24.8869ZM458.413 22.7469C456.893 22.7469 455.633 23.0869 454.633 23.7669C453.573 24.4869 453.053 25.4669 453.053 26.7269C453.053 27.9669 453.593 28.9269 454.693 29.5869C455.133 29.8269 456.213 30.2069 457.973 30.7669C459.553 31.2469 460.493 31.5669 460.813 31.7269C461.713 32.1869 462.173 32.8069 462.173 33.6069C462.173 34.2469 461.853 34.7469 461.213 35.1069C460.573 35.4669 459.713 35.6669 458.633 35.6669C457.433 35.6669 456.553 35.4469 455.973 35.0069C455.333 34.5269 454.933 33.7069 454.773 32.5869H452.613C452.733 34.3869 453.373 35.7069 454.553 36.5469C455.533 37.2269 456.893 37.5869 458.633 37.5869C460.433 37.5869 461.833 37.2269 462.833 36.5069C463.833 35.7669 464.333 34.7669 464.333 33.4869C464.333 32.1669 463.713 31.1469 462.493 30.4069C461.933 30.0669 460.673 29.6069 458.753 29.0069C457.413 28.6069 456.593 28.3069 456.273 28.1269C455.553 27.7469 455.213 27.2469 455.213 26.6069C455.213 25.8869 455.513 25.3669 456.133 25.0469C456.633 24.7669 457.353 24.6269 458.293 24.6269C459.373 24.6269 460.173 24.8269 460.733 25.2469C461.293 25.6469 461.653 26.3269 461.853 27.2469H464.013C463.873 25.6869 463.313 24.5469 462.313 23.8069C461.373 23.0869 460.073 22.7469 458.413 22.7469Z" fill="white"/>
<path d="M285.161 36.75C285.161 39.5761 287.452 41.8671 290.278 41.8671C293.105 41.8671 295.396 39.5761 295.396 36.75C295.396 33.9239 293.105 31.6329 290.278 31.6329C287.452 31.6329 285.161 33.9239 285.161 36.75Z" fill="white"/>
<path d="M211.231 36.75C211.231 39.2999 213.298 41.3671 215.848 41.3671C218.398 41.3671 220.465 39.2999 220.465 36.75C220.465 34.2 218.398 32.1329 215.848 32.1329C213.298 32.1329 211.231 34.2 211.231 36.75Z" stroke="white"/>
<path opacity="0.493825" d="M279.579 36.75H226.547" stroke="white" stroke-width="3" stroke-dasharray="3 6"/>
<path d="M520.547 34.8892C520.547 37.7153 518.256 40.0063 515.43 40.0063C512.604 40.0063 510.313 37.7153 510.313 34.8892C510.313 32.0632 512.604 29.7722 515.43 29.7722C518.256 29.7722 520.547 32.0632 520.547 34.8892Z" fill="white"/>
<path d="M594.478 34.8892C594.478 37.4392 592.411 39.5063 589.861 39.5063C587.311 39.5063 585.244 37.4392 585.244 34.8892C585.244 32.3393 587.311 30.2722 589.861 30.2722C592.411 30.2722 594.478 32.3393 594.478 34.8892Z" stroke="white"/>
<path opacity="0.493825" d="M526.13 34.8893H579.161" stroke="white" stroke-width="3" stroke-dasharray="3 6"/>
<path d="M419.795 101.364C418.275 101.364 417.015 101.704 416.015 102.384C414.955 103.104 414.435 104.084 414.435 105.344C414.435 106.584 414.975 107.544 416.075 108.204C416.515 108.444 417.595 108.824 419.355 109.384C420.935 109.864 421.875 110.184 422.195 110.344C423.095 110.804 423.555 111.424 423.555 112.224C423.555 112.864 423.235 113.364 422.595 113.724C421.955 114.084 421.095 114.284 420.015 114.284C418.815 114.284 417.935 114.064 417.355 113.624C416.715 113.144 416.315 112.324 416.155 111.204H413.995C414.115 113.004 414.755 114.324 415.935 115.164C416.915 115.844 418.275 116.204 420.015 116.204C421.815 116.204 423.215 115.844 424.215 115.124C425.215 114.384 425.715 113.384 425.715 112.104C425.715 110.784 425.095 109.764 423.875 109.024C423.315 108.684 422.055 108.224 420.135 107.624C418.795 107.224 417.975 106.924 417.655 106.744C416.935 106.364 416.595 105.864 416.595 105.224C416.595 104.504 416.895 103.984 417.515 103.664C418.015 103.384 418.735 103.244 419.675 103.244C420.755 103.244 421.555 103.444 422.115 103.864C422.675 104.264 423.035 104.944 423.235 105.864H425.395C425.255 104.304 424.695 103.164 423.695 102.424C422.755 101.704 421.455 101.364 419.795 101.364ZM427.784 101.644V115.924H429.944V101.644H427.784ZM432.783 101.644V115.924H434.963V110.364H438.663C442.083 110.364 443.803 108.904 443.803 105.984C443.803 103.084 442.103 101.644 438.703 101.644H432.783ZM434.963 103.504H438.523C439.583 103.504 440.363 103.704 440.863 104.104C441.363 104.464 441.623 105.104 441.623 105.984C441.623 106.864 441.363 107.504 440.883 107.904C440.383 108.304 439.603 108.504 438.523 108.504H434.963V103.504Z" fill="#4795FE"/>
<path d="M558.182 169.562L552.682 183.842H555.002L556.342 180.162H562.482L563.822 183.842H566.162L560.662 169.562H558.182ZM557.002 178.362L559.382 171.902H559.462L561.822 178.362H557.002ZM567.559 169.562V183.842H569.739V178.282H573.439C576.859 178.282 578.579 176.822 578.579 173.902C578.579 171.002 576.879 169.562 573.479 169.562H567.559ZM569.739 171.422H573.299C574.359 171.422 575.139 171.622 575.639 172.022C576.139 172.382 576.399 173.022 576.399 173.902C576.399 174.782 576.139 175.422 575.659 175.822C575.159 176.222 574.379 176.422 573.299 176.422H569.739V171.422ZM580.645 169.562V183.842H582.805V169.562H580.645Z" fill="#66D2C0"/>
<path d="M749.675 275.625V289.905H751.855V283.505H759.335V289.905H761.515V275.625H759.335V281.645H751.855V275.625H749.675ZM763.224 275.625V277.485H768.004V289.905H770.164V277.485H774.924V275.625H763.224ZM775.548 275.625V277.485H780.328V289.905H782.488V277.485H787.248V275.625H775.548ZM788.972 275.625V289.905H791.152V284.345H794.852C798.272 284.345 799.992 282.885 799.992 279.965C799.992 277.065 798.292 275.625 794.892 275.625H788.972ZM791.152 277.485H794.712C795.772 277.485 796.552 277.685 797.052 278.085C797.552 278.445 797.812 279.085 797.812 279.965C797.812 280.845 797.552 281.485 797.072 281.885C796.572 282.285 795.792 282.485 794.712 282.485H791.152V277.485ZM808.199 273.505L801.199 291.905H803.059L810.039 273.505H808.199ZM816.119 275.625L810.619 289.905H812.939L814.279 286.225H820.419L821.759 289.905H824.099L818.599 275.625H816.119ZM814.939 284.425L817.319 277.965H817.399L819.759 284.425H814.939ZM825.495 275.625V289.905H827.675V284.345H831.375C834.795 284.345 836.515 282.885 836.515 279.965C836.515 277.065 834.815 275.625 831.415 275.625H825.495ZM827.675 277.485H831.235C832.295 277.485 833.075 277.685 833.575 278.085C834.075 278.445 834.335 279.085 834.335 279.965C834.335 280.845 834.075 281.485 833.595 281.885C833.095 282.285 832.315 282.485 831.235 282.485H827.675V277.485ZM838.582 275.625V289.905H840.742V275.625H838.582Z" fill="#7BFD93"/>
<defs>
<linearGradient id="paint0_linear_39_66" x1="410.892" y1="133.975" x2="410.892" y2="229.975" gradientUnits="userSpaceOnUse">
<stop stop-color="#4793FF"/>
<stop offset="1" stop-color="#7CFF94"/>
</linearGradient>
<linearGradient id="paint1_linear_39_66" x1="387.229" y1="158.486" x2="387.229" y2="252.518" gradientUnits="userSpaceOnUse">
<stop stop-color="#4793FF"/>
<stop offset="1" stop-color="#7CFF94"/>
</linearGradient>
<linearGradient id="paint2_linear_39_66" x1="387.229" y1="157.486" x2="387.229" y2="253.485" gradientUnits="userSpaceOnUse">
<stop stop-color="#4793FF"/>
<stop offset="1" stop-color="#7CFF94"/>
</linearGradient>
<linearGradient id="paint3_linear_39_66" x1="718.38" y1="147.465" x2="718.38" y2="223.815" gradientUnits="userSpaceOnUse">
<stop stop-color="#4793FF"/>
<stop offset="1" stop-color="#7CFF94"/>
</linearGradient>
<linearGradient id="paint4_linear_39_66" x1="699.561" y1="167.164" x2="699.561" y2="241.545" gradientUnits="userSpaceOnUse">
<stop stop-color="#4793FF"/>
<stop offset="1" stop-color="#7CFF94"/>
</linearGradient>
<linearGradient id="paint5_linear_39_66" x1="699.561" y1="166.164" x2="699.561" y2="242.513" gradientUnits="userSpaceOnUse">
<stop stop-color="#4793FF"/>
<stop offset="1" stop-color="#7CFF94"/>
</linearGradient>
</defs>
</svg>
