<svg xmlns="http://www.w3.org/2000/svg" xmlns:xlink="http://www.w3.org/1999/xlink" viewBox="0 0 252.94 70.25"><defs><style>.cls-1{fill:currentColor;}.cls-2{opacity:0.3;}.cls-3{fill:url(#未命名的渐变_2758);}.cls-4{opacity:0.2;fill:url(#未命名的渐变_955);}.cls-5{fill:url(#未命名的渐变_1115);}.cls-6{fill:url(#未命名的渐变_955-2);}.cls-7{fill:url(#未命名的渐变_970);}</style><linearGradient id="未命名的渐变_2758" x1="1183.94" y1="-60.57" x2="1223.76" y2="-20.75" gradientTransform="matrix(0.55, -0.71, 0.55, 0.71, -621.91, 907.18)" gradientUnits="userSpaceOnUse"><stop offset="0.5" stop-color="#0d90fe"/><stop offset="0.59" stop-color="#23a5fd"/><stop offset="0.77" stop-color="#45c5fb"/><stop offset="0.91" stop-color="#5ad9fa"/><stop offset="1" stop-color="#62e0fa"/></linearGradient><linearGradient id="未命名的渐变_955" x1="1105.48" y1="-123.15" x2="1136.74" y2="-154.41" gradientTransform="translate(1137.93 -98.3) rotate(180)" gradientUnits="userSpaceOnUse"><stop offset="0" stop-color="#1dff96"/><stop offset="1" stop-color="#02fff9"/></linearGradient><linearGradient id="未命名的渐变_1115" x1="18.53" y1="27.14" x2="58.35" y2="66.95" gradientTransform="translate(-22.01 40.96) rotate(-45)" gradientUnits="userSpaceOnUse"><stop offset="0.39" stop-color="#006aed"/><stop offset="1" stop-color="#00edff"/></linearGradient><linearGradient id="未命名的渐变_955-2" x1="20.56" y1="45.05" x2="60.28" y2="5.33" gradientTransform="matrix(1, 0, 0, 1, 0, 0)" xlink:href="#未命名的渐变_955"/><linearGradient id="未命名的渐变_970" x1="20.57" y1="45.06" x2="36.46" y2="29.16" gradientUnits="userSpaceOnUse"><stop offset="0" stop-color="#1deca0" stop-opacity="0.85"/><stop offset="1" stop-color="#13ecc1" stop-opacity="0.85"/></linearGradient></defs><g id="图层_2" data-name="图层 2"><g id="图层_1-2" data-name="图层 1"><path class="cls-1" d="M91.77,51.31l10.32-15.75L92.74,21.13h7.12l6.06,9.69,5.93-9.69h7.06l-9.39,14.66,10.32,15.52h-7.36l-6.69-10.44L99.08,51.31Z"/><path class="cls-1" d="M121.42,41.49l5.93-.58a7.29,7.29,0,0,0,2.17,4.39,6.6,6.6,0,0,0,4.42,1.4,6.81,6.81,0,0,0,4.44-1.25,3.71,3.71,0,0,0,1.49-2.91,2.74,2.74,0,0,0-.63-1.82,5,5,0,0,0-2.19-1.31c-.72-.25-2.34-.69-4.88-1.32q-4.9-1.22-6.88-3A7.87,7.87,0,0,1,122.51,29a7.79,7.79,0,0,1,1.31-4.31,8.18,8.18,0,0,1,3.77-3.06,15.1,15.1,0,0,1,5.94-1.05q5.68,0,8.55,2.49a8.79,8.79,0,0,1,3,6.65L139,30a5.17,5.17,0,0,0-1.67-3.34,6.15,6.15,0,0,0-3.86-1,6.93,6.93,0,0,0-4.16,1.09,2.18,2.18,0,0,0-1,1.87,2.31,2.31,0,0,0,.9,1.83q1.15,1,5.6,2a29.91,29.91,0,0,1,6.58,2.17,8.47,8.47,0,0,1,3.34,3.07,9,9,0,0,1,1.2,4.81,8.9,8.9,0,0,1-1.44,4.86,8.59,8.59,0,0,1-4.08,3.36,16.92,16.92,0,0,1-6.56,1.11c-3.82,0-6.75-.89-8.79-2.65A11.48,11.48,0,0,1,121.42,41.49Z"/><path class="cls-1" d="M155.13,51.31l-6.92-21.87h5.62l4.1,14.33,3.76-14.33h5.58l3.65,14.33,4.18-14.33h5.7l-7,21.87h-5.56l-3.77-14.06-3.7,14.06Z"/><path class="cls-1" d="M183.85,26.48V21.13h5.78v5.35Zm0,24.83V29.44h5.78V51.31Z"/><path class="cls-1" d="M205.59,29.44v4.62h-4v8.81a21.53,21.53,0,0,0,.11,3.12,1.28,1.28,0,0,0,.51.73,1.67,1.67,0,0,0,1,.29,7.55,7.55,0,0,0,2.33-.56l.49,4.49a11.43,11.43,0,0,1-4.57.86,7.27,7.27,0,0,1-2.82-.52,4.06,4.06,0,0,1-1.84-1.36,5.4,5.4,0,0,1-.81-2.25,27.06,27.06,0,0,1-.19-4.08V34.06h-2.66V29.44h2.66V25.1l5.81-3.38v7.72Z"/><path class="cls-1" d="M228.67,35.91l-5.7,1a4.15,4.15,0,0,0-1.31-2.57A3.94,3.94,0,0,0,219,33.5,4.34,4.34,0,0,0,215.56,35c-.85,1-1.28,2.66-1.28,5,0,2.59.43,4.42,1.31,5.49a4.29,4.29,0,0,0,3.51,1.61,3.87,3.87,0,0,0,2.69-.94,5.64,5.64,0,0,0,1.49-3.22l5.68,1a10,10,0,0,1-3.4,5.91,10.51,10.51,0,0,1-6.73,2,10,10,0,0,1-7.65-3q-2.85-3-2.85-8.38T211.19,32a10.17,10.17,0,0,1,7.74-3,10.53,10.53,0,0,1,6.35,1.72A9.56,9.56,0,0,1,228.67,35.91Z"/><path class="cls-1" d="M238.82,21.13V32.22a8.67,8.67,0,0,1,10.29-2.53,5.93,5.93,0,0,1,2.42,1.9,6.72,6.72,0,0,1,1.12,2.55,23.72,23.72,0,0,1,.29,4.34V51.31h-5.78V39.76a17.15,17.15,0,0,0-.33-4.37,2.94,2.94,0,0,0-1.16-1.47,3.8,3.8,0,0,0-2.09-.54,4.8,4.8,0,0,0-2.58.7,4,4,0,0,0-1.66,2.11,12.9,12.9,0,0,0-.52,4.17v11H233V21.13Z"/><g class="cls-2"><path class="cls-3" d="M-3,15.93H29.59A11.25,11.25,0,0,1,40.84,27.18v0A11.25,11.25,0,0,1,29.59,38.43H8.22A11.25,11.25,0,0,1-3,27.18V15.93a0,0,0,0,1,0,0Z" transform="translate(13.06 59.77) rotate(-135)"/></g><path class="cls-4" d="M22.41,22.93a5.74,5.74,0,0,0,0-8.13l12,12a11.25,11.25,0,0,1,0,15.89L19.19,58.21a11.25,11.25,0,0,1-15.9,0l-.1-.11a11.24,11.24,0,0,1,.1-15.79Z"/><path class="cls-5" d="M10.29,35.79H55.34A11.25,11.25,0,0,1,66.59,47v0A11.25,11.25,0,0,1,55.34,58.3H21.54A11.25,11.25,0,0,1,10.29,47V35.79a0,0,0,0,1,0,0Z" transform="translate(44.53 -13.4) rotate(45)"/><path class="cls-6" d="M30.54,46.89a5.75,5.75,0,0,0,0,8.14l-12-12a11.23,11.23,0,0,1,0-15.89L42.35,3.29a11.25,11.25,0,0,1,15.9,0l.1.11a11.24,11.24,0,0,1-.1,15.78Z"/><path class="cls-7" d="M30.54,55l-12-12a11.13,11.13,0,0,1-3.27-7.4,9.19,9.19,0,0,1,0-1,11.13,11.13,0,0,1,3.27-7.41l8-8L42.37,35.06,30.54,46.89A5.75,5.75,0,0,0,30.54,55Z"/></g></g></svg>