<svg width="16" height="13" viewBox="0 0 16 13" fill="none" xmlns="http://www.w3.org/2000/svg">
<path d="M15.882 9.14799V2.74997L12.5439 6.0891L15.882 9.14701V9.14799ZM10.248 8.38401C9.70364 8.93142 8.96298 9.23838 8.191 9.23649C7.41423 9.23649 6.68269 8.93364 6.13305 8.38401L4.34255 6.59252L0.5 10.1145V10.7045C0.5 11.4763 1.12732 12.1037 1.89819 12.1037H14.4838C15.2547 12.1037 15.882 11.4763 15.882 10.7055V10.0958L12.0483 6.58367L10.2489 8.38302" fill="#C0C9D1"/>
<path d="M14.5123 0.100098H1.9267C1.15681 0.100098 0.530481 0.727413 0.530481 1.49828V1.79031L6.65713 7.91892C7.07501 8.33582 7.63055 8.5659 8.2205 8.5659C8.81143 8.5659 9.36697 8.33582 9.78387 7.91892L15.9115 1.79031V1.49828C15.9115 0.727413 15.2822 0.100098 14.5123 0.100098ZM0.5 2.74996V9.16569L3.84699 6.09794L0.5 2.74996Z" fill="#C0C9D1"/>
</svg>