<svg width="18" height="18" viewBox="0 0 18 18" fill="none" xmlns="http://www.w3.org/2000/svg">
<path d="M4.96406 8.08594C6.04688 10.2094 7.79063 11.9531 9.91406 13.0359L11.5594 11.3906C11.7562 11.1937 12.0656 11.1234 12.3188 11.2078C13.1625 11.4891 14.0766 11.6297 15.0047 11.6297C15.4125 11.6297 15.75 11.9672 15.75 12.375V14.9906C15.75 15.3984 15.4125 15.736 15.0047 15.736C7.95937 15.75 2.25 10.0406 2.25 2.99531C2.25 2.5875 2.5875 2.25 2.99531 2.25H5.625C6.03281 2.25 6.37031 2.57344 6.37031 2.98125C6.37031 3.92344 6.525 4.82344 6.79219 5.66719C6.87656 5.93438 6.82031 6.21562 6.60938 6.42656L4.96406 8.08594Z" fill="#C0C9D1"/>
</svg>
