
<svg width="32px" height="36px" viewBox="0 0 32 36" version="1.1" xmlns="http://www.w3.org/2000/svg" xmlns:xlink="http://www.w3.org/1999/xlink">
    <defs>
        <linearGradient x1="86.3678999%" y1="78.7270415%" x2="21.1607566%" y2="5.43645158%" id="linearGradient--1_ww2j133-1">
            <stop stop-color="#0D90FE" offset="50%"></stop>
            <stop stop-color="#23A5FD" offset="59%"></stop>
            <stop stop-color="#45C5FB" offset="77%"></stop>
            <stop stop-color="#5AD9FA" offset="91%"></stop>
            <stop stop-color="#62E0FA" offset="100%"></stop>
        </linearGradient>
        <linearGradient x1="73.5276658%" y1="21.4987496%" x2="19.4803525%" y2="88.4578139%" id="linearGradient--1_ww2j133-2">
            <stop stop-color="#1DFF96" offset="0%"></stop>
            <stop stop-color="#02FFF9" offset="100%"></stop>
        </linearGradient>
        <linearGradient x1="14.5666923%" y1="15.579963%" x2="85.4268771%" y2="93.5356641%" id="linearGradient--1_ww2j133-3">
            <stop stop-color="#006AED" offset="39%"></stop>
            <stop stop-color="#00EDFF" offset="100%"></stop>
        </linearGradient>
        <linearGradient x1="22.7452985%" y1="81.8644521%" x2="83.4582527%" y2="9.685809%" id="linearGradient--1_ww2j133-4">
            <stop stop-color="#1DFF96" offset="0%"></stop>
            <stop stop-color="#02FFF9" offset="100%"></stop>
        </linearGradient>
        <linearGradient x1="32.5709904%" y1="72.2427936%" x2="66.1682575%" y2="27.8411947%" id="linearGradient--1_ww2j133-5">
            <stop stop-color="#1DECA0" stop-opacity="0.85" offset="0%"></stop>
            <stop stop-color="#13ECC1" stop-opacity="0.85" offset="100%"></stop>
        </linearGradient>
    </defs>
    <g id="Page-1" stroke="none" stroke-width="1" fill="none" fill-rule="evenodd">
        <g id="Group" transform="translate(-0.000000, 0.000000)" fill-rule="nonzero">
            <g opacity="0.3" transform="translate(0.054176, 4.293114)" fill="url(#linearGradient--1_ww2j133-1)" id="Path">
                <path d="M13.4977721,21.6507234 L1.68854738,9.84159995 C1.1532162,9.30621252 0.728561379,8.67070011 0.438840167,7.9712877 C0.149118955,7.27176279 -3.27862694e-16,6.52213039 -3.27862694e-16,5.76503924 C-3.27862694e-16,5.00799309 0.14911783,4.25832694 0.438839042,3.55889203 C0.728561379,2.85940087 1.1532162,2.22391096 1.68854738,1.68854603 C2.22387856,1.15319235 2.85941347,0.728561154 3.55887088,0.438839942 C4.25831704,0.14911873 5.00798319,-4.99600295e-16 5.76506309,-4.99600295e-16 C6.52215424,-4.99600295e-16 7.27180914,0.14911873 7.9712553,0.438839942 C8.67070146,0.728561154 9.30623637,1.15319235 9.84154505,1.68854603 L17.5851215,9.43210001 C18.6615214,10.5142374 19.2648588,11.9790997 19.2628389,13.505387 C19.2608088,15.0317868 18.6535339,16.4949616 17.574209,17.5742864 L13.4977721,21.6507234 Z"></path>
            </g>
            <path d="M11.4839737,11.7505014 C11.7580236,11.477239 11.9754861,11.1525753 12.1238736,10.7951403 C12.2722611,10.4376604 12.3486485,10.0544517 12.3486485,9.66739547 C12.3486485,9.28039552 12.2722611,8.89713058 12.1238736,8.53969562 C11.9754861,8.18221567 11.7580236,7.85757446 11.4839737,7.5842895 L17.6333353,13.7336512 C18.7113102,14.8144385 19.3167851,16.2786259 19.3167851,17.8051382 C19.3167851,19.331538 18.7113102,20.7957253 17.6333353,21.8765126 L9.83384638,29.8296991 C8.75287902,30.9093614 7.28763421,31.5157363 5.75987316,31.5157363 C4.23213461,31.5157363 2.76686731,30.9093614 1.6859112,29.8296991 L1.63466746,29.7733366 C0.577750345,28.6887242 -0.00947527785,27.2313994 0,25.7170371 C0.00970657713,24.2026748 0.615337715,22.753 1.6859112,21.6817751 L11.4839737,11.7505014 Z" id="Path" fill="url(#linearGradient--1_ww2j133-2)" opacity="0.2"></path>
            <path d="M13.5792859,9.8306217 L29.9033712,26.1547746 C30.9820211,27.2334244 31.5891835,28.6955867 31.5918933,30.2210865 C31.594696,31.7464738 30.9927086,33.2107736 29.9178837,34.293361 C29.3833963,34.8324609 28.7476589,35.2609734 28.047234,35.5538108 C27.3466966,35.8466483 26.5953092,35.9982983 25.8360468,36 C25.0768969,36.0016733 24.324722,35.8533983 23.6229471,35.5635983 C22.9212847,35.2737984 22.2836347,34.8483234 21.7467848,34.311361 L9.49911392,22.0637126 C8.96221899,21.5268627 8.53667655,20.8893252 8.24694409,20.1875503 C7.95714412,19.4857754 7.80884664,18.733713 7.8105199,17.9744506 C7.81223289,17.2151882 7.96386037,16.4638008 8.25673158,15.7632634 C8.54959155,15.0628385 8.97794649,14.4271011 9.51720392,13.8926137 L13.5792859,9.8306217 Z" id="Path" fill="url(#linearGradient--1_ww2j133-3)"></path>
            <path d="M15.6501856,24.0287498 C15.3759106,24.3024623 15.1583357,24.6275873 15.0099482,24.9854497 C14.8614482,25.3434247 14.7850607,25.7270496 14.7850607,26.1144996 C14.7850607,26.5019495 14.8614482,26.8855745 15.0099482,27.2434369 C15.1583357,27.6012994 15.3759106,27.9264243 15.6501856,28.2001368 L9.50076767,22.0507751 C8.96576274,21.5162877 8.5413003,20.8815627 8.25172533,20.1830503 C7.96213912,19.4844254 7.81306539,18.735513 7.81306539,17.9792881 C7.81306539,17.2230632 7.96213912,16.4742633 8.25172533,15.7756384 C8.5413003,15.077126 8.96576274,14.4424011 9.50076767,13.9079137 L21.7022348,1.68600527 C22.7831347,0.606402542 24.248447,0 25.7761968,0 C27.3039466,0 28.7691464,0.606402542 29.8501587,1.68600527 L29.9013462,1.74237902 C30.9568211,2.82678887 31.5430585,4.28295493 31.5335014,5.79610223 C31.523821,7.30927203 30.9191336,8.75785559 29.8501587,9.82883295 L15.6501856,24.0287498 Z" id="Path" fill="url(#linearGradient--1_ww2j133-4)"></path>
            <path d="M15.6501856,28.1847243 L9.50074517,22.0353626 C8.48629905,21.0262377 7.88817038,19.6727504 7.82503539,18.2432131 C7.81575414,18.0725506 7.81575414,17.9014381 7.82503539,17.7307757 C7.88688788,16.2995509 8.4851178,14.943926 9.50074517,13.9335637 L13.6003234,9.8339517 L21.7123598,17.9665756 L15.6501856,24.0287498 C15.1009607,24.5808998 14.7925982,25.3280122 14.7925982,26.1067371 C14.7925982,26.8855745 15.1009607,27.6326869 15.6501856,28.1847243 Z" id="Path" fill="url(#linearGradient--1_ww2j133-5)"></path>
        </g>
    </g>
</svg>
