<svg width="115" height="32" viewBox="0 0 115 32" fill="none" xmlns="http://www.w3.org/2000/svg">
<g clip-path="url(#clip0_13_130)">
<g opacity="0.3">
<path opacity="0.3" d="M12.0464 23.0614L1.54917 12.5642C1.07331 12.0884 0.695838 11.5235 0.438305 10.9017C0.180772 10.28 0.0482203 9.6136 0.0482203 8.94064C0.0482203 8.26767 0.180771 7.60129 0.438304 6.97955C0.695837 6.35781 1.07331 5.79289 1.54917 5.31703C2.02503 4.84117 2.58995 4.4637 3.21169 4.20616C3.83343 3.94863 4.49981 3.81608 5.17278 3.81608C5.84574 3.81608 6.51212 3.94863 7.13386 4.20617C7.7556 4.4637 8.32052 4.84117 8.79638 5.31703L15.6796 12.2003C16.6364 13.1622 17.1727 14.4643 17.1709 15.821C17.1691 17.1778 16.6293 18.4785 15.67 19.4378L12.0464 23.0614Z" fill="url(#paint0_linear_13_130)"/>
</g>
<path opacity="0.2" d="M10.2081 10.445C10.4518 10.2021 10.6451 9.91346 10.777 9.59572C10.9089 9.27797 10.9768 8.93732 10.9768 8.59328C10.9768 8.24924 10.9089 7.90859 10.777 7.59084C10.6451 7.2731 10.4518 6.98451 10.2081 6.74161L15.6743 12.2078C16.6326 13.1685 17.1707 14.47 17.1707 15.8269C17.1707 17.1838 16.6326 18.4853 15.6743 19.4459L8.74136 26.5156C7.7805 27.4752 6.47802 28.0143 5.12 28.0143C3.76199 28.0143 2.45951 27.4752 1.49865 26.5156L1.4531 26.4655C0.513606 25.5013 -0.00837678 24.206 0.000148588 22.8598C0.00867395 21.5137 0.547022 20.225 1.49865 19.2729L10.2081 10.445Z" fill="url(#paint1_linear_13_130)"/>
<path d="M12.0706 8.73838L26.5812 23.2489C27.54 24.2077 28.0797 25.5075 28.0821 26.8634C28.0845 28.2194 27.5494 29.521 26.594 30.4832V30.4832C26.1189 30.9626 25.5539 31.3433 24.9312 31.6037C24.3086 31.864 23.6406 31.9988 22.9657 32.0003C22.2908 32.0018 21.6223 31.87 20.9985 31.6124C20.3747 31.3548 19.8079 30.9766 19.3307 30.4993L8.4438 19.6124C7.96657 19.1352 7.58831 18.5684 7.33073 17.9446C7.07315 17.3208 6.94133 16.6523 6.94282 15.9774C6.94432 15.3025 7.07911 14.6346 7.33945 14.0119C7.5998 13.3893 7.98057 12.8242 8.4599 12.3491L12.0706 8.73838Z" fill="url(#paint2_linear_13_130)"/>
<path d="M13.9115 21.3591C13.6677 21.6024 13.4743 21.8914 13.3423 22.2095C13.2104 22.5276 13.1424 22.8687 13.1424 23.2131C13.1424 23.5575 13.2104 23.8985 13.3423 24.2166C13.4743 24.5348 13.6677 24.8237 13.9115 25.067L8.44527 19.6008C7.96969 19.1258 7.5924 18.5616 7.33499 17.9406C7.07758 17.3196 6.94508 16.654 6.94508 15.9818C6.94508 15.3095 7.07758 14.6439 7.33499 14.0229C7.5924 13.4019 7.96969 12.8378 8.44527 12.3627L19.2911 1.49863C20.252 0.538971 21.5544 -6.10352e-05 22.9125 -6.10352e-05C24.2705 -6.10352e-05 25.573 0.538971 26.5338 1.49863L26.5794 1.54874C27.5175 2.51267 28.0386 3.80705 28.0301 5.1521C28.0215 6.49714 27.4841 7.78482 26.5338 8.73678L13.9115 21.3591Z" fill="url(#paint3_linear_13_130)"/>
<path d="M13.9115 25.0534L8.44526 19.5872C7.5435 18.6902 7.01183 17.487 6.95572 16.2163C6.94746 16.0646 6.94746 15.9126 6.95572 15.7608C7.0107 14.4886 7.54246 13.2836 8.44526 12.3855L12.0894 8.74133L19.3002 15.9704L13.9115 21.3591C13.4233 21.8499 13.1492 22.514 13.1492 23.2062C13.1492 23.8985 13.4233 24.5626 13.9115 25.0534V25.0534Z" fill="url(#paint4_linear_13_130)"/>
<path d="M40.5865 23.8872L45.2829 16.7129L41.0238 10.1398H44.2716L47.0047 14.5583L49.7059 10.1398H52.9219L48.6446 16.8176L53.3455 23.8872H49.9975L46.9728 19.1317L43.9118 23.8872H40.5865Z" fill="white"/>
<path d="M54.088 19.4141L56.7892 19.1499C56.8765 19.912 57.2278 20.6194 57.7822 21.1496C58.3523 21.5987 59.0662 21.8254 59.791 21.7873C60.511 21.8393 61.2265 21.6379 61.8135 21.2179C62.0204 21.0635 62.1891 20.8637 62.3068 20.6339C62.4244 20.4042 62.4879 20.1505 62.4922 19.8924C62.5001 19.5904 62.3981 19.2958 62.2053 19.0633C61.93 18.7815 61.5862 18.5759 61.2077 18.4666C60.8858 18.3542 60.1448 18.1538 58.9848 17.8653C57.4937 17.4948 56.4491 17.0393 55.8508 16.4988C55.4494 16.1584 55.1278 15.7338 54.909 15.2552C54.6901 14.7765 54.5793 14.2555 54.5845 13.7292C54.5857 13.0303 54.7933 12.3473 55.1812 11.766C55.5994 11.1382 56.1982 10.6522 56.8985 10.3721C57.7591 10.0323 58.6794 9.86962 59.6043 9.8938C61.3292 9.8938 62.6289 10.2719 63.5035 11.028C63.9346 11.4059 64.2797 11.8718 64.5155 12.3943C64.7512 12.9169 64.8721 13.4839 64.87 14.0572L62.096 14.1802C62.0405 13.5951 61.7673 13.0522 61.3307 12.6588C60.8114 12.3159 60.1928 12.1556 59.5724 12.2033C58.9043 12.1658 58.2413 12.3395 57.6774 12.6998C57.5356 12.7916 57.4194 12.9179 57.3397 13.0669C57.26 13.2159 57.2195 13.3827 57.2219 13.5516C57.2214 13.7132 57.2586 13.8727 57.3305 14.0174C57.4025 14.1622 57.5073 14.2881 57.6364 14.3852C57.9872 14.6813 58.8345 14.9865 60.1873 15.2962C61.2212 15.5092 62.2269 15.8409 63.1846 16.2847C63.8072 16.6054 64.3313 17.0887 64.7015 17.6831C65.0868 18.3474 65.2778 19.1066 65.2527 19.8742C65.254 20.6608 65.0243 21.4306 64.5922 22.088C64.1485 22.7797 63.5006 23.3162 62.7382 23.6231C61.7897 23.9873 60.7795 24.1636 59.7637 24.1423C58.0236 24.1423 56.689 23.74 55.7597 22.9352C54.7695 22.0208 54.1706 20.7594 54.088 19.4141V19.4141Z" fill="white"/>
<path d="M69.4434 23.8872L66.2912 13.9297H68.8512L70.7188 20.4572L72.427 13.9297H74.9688L76.6269 20.4572L78.531 13.9297H81.1274L77.9388 23.8872H75.4061L73.6934 17.4827L72.0034 23.8872H69.4434Z" fill="white"/>
<path d="M82.5258 12.5768V10.1398H85.1815V12.5768H82.5258ZM82.5258 23.8872V13.9297H85.1815V23.8872H82.5258Z" fill="white"/>
<path d="M92.4287 13.9297V16.0296H90.6477V20.0427C90.6326 20.517 90.6493 20.9918 90.6978 21.4639C90.7348 21.5993 90.8188 21.7172 90.9347 21.7964C91.0683 21.8885 91.2281 21.9348 91.3902 21.9285C91.7538 21.9005 92.1106 21.8143 92.447 21.6735L92.6747 23.7187C92.0152 23.9918 91.3067 24.1266 90.593 24.115C90.1515 24.1212 89.7132 24.0391 89.3039 23.8736C88.9715 23.7506 88.6809 23.5358 88.4658 23.2541C88.267 22.9447 88.1409 22.5943 88.0968 22.2292C88.0234 21.6126 87.9945 20.9915 88.0102 20.3707V16.0296H86.7758V13.9297H87.9829V11.9482L90.6477 10.4085V13.9297H92.4287Z" fill="white"/>
<path d="M102.947 16.8541L100.35 17.3096C100.294 16.872 100.084 16.4685 99.758 16.1708C99.4188 15.8966 98.9912 15.7557 98.5554 15.7745C98.2594 15.7626 97.9644 15.8175 97.6924 15.935C97.4204 16.0524 97.1783 16.2296 96.9839 16.4532C96.5922 16.9087 96.3963 17.6649 96.3963 18.7308C96.3963 19.9121 96.5952 20.7457 96.993 21.2316C97.1832 21.4709 97.427 21.6619 97.7048 21.7894C97.9826 21.9168 98.2865 21.9769 98.5919 21.965C99.0414 21.984 99.4813 21.8309 99.8218 21.5368C100.199 21.1337 100.436 20.619 100.496 20.07L103.083 20.5255C102.898 21.5766 102.35 22.5294 101.535 23.2176C100.647 23.8634 99.5649 24.185 98.4689 24.1287C97.8244 24.1607 97.1805 24.0555 96.5797 23.8199C95.9789 23.5843 95.4351 23.2237 94.9842 22.7621C94.1187 21.8511 93.686 20.5787 93.686 18.9449C93.686 17.3111 94.1202 16.0311 94.9888 15.1049C95.4473 14.642 95.9983 14.281 96.6058 14.0455C97.2134 13.8101 97.8637 13.7054 98.5144 13.7384C99.539 13.6839 100.554 13.9584 101.412 14.5218C102.167 15.1083 102.707 15.9284 102.947 16.8541V16.8541Z" fill="white"/>
<path d="M107.566 10.1398V15.196C108.109 14.5109 108.865 14.0255 109.714 13.8161C110.563 13.6068 111.458 13.6851 112.257 14.039C112.694 14.2268 113.074 14.5251 113.36 14.9045C113.61 15.2524 113.787 15.6476 113.879 16.066C113.988 16.7191 114.034 17.3811 114.016 18.043V23.8872H111.378V18.626C111.414 17.9603 111.363 17.2928 111.228 16.64C111.13 16.3609 110.941 16.1233 110.69 15.9658C110.404 15.7928 110.073 15.7073 109.738 15.7198C109.326 15.712 108.919 15.8227 108.568 16.0387C108.212 16.2624 107.945 16.6019 107.812 16.9998C107.625 17.615 107.543 18.2571 107.57 18.8993V23.8872H104.937V10.1398H107.566Z" fill="white"/>
</g>
<defs>
<linearGradient id="paint0_linear_13_130" x1="15.7663" y1="20.4898" x2="1.65812" y2="6.38439" gradientUnits="userSpaceOnUse">
<stop offset="0.5" stop-color="#0D90FE"/>
<stop offset="0.59" stop-color="#23A5FD"/>
<stop offset="0.77" stop-color="#45C5FB"/>
<stop offset="0.91" stop-color="#5AD9FA"/>
<stop offset="1" stop-color="#62E0FA"/>
</linearGradient>
<linearGradient id="paint1_linear_13_130" x1="14.7815" y1="11.315" x2="0.542068" y2="25.559" gradientUnits="userSpaceOnUse">
<stop stop-color="#1DFF96"/>
<stop offset="1" stop-color="#02FFF9"/>
</linearGradient>
<linearGradient id="paint2_linear_13_130" x1="8.44231" y1="12.3626" x2="26.581" y2="30.4966" gradientUnits="userSpaceOnUse">
<stop offset="0.39" stop-color="#006AED"/>
<stop offset="1" stop-color="#00EDFF"/>
</linearGradient>
<linearGradient id="paint3_linear_13_130" x1="9.36542" y1="20.521" x2="27.4585" y2="2.42788" gradientUnits="userSpaceOnUse">
<stop stop-color="#1DFF96"/>
<stop offset="1" stop-color="#02FFF9"/>
</linearGradient>
<linearGradient id="paint4_linear_13_130" x1="9.36996" y1="20.5255" x2="16.6081" y2="13.2828" gradientUnits="userSpaceOnUse">
<stop stop-color="#1DECA0" stop-opacity="0.85"/>
<stop offset="1" stop-color="#13ECC1" stop-opacity="0.85"/>
</linearGradient>
<clipPath id="clip0_13_130">
<rect width="114.002" height="32" fill="white"/>
</clipPath>
</defs>
</svg>
