<svg width="29" height="32" viewBox="0 0 29 32" fill="none" xmlns="http://www.w3.org/2000/svg">
<g opacity="0.3">
<path opacity="0.3" d="M12.0463 23.0611L1.54921 12.5641C1.07336 12.0882 0.695889 11.5233 0.438359 10.9016C0.180829 10.2798 0.0482788 9.61346 0.0482788 8.94049C0.0482788 8.26756 0.180828 7.60119 0.438358 6.97947C0.695889 6.3577 1.07336 5.79282 1.54921 5.31694C2.02506 4.84107 2.58998 4.46362 3.21172 4.20609C3.83345 3.94856 4.49982 3.81601 5.17278 3.81601C5.84575 3.81601 6.51211 3.94856 7.13384 4.20609C7.75557 4.46362 8.32049 4.84107 8.79632 5.31694L15.6795 12.2001C16.6363 13.162 17.1726 14.4641 17.1708 15.8208C17.169 17.1776 16.6292 18.4782 15.6698 19.4376L12.0463 23.0611Z" fill="url(#paint0_linear_47_11)"/>
</g>
<path opacity="0.2" d="M10.2081 10.4448C10.4517 10.2019 10.645 9.91331 10.7769 9.59559C10.9088 9.27783 10.9767 8.9372 10.9767 8.59315C10.9767 8.24915 10.9088 7.90847 10.7769 7.59075C10.645 7.27299 10.4517 6.98442 10.2081 6.7415L15.6742 12.2076C16.6324 13.1683 17.1706 14.4698 17.1706 15.8267C17.1706 17.1835 16.6324 18.485 15.6742 19.4457L8.74132 26.5152C7.78046 27.4749 6.47802 28.0139 5.12001 28.0139C3.76202 28.0139 2.45956 27.4749 1.49871 26.5152L1.45316 26.4651C0.513678 25.501 -0.0083004 24.2056 0.000224881 22.8595C0.00875014 21.5134 0.547089 20.2248 1.49871 19.2726L10.2081 10.4448Z" fill="url(#paint1_linear_47_11)"/>
<path d="M12.0706 8.73824L26.5809 23.2486C27.5397 24.2074 28.0794 25.5071 28.0818 26.8631C28.0843 28.219 27.5492 29.5206 26.5938 30.4829C26.1187 30.9621 25.5536 31.343 24.931 31.6033C24.3083 31.8636 23.6404 31.9984 22.9655 31.9999C22.2907 32.0014 21.6221 31.8696 20.9983 31.612C20.3746 31.3544 19.8078 30.9762 19.3306 30.4989L8.44378 19.6121C7.96654 19.1349 7.58828 18.5682 7.33074 17.9444C7.07314 17.3206 6.94132 16.6521 6.94282 15.9772C6.94433 15.3023 7.07911 14.6344 7.33944 14.0117C7.59976 13.3891 7.98052 12.824 8.45986 12.3489L12.0706 8.73824Z" fill="url(#paint2_linear_47_11)"/>
<path d="M13.9114 21.3588C13.6676 21.6021 13.4742 21.8911 13.3423 22.2092C13.2103 22.5274 13.1424 22.8684 13.1424 23.2128C13.1424 23.5572 13.2103 23.8982 13.3423 24.2163C13.4742 24.5344 13.6676 24.8234 13.9114 25.0667L8.44525 19.6006C7.96969 19.1255 7.59239 18.5613 7.33499 17.9404C7.07758 17.3194 6.94507 16.6537 6.94507 15.9815C6.94507 15.3093 7.07758 14.6437 7.33499 14.0227C7.59239 13.4018 7.96969 12.8376 8.44525 12.3625L19.291 1.49858C20.2518 0.538933 21.5543 -9.15527e-05 22.9123 -9.15527e-05C24.2703 -9.15527e-05 25.5727 0.538933 26.5336 1.49858L26.5791 1.54869C27.5173 2.51261 28.0384 3.80698 28.0298 5.152C28.0213 6.49704 27.4838 7.78467 26.5336 8.73665L13.9114 21.3588Z" fill="url(#paint3_linear_47_11)"/>
<path d="M13.9114 25.053L8.44523 19.5869C7.5435 18.6899 7.01183 17.4868 6.95571 16.2161C6.94746 16.0644 6.94746 15.9123 6.95571 15.7606C7.01069 14.4884 7.54245 13.2834 8.44523 12.3853L12.0893 8.7412L19.3 15.9702L13.9114 21.3588C13.4232 21.8496 13.1491 22.5137 13.1491 23.2059C13.1491 23.8982 13.4232 24.5623 13.9114 25.053Z" fill="url(#paint4_linear_47_11)"/>
<defs>
<linearGradient id="paint0_linear_47_11" x1="16.4762" y1="18.9671" x2="2.37139" y2="4.86226" gradientUnits="userSpaceOnUse">
<stop offset="0.5" stop-color="#0D90FE"/>
<stop offset="0.59" stop-color="#23A5FD"/>
<stop offset="0.77" stop-color="#45C5FB"/>
<stop offset="0.91" stop-color="#5AD9FA"/>
<stop offset="1" stop-color="#62E0FA"/>
</linearGradient>
<linearGradient id="paint1_linear_47_11" x1="14.7859" y1="11.3148" x2="0.542138" y2="25.5586" gradientUnits="userSpaceOnUse">
<stop stop-color="#1DFF96"/>
<stop offset="1" stop-color="#02FFF9"/>
</linearGradient>
<linearGradient id="paint2_linear_47_11" x1="8.44227" y1="12.3624" x2="26.5807" y2="30.4962" gradientUnits="userSpaceOnUse">
<stop offset="0.39" stop-color="#006AED"/>
<stop offset="1" stop-color="#00EDFF"/>
</linearGradient>
<linearGradient id="paint3_linear_47_11" x1="9.36538" y1="20.5207" x2="27.4583" y2="2.42783" gradientUnits="userSpaceOnUse">
<stop stop-color="#1DFF96"/>
<stop offset="1" stop-color="#02FFF9"/>
</linearGradient>
<linearGradient id="paint4_linear_47_11" x1="9.36991" y1="20.5253" x2="16.608" y2="13.2826" gradientUnits="userSpaceOnUse">
<stop stop-color="#1DECA0" stop-opacity="0.85"/>
<stop offset="1" stop-color="#13ECC1" stop-opacity="0.85"/>
</linearGradient>
</defs>
</svg>
